<?xml version="1.0" encoding="UTF-8"?>
<svg id="Layer_1" data-name="Layer 1" xmlns="http://www.w3.org/2000/svg" viewBox="0 0 576 576">
  <path d="M226.95,438.61l-6.16-5.41c-30.64-13.24-56.27-35.92-73.22-64.36l-6.17-5.43c18.29,34.39,48.73,61.38,85.55,75.2Z" style="fill: #000; stroke-width: 0px;"/>
  <path d="M346.31,140.81l7.22,6.35c24.49,12.26,45.38,30.7,60.58,53.28l7.21,6.34c-17.3-29.2-43.58-52.47-75.01-65.98Z" style="fill: #000; stroke-width: 0px;"/>
  <path d="M225.94,138.41c-35.97,13.78-65.77,40.14-83.95,73.69l6.32-5.54c16.74-27.5,41.65-49.5,71.33-62.61l6.3-5.53Z" style="fill: #000; stroke-width: 0px;"/>
  <path d="M422.15,368.44l-6.98,6.13c-15.66,23.89-37.63,43.3-63.51,55.83l-6.93,6.09c32.64-13.61,59.86-37.7,77.42-68.05Z" style="fill: #000; stroke-width: 0px;"/>
  <path d="M441.31,388.5c.42-2.99.65-6.04.65-9.14,0-11.45,3.03-22.42,8.69-32.03h-3.12c-5.4,9.69-8.29,20.63-8.29,32.03,0,3.84-.36,7.6-1.02,11.26-3.13,2.01-6.46,3.78-10.01,5.25-16.28,6.74-28.96,19.42-35.7,35.7-1.46,3.52-3.22,6.86-5.24,10.01-3.66.66-7.43,1.03-11.27,1.03-17.62,0-34.18,6.86-46.64,19.32-2.72,2.72-5.64,5.13-8.7,7.25-3.29-.72-6.54-1.71-9.72-2.96l-2.3,2.02c.07.03.14.05.21.08,2.85,1.18,5.75,2.14,8.68,2.91-6.73,4.1-14.06,6.82-21.59,8.18-7.46,1.34-15.12,1.34-22.58,0-7.53-1.36-14.86-4.08-21.59-8.18,2.93-.77,5.83-1.73,8.68-2.91.07-.03.14-.05.21-.08l-2.3-2.02c-3.19,1.26-6.44,2.24-9.72,2.96-3.06-2.12-5.98-4.52-8.7-7.25-12.46-12.46-29.02-19.32-46.64-19.32-3.85,0-7.61-.36-11.28-1.03-2.01-3.15-3.78-6.48-5.24-10.01-6.74-16.28-19.42-28.95-35.7-35.7-3.55-1.47-6.88-3.25-10.01-5.25-.66-3.66-1.02-7.42-1.02-11.26,0-11.4-2.89-22.34-8.28-32.03h-3.12c5.66,9.61,8.69,20.58,8.69,32.03,0,3.1.23,6.15.65,9.14-13.65-9.97-22.54-24.92-25.14-41.17h-2.75c2.76,17.99,12.9,34.49,28.52,44.94,5.18,26.03,25.73,46.58,51.75,51.77,7.18,10.78,17.37,19.2,29.61,24.27,8.14,3.37,16.69,5.06,25.24,5.06,4.3,0,8.61-.43,12.86-1.28,8.86,5.91,18.84,9.44,29.04,10.6,2.51.29,5.03.45,7.55.45s5.04-.16,7.55-.45c10.2-1.17,20.18-4.69,29.04-10.6,12.7,2.55,25.86,1.29,38.1-3.78,12.23-5.07,22.43-13.49,29.61-24.27,26.02-5.19,46.56-25.73,51.75-51.75,10.78-7.18,19.2-17.37,24.27-29.61,2.07-4.99,3.5-10.14,4.3-15.35h-2.79c-2.6,16.25-11.49,31.2-25.14,41.17ZM131.82,394.28c2.6,1.53,5.33,2.91,8.2,4.1,15.61,6.47,27.76,18.62,34.23,34.23,1.18,2.85,2.55,5.58,4.08,8.2-22.9-5.57-40.95-23.62-46.51-46.52ZM210.99,465.79c-10.91-4.52-20.12-11.82-26.89-21.13,3,.42,6.06.65,9.17.65,16.89,0,32.78,6.58,44.72,18.52,2.2,2.2,4.53,4.2,6.95,6.03-11.37,1.8-23.05.45-33.95-4.07ZM358.28,465.79c-10.91,4.52-22.58,5.87-33.95,4.07,2.42-1.82,4.75-3.82,6.95-6.03,11.94-11.94,27.83-18.52,44.72-18.52,3.11,0,6.17-.23,9.17-.65-6.77,9.31-15.98,16.61-26.89,21.13ZM390.93,440.8c1.53-2.62,2.9-5.35,4.08-8.2,6.46-15.61,18.62-27.76,34.23-34.23,2.85-1.18,5.58-2.55,8.2-4.08-5.57,22.89-23.62,40.94-46.51,46.51Z" style="fill: #000; stroke-width: 0px;"/>
  <path d="M102.26,244.11c-1.92-21.9,7.8-43.54,25.7-56.62-.42,2.99-.65,6.04-.65,9.14,0,16.57-6.34,32.16-17.86,44.02l10.84-9.52c6.33-10.28,9.73-22.13,9.73-34.51,0-3.84.36-7.6,1.02-11.26,3.13-2.01,6.46-3.78,10.01-5.26,16.28-6.74,28.95-19.42,35.7-35.7,1.47-3.55,3.23-6.89,5.24-10.01,3.66-.66,7.42-1.03,11.27-1.03,17.62,0,34.18-6.86,46.64-19.32,2.72-2.72,5.63-5.12,8.69-7.24,3.32.72,6.63,1.72,9.89,3.02l2.3-2.02c-.12-.05-.24-.09-.36-.14-2.87-1.19-5.77-2.14-8.7-2.9,6.82-4.15,14.26-6.9,21.9-8.24,3.64-.64,7.32-.97,11-.97s7.65.36,11.43,1.05c7.49,1.37,14.77,4.09,21.47,8.16-2.92.76-5.83,1.71-8.69,2.9-.04.02-.09.03-.13.05l2.3,2.02c3.19-1.25,6.42-2.22,9.67-2.93,3.05,2.12,5.97,4.52,8.69,7.24,12.46,12.46,29.02,19.32,46.64,19.32,3.84,0,7.6.36,11.26,1.02,2.01,3.13,3.78,6.46,5.25,10.01,6.74,16.28,19.42,28.95,35.7,35.7,3.52,1.46,6.86,3.22,10.01,5.24.66,3.66,1.03,7.43,1.03,11.28,0,12.35,3.38,24.18,9.7,34.45l10.84,9.53c-11.49-11.86-17.82-27.43-17.82-43.98,0-3.11-.23-6.17-.65-9.17,9.31,6.77,16.61,15.98,21.13,26.89,3.96,9.57,5.49,19.73,4.59,29.76h2.72c.89-10.38-.7-20.9-4.8-30.8-5.07-12.23-13.49-22.43-24.27-29.61-5.19-26.02-25.75-46.57-51.77-51.75-14.76-22.07-41.62-33.2-67.65-28.02-8.82-5.89-18.76-9.42-28.93-10.6-4.97-.58-9.98-.6-14.95-.05-10.31,1.13-20.4,4.68-29.35,10.65-26.04-5.17-52.9,5.95-67.65,28.02-26.04,5.19-46.59,25.74-51.78,51.78-20.02,13.38-31.03,36.72-29.05,60.38h2.72ZM437.44,181.69c-2.62-1.53-5.35-2.9-8.2-4.08-15.61-6.46-27.76-18.62-34.23-34.23-1.19-2.87-2.57-5.6-4.1-8.2,22.9,5.56,40.95,23.61,46.52,46.51ZM385.14,131.32c-2.99-.42-6.04-.65-9.14-.65-16.89,0-32.78-6.58-44.72-18.52-2.19-2.19-4.51-4.19-6.92-6.01,23.29-3.62,46.88,6.15,60.79,25.18ZM235.27,105.38c3.2,0,6.43.26,9.65.76-2.41,1.82-4.73,3.81-6.93,6.01-11.94,11.94-27.83,18.52-44.72,18.52-3.11,0-6.16.23-9.15.65,11.98-16.41,31.17-25.94,51.15-25.94ZM178.35,135.18c-1.53,2.6-2.91,5.33-4.1,8.2-6.47,15.61-18.62,27.76-34.23,34.23-2.87,1.19-5.6,2.57-8.2,4.1,5.56-22.9,23.62-40.96,46.53-46.53Z" style="fill: #000; stroke-width: 0px;"/>
  <path d="M518.66,252.59h-68.1l-14.4-12.65-4.05-3.56-116.56-102.46-4.05-3.56-17.91-15.74-2.73-2.4-5.33-4.69c-.51-.45-1.28-.45-1.79,0l-5.33,4.69-2.73,2.4-17.22,15.14-3.89,3.42-15.39,13.52c.93.46,1.74.96,2.44,1.47l18.03-15.85,3.69-3.25,16-14.06,2.89-2.54,2.4-2.11,2.4,2.11,2.89,2.54,16.54,14.53,3.82,3.36,123.53,108.57,3.83,3.36,8.81,7.74h-72.38c-2.13-.8-15.88-5.7-24.67-2.29-3.4,1.32-5,2.03-6.23,2.29h-2.08c-1.56-.29-3.8-1.14-9.28-2.29-6.64-1.39-14.53-6.16-22.33-10.63-.39,4.43-.67,8.83-.87,12.92,0,.04,0,.07,0,.11h-2.9s0-.08,0-.11c.18-4.63.49-12.98.46-12.39.05-.77.09-1.55.15-2.32.38-5.75.92-11.4,1.7-16.31l-1.37-.58s-1.48,6.13-3.28,15.29c-.93,4.77-1.95,10.35-2.89,16.31,0,.04-.01.07-.02.11h-1.81s.01-.07.02-.11c.87-5.74,1.92-11.64,3-17.2-4.29-2.17-8.41-3.85-12.12-4.36-9.04-1.26-21.9.95-34.87,4.37.64,5.69,1.44,11.5,2.32,17.19,0,.04.01.07.02.11h-5.06s-.01-.07-.02-.11c-.43-2.2-.7-3.57-.65-3.25-.72-4.18-1.38-8.36-1.97-12.46-.85-5.95-1.53-11.73-1.91-17.01l-2.33-.4s-.05,7.28.26,18.59c.12,4.32.29,9.22.54,14.53,0,.04,0,.07,0,.11h-2.9s0-.07,0-.11c-.23-4.64-.41-9.22-.56-13.63-18.52,5.81-34.71,12.7-36.89,13.63h-82.69l4.95-4.35,3.7-3.25,84.14-73.95c-.07.01-.14.02-.21.04-1.75.09-3.31.34-4.69.65l-77.73,68.32-3.89,3.42-10.39,9.13h-61.37c-.75,0-1.36.67-1.36,1.49v79.68c0,.82.61,1.49,1.36,1.49h74.85l.5.44,122.81,107.95,3.84,3.38,16.33,14.36,2.73,2.4,5.33,4.69c.26.23.58.34.9.34s.64-.11.9-.34l5.33-4.69,2.73-2.4,17-14.94,3.99-3.51,117.87-103.6,4.01-3.53.62-.54h81.59c.75,0,1.36-.67,1.36-1.49v-79.68c0-.82-.61-1.49-1.36-1.49ZM517.3,332.27h-131.43v2.97h47.09l-123.58,108.63-3.79,3.33-15.66,13.76-2.89,2.54-2.4,2.11-2.4-2.11-2.89-2.54-15.15-13.32-3.66-3.22-124.22-109.18h45.99v-2.97H58.7v-76.71h458.61v76.71Z" style="fill: #000; stroke-width: 0px;"/>
  <path d="M382.02,351.92h-193.57c-.75,0-1.36.61-1.36,1.36s.61,1.36,1.36,1.36h193.57c.75,0,1.36-.61,1.36-1.36s-.61-1.36-1.36-1.36Z" style="fill: #000; stroke-width: 0px;"/>
  <polygon points="203.7 336.34 203.7 325.29 209.36 325.29 209.36 322.88 195.49 322.88 195.49 325.29 201.15 325.29 201.15 336.34 203.7 336.34" style="fill: #000; stroke-width: 0px;"/>
  <path d="M218.01,331.95h2.31c3.55,4.05,5.2,4.78,7.32,4.8h0c1.67,0,2.58-.45,3.12-.8l.53-.34-.78-1.48-.37-.55-.59.3c-.31.16-.88.45-1.87.45s-1.85-.17-3.98-2.39h.51c3.19,0,5.18-1.76,5.18-4.61s-1.98-4.65-5.18-4.65h-8.77v13.66h2.56v-4.4ZM218.01,325.1h6.12c.82,0,2.72.22,2.72,2.24,0,1.91-1.7,2.19-2.72,2.19h-6.12v-4.44Z" style="fill: #000; stroke-width: 0px;"/>
  <path d="M242.63,322.83l-6.03,13.52h2.68l.83-1.81h9.4l.83,1.81h2.68l-6.03-13.52h-4.36ZM241.19,332.12l2.97-6.84h1.29l2.99,6.84h-7.26Z" style="fill: #000; stroke-width: 0px;"/>
  <polygon points="256.28 322.69 261.37 335.78 261.4 335.87 266 335.87 271.12 322.69 268.41 322.69 264.3 333.41 263.1 333.41 258.99 322.69 256.28 322.69" style="fill: #000; stroke-width: 0px;"/>
  <polygon points="290.34 336.35 290.34 333.93 280.59 333.89 280.59 330.61 288.91 330.61 288.91 328.2 280.59 328.2 280.59 325.1 290.34 325.1 290.34 322.69 278.03 322.69 278.03 336.29 290.2 336.35 290.34 336.35" style="fill: #000; stroke-width: 0px;"/>
  <polygon points="297.41 322.69 297.41 336.15 309.24 336.15 309.24 333.74 299.96 333.74 299.96 322.69 297.41 322.69" style="fill: #000; stroke-width: 0px;"/>
  <polygon points="335.97 333.74 326.7 333.74 326.7 322.69 324.14 322.69 324.14 336.15 335.97 336.15 335.97 333.74" style="fill: #000; stroke-width: 0px;"/>
  <polygon points="346.62 336.34 346.62 325.29 352.28 325.29 352.28 322.88 338.4 322.88 338.4 325.29 344.06 325.29 344.06 336.34 346.62 336.34" style="fill: #000; stroke-width: 0px;"/>
  <path d="M372.1,329.53c0-4.25-2.62-6.79-7.01-6.79h-6.7v13.56h6.7c4.39,0,7.01-2.53,7.01-6.77ZM360.95,325.14h4.14c2.87,0,4.45,1.56,4.45,4.38s-1.58,4.36-4.45,4.36h-4.14v-8.74Z" style="fill: #000; stroke-width: 0px;"/>
  <rect x="377.24" y="333.98" width="2.56" height="2.63" style="fill: #000; stroke-width: 0px;"/>
  <path d="M340.24,222.44c3.12-1.23,6.89-1.96,10.96-1.96,1.44,0,2.85.09,4.2.26-.76.5-1.46,1.07-2.07,1.69,1.36-.54,2.84-.98,4.42-1.3,1.57.32,3.06.76,4.41,1.3-.62-.62-1.31-1.19-2.07-1.69,1.35-.17,2.76-.26,4.2-.26,4.06,0,7.84.72,10.96,1.96-2.57-2.59-6.52-4.25-10.96-4.25-2.36,0-4.59.47-6.54,1.3-1.96-.83-4.18-1.3-6.54-1.3-4.44,0-8.39,1.66-10.96,4.25Z" style="fill: #000; stroke-width: 0px;"/>
  <path d="M372.9,208.78c-1.36-1.37-3.44-2.24-5.78-2.24-1.25,0-2.42.25-3.45.69-1.03-.44-2.21-.69-3.45-.69-2.34,0-4.43.88-5.78,2.24,1.65-.65,3.64-1.03,5.78-1.03.76,0,1.5.05,2.22.14-.4.26-.77.56-1.09.89.72-.28,1.5-.52,2.33-.69.83.17,1.61.4,2.33.69-.33-.33-.69-.63-1.09-.89.71-.09,1.45-.14,2.22-.14,2.15,0,4.14.38,5.78,1.03Z" style="fill: #000; stroke-width: 0px;"/>
  <path d="M92.35,292.31c-.41-.07-.79-.14-1.12-.19-.55-.09-1.1-.18-1.63-.29-2.87-.57-5.31-1.46-5.31-3.65,0-.83,0-3.25,5.27-3.5.29-.01.59-.03.92-.03.65,0,1.23.05,1.8.11,2.6.3,4.29,1.16,4.81,1.47l.96.56,2.06-3.66-.95-.54c-1.91-1.08-4.09-1.74-6.52-1.98-.52-.05-1.05-.08-1.58-.1-.2,0-.41-.02-.61-.02-.18,0-.35.01-.53.01-1.25.03-2.4.17-3.44.41-3.46.81-5.69,2.74-6.32,5.55-.12.55-.19,1.13-.19,1.74,0,.42.03.82.09,1.19.6,3.78,4.01,5.39,7.02,6.17,1.08.28,2.1.46,2.92.58.16.02.32.05.46.07.69.1,1.3.21,1.85.33.17.04.33.07.49.11,3.36.79,4.1,1.91,4.1,3.46,0,.16-.01.3-.03.45-.11,1.1-.63,1.87-1.38,2.4-.4.28-.85.5-1.35.65-.84.27-1.79.39-2.7.42-.17,0-.34,0-.51,0-3.42,0-6.84-1.42-8.17-2.17l-1.02-.58-1.78,3.75.88.5c2.22,1.27,6.36,2.63,10.19,2.63.55,0,1.08-.03,1.59-.08.96-.09,1.87-.26,2.69-.51,1.34-.41,2.48-1.03,3.4-1.81.71-.61,1.28-1.32,1.7-2.12.53-1.03.83-2.2.83-3.5,0-5.76-5.54-7.27-8.86-7.87Z" style="fill: #000; stroke-width: 0px;"/>
  <path d="M125.56,281.93h-5.48l-10.74,24.06-.37.84h4.61l1.56-3.38h17.8l1.55,3.38h4.61l-11.11-24.9h-2.43ZM125.81,299.31h-8.82l5.72-13.15h2.66l.08.18,5.67,12.97h-5.31Z" style="fill: #000; stroke-width: 0px;"/>
  <polygon points="169.88 299.92 153.69 281.66 149.75 281.66 149.75 306.83 154.15 306.83 154.15 288.86 170.26 306.83 174.29 306.83 174.29 281.66 169.88 281.66 169.88 299.92" style="fill: #000; stroke-width: 0px;"/>
  <path d="M212.03,294.26c0-7.84-4.83-12.51-12.92-12.51h-12.34v24.99h12.34c8.09,0,12.92-4.66,12.92-12.47ZM191.19,285.89h7.93c5.49,0,8.51,2.97,8.51,8.37s-3.02,8.33-8.51,8.33h-7.93v-16.7Z" style="fill: #000; stroke-width: 0px;"/>
  <path d="M261.51,294.26c0-7.84-4.83-12.51-12.92-12.51h-12.34v24.99h12.34c8.09,0,12.92-4.66,12.92-12.47ZM240.66,285.89h7.93c5.49,0,8.51,2.97,8.51,8.37s-3.02,8.33-8.51,8.33h-7.93v-16.7Z" style="fill: #000; stroke-width: 0px;"/>
  <rect x="271.95" y="281.66" width="4.41" height="25.16" style="fill: #000; stroke-width: 0px;"/>
  <path d="M292.28,303.45h17.8l1.55,3.38h4.61l-11.11-24.9h-7.91l-11.11,24.9h4.61l1.56-3.38ZM299.85,286.16h2.66l5.76,13.15h-14.13l5.72-13.15Z" style="fill: #000; stroke-width: 0px;"/>
  <polygon points="331.26 288.9 342.12 305.7 352.94 288.91 352.94 306.83 357.35 306.83 357.35 281.66 355.13 281.66 355.13 281.48 355.01 281.66 352.36 281.66 342.12 297.95 331.83 281.66 329.18 281.66 329.07 281.5 329.07 281.66 326.85 281.66 326.85 306.83 331.26 306.83 331.26 288.9" style="fill: #000; stroke-width: 0px;"/>
  <path d="M382.04,280.64c-8.47,0-14.16,5.46-14.16,13.58s5.69,13.58,14.16,13.58,14.16-5.46,14.16-13.58-5.69-13.58-14.16-13.58ZM382.04,303.66c-6.07,0-9.84-3.62-9.84-9.44s3.77-9.44,9.84-9.44,9.84,3.62,9.84,9.44-3.77,9.44-9.84,9.44Z" style="fill: #000; stroke-width: 0px;"/>
  <polygon points="426.87 299.92 410.67 281.66 406.73 281.66 406.73 306.83 411.14 306.83 411.14 288.86 427.25 306.83 431.27 306.83 431.27 281.66 426.87 281.66 426.87 299.92" style="fill: #000; stroke-width: 0px;"/>
  <path d="M460.37,282.25c-.84-.22-1.74-.36-2.69-.44-.51-.04-1.03-.07-1.57-.07h-12.34v24.99h12.34c1.41,0,2.71-.15,3.91-.42.92-.21,1.79-.5,2.58-.86,4.11-1.89,6.42-5.78,6.42-11.19,0-6.34-3.16-10.61-8.65-12.01ZM461.51,301.16c-.73.49-1.57.87-2.53,1.11-.87.21-1.83.33-2.88.33h-7.93v-16.7h7.93c.46,0,.9.03,1.33.07,1,.1,1.9.31,2.7.63,2.91,1.17,4.48,3.79,4.48,7.67,0,3.19-1.08,5.53-3.09,6.9Z" style="fill: #000; stroke-width: 0px;"/>
  <path d="M488.46,280.5c-2.01,0-3.77.27-5.24.79-.99.34-1.85.8-2.57,1.36-.39.3-.74.62-1.04.97-1.05,1.22-1.62,2.77-1.62,4.6s.64,3.3,1.6,4.38c.28.31.57.61.9.87.75.6,1.61,1.06,2.5,1.42,2,.82,4.14,1.14,5.49,1.34.76.11,1.43.23,2.04.37.5.11.94.22,1.35.35.52.16.96.34,1.34.53,1.22.63,1.72,1.47,1.72,2.65,0,1.66-.85,2.65-2.05,3.22-.43.2-.9.36-1.39.46-.45.1-.91.16-1.38.2-.39.03-.78.05-1.16.05-3.42,0-6.85-1.42-8.18-2.17l-1.02-.58-1.78,3.75.88.5c2.22,1.27,6.36,2.63,10.19,2.63.24,0,.47-.01.71-.02.47-.02.93-.05,1.38-.11.48-.06.94-.15,1.38-.25,4.18-.97,6.74-3.76,6.74-7.65,0-4.23-2.98-6.16-5.89-7.13-.46-.15-.91-.29-1.35-.4-.47-.12-.93-.21-1.35-.29-.52-.1-.99-.17-1.39-.24-.88-.14-1.75-.3-2.56-.49-1.12-.26-2.12-.6-2.89-1.07-.92-.56-1.5-1.32-1.5-2.38,0-.55,0-1.82,1.58-2.68.7-.38,1.73-.68,3.21-.79.43-.03.89-.06,1.4-.06.78,0,1.49.06,2.15.16.48.07.95.15,1.36.25.52.12.96.26,1.36.41.86.31,1.46.62,1.73.77l.96.57,2.06-3.66-.95-.54c-1.19-.67-2.5-1.18-3.9-1.53-.45-.11-.9-.21-1.37-.29-.45-.07-.9-.13-1.37-.18-.68-.07-1.37-.1-2.08-.1Z" style="fill: #000; stroke-width: 0px;"/>
  <path d="M312.58,393.26s-.04-.07-.09-.17c-.02-.03-.04-.05-.06-.07l-.29.24h0s.23-.31.23-.31l-.25.29.17-.35c-.31-.28-2.27-2.76-4.49-5.68l-8.17-4.45c-.13-.07-.27-.1-.42-.1h-33.77c-.15,0-.29.04-.42.11l-7.95,4.26-.25.22c-2.13,2.81-4.04,5.23-4.42,5.61l-.03.03s-.04.03-.08.06c-.02.02-.05.04-.11.11l-.06.09s-.04.07-.05.1l-.04.09c-.15.49-.09.58,1.45,2.67.8,1.09,1.96,2.64,3.53,4.73,2.92,3.87,6.82,9.02,10.6,13.99l.28.36c5.1,6.71,10.87,14.32,12.91,17.1.39.54.65.89.7.98.02.05.04.09.09.17,0,0,0,0,0,0l.09.12s.01.01.02.02l.05.05s.07.05.12.09c.05.03.1.05.17.08.04.01.09.02.13.03h.15s.25-.02.25-.02l.13-.05s.07-.03.11-.06c.04-.03.09-.06.11-.08l.14-.12v-.05s.01-.02.02-.03c.03-.04.05-.09.05-.09.08-.13.33-.49.73-1.03,2.11-2.88,8.24-10.97,13.18-17.46,3.78-4.98,7.69-10.12,10.6-13.99,1.57-2.09,2.73-3.64,3.53-4.73,1.54-2.1,1.6-2.18,1.45-2.67l-.03-.08ZM265.66,384.42h33.32l6.08,3.26-10.47,4.4h-24.54l-10.47-4.4,6.08-3.26ZM296,398.5c-4.98.02-22.38.02-27.36,0l1.83-4.64h23.69l1.83,4.64ZM257.81,388.86l10.91,4.59-1.89,4.77-12.45-4.98c.73-.88,1.86-2.33,3.42-4.39ZM269.02,413.66l-.3-.39c-5.03-6.63-10.67-14.05-13.4-17.74l11.34,4.53,10.93,24.91c-2.44-3.23-5.44-7.18-8.58-11.32ZM282.28,433.36h0s0,0,0,0h0ZM282.34,431.26h0s-.02.03-.02.03l-13.62-31.02c1.46,0,3.9.02,6.32.02,1.44,0,2.69,0,3.75,0h1.55c.76,0,1.36,0,1.76-.01h.23s.25,0,.25,0c.4,0,1,0,1.76.01h1.55c1.05,0,2.3,0,3.74,0,2.42,0,4.85-.02,6.32-.02l-13.6,30.99ZM295.61,413.66l-.22.29c-3.06,4.04-5.98,7.87-8.36,11.03l10.93-24.91,11.34-4.53c-2.84,3.83-8.81,11.69-13.7,18.13ZM297.8,398.22l-1.89-4.77,10.91-4.59c1.57,2.06,2.69,3.51,3.42,4.39l-12.45,4.98Z" style="fill: #000; stroke-width: 0px;"/>
  <rect x="316.59" y="392.75" width="10.57" height="1.53" style="fill: #000; stroke-width: 0px;"/>
  <rect x="315.24" y="384.24" width="7.36" height="1.53" transform="translate(-112.44 132.29) rotate(-20)" style="fill: #000; stroke-width: 0px;"/>
  <rect x="318.14" y="398.34" width="1.53" height="7.37" transform="translate(-167.95 564.19) rotate(-70)" style="fill: #000; stroke-width: 0px;"/>
  <rect x="236.07" y="393.52" width="10.57" height="1.53" style="fill: #000; stroke-width: 0px;"/>
  <rect x="240.64" y="402.03" width="7.36" height="1.53" transform="translate(-123.02 107.84) rotate(-20)" style="fill: #000; stroke-width: 0px;"/>
  <rect x="243.56" y="382.09" width="1.53" height="7.37" transform="translate(-201.75 483.44) rotate(-70)" style="fill: #000; stroke-width: 0px;"/>
  <path d="M241.91,182.94s1.18-3.03,4.91-5.11c0,0-4.47,9.03-3.89,20.85,0,0,1.11-2.15,3.76-3.73-1.72,5.68-2.81,11.47-1.18,18.58,0,0,10.63-17.2,7.35-37.45,0,0,1.85,1.7,2.26,9.01,0,0,3.11-11.26-2.59-15.68-5.7-4.42-10.92,3.1-10.64,13.53Z" style="fill: #000; stroke-width: 0px;"/>
  <path d="M240.31,193.39c-4.08-5.94-11.67,2.74-14.34,6.08,2.96-7.35,13.73-13.71,13.73-13.71l-.88-2.38c-14.65,3.54-18.1,18.35-14.84,29.13,2.19-13.88,16.33-19.12,16.33-19.12Z" style="fill: #000; stroke-width: 0px;"/>
  <path d="M260.24,182.58c0,.87-.16,2.84-.35,4.48,2.33,3.24,6.5,6.97,6.88,14.95-1.05-3.08-3.55-7.78-7.68-10.77-.3,1.16-.54,1.79-1.04,2.99,3.22,3.84,7.97,11.34,6.17,20.73,6.71-9.01,8.5-24.05-3.97-32.38Z" style="fill: #000; stroke-width: 0px;"/>
  <path d="M245.64,164.58s1.76-.06,4.39.27c0,0,.61-8.71,5.84-14.85,0,0-3.21,6.37-3.77,14.09,0,0,2.44-4.84,5.91-7.15l-2.68-.24s3.13-6.51,7.54-9.04l-2.47-.22s2.71-4.47,5.96-6.34c0,0-17.66,3.08-20.73,23.47Z" style="fill: #000; stroke-width: 0px;"/>
  <path d="M231.43,159.51c-.76-.18-1.53-.29-2.29-.37-1.39-.14-2.77-.12-4.14.03-7.37.81-14.12,5.4-16.51,9.23h4.33s2.2-2.34,6.31-4.07c1.67-.7,3.66-1.29,5.93-1.6.24-.03.48-.07.73-.1,0,0-.47.18-1.18.49-1.87.83-5.48,2.62-7.01,4.74l1.51.1,3.27.22s5.09-3.73,10.74-3.85c0,0-4.09,1.21-6.77,4.17l5.62.66s3.35-1.86,6.62-2.04l-3.1,2.42,4.82,2.49s2.23-4.45,4.22-4.67c0,0-3.55-5.56-13.1-7.85Z" style="fill: #000; stroke-width: 0px;"/>
  <path d="M239.23,150.27c-.68-.55-1.43-1.1-2.26-1.63-2.9-1.82-6.75-3.33-11.74-3.58,0,0,4.3,3.63,7.05,7.71.53.79,1,1.6,1.38,2.41.04.08.08.17.12.25,0,0,4.84,2.11,7.66,5.14,0,0-.47-3.88-4.54-8.24-.58-.62-1.23-1.26-1.97-1.89-.39-.33-.79-.66-1.23-.99.52.23,1.01.49,1.52.74.87.43,1.72.89,2.55,1.38,2.22,1.32,4.32,2.81,6.4,4.44,0,0-1.49-2.9-4.95-5.72Z" style="fill: #000; stroke-width: 0px;"/>
  <path d="M220.19,177.05s-9.8.26-11.9,14.77c0,0,9.88-9.79,18.98-11.98,0,0-2.86,1.91-4.19,3.74,0,0,6.14-3.68,11.82-4.43,0,0-1.82,1.49-2.68,2.03,0,0,4.11-.16,6.72-.06.13-1.07.45-2.79,1.25-4.61-3.72-.68-18.03-2.33-27.74,9.87,0,0,2.28-6.34,7.75-9.34Z" style="fill: #000; stroke-width: 0px;"/>
  <path d="M280.69,191.65c1.56-11.14-5.61-13.42-5.61-13.42,3.38,3.38,3.71,8.53,3.71,8.53-4.54-11.05-15.43-12.89-18.31-13.19.2,1.51.07,2.84-.06,3.66,1.94.48,4.93,1.48,4.93,1.48-.51-.59-1.54-2.07-1.54-2.07,4.02,1.76,7.75,5.79,7.75,5.79-.59-1.63-2.29-3.65-2.29-3.65,6.23,3.56,11.41,12.87,11.41,12.87Z" style="fill: #000; stroke-width: 0px;"/>
  <path d="M261,167.2l1.35,1.46s5.92-2.26,12.99-1.11c0,0-1.69-1.2-4.46-1.97,4.84-1.37,12.44.82,17.09,3.02,0,0-13.18-11.54-26.96-1.4Z" style="fill: #000; stroke-width: 0px;"/>
  <path d="M259.46,161.23c7.52-5.63,11.08-7.34,20.28-9.27,0,0-14.7-1.97-20.28,9.27Z" style="fill: #000; stroke-width: 0px;"/>
  <path d="M318.4,191.36c-2.86-3.53-7.14.34-8.46,6.77,0,0,1.16-1.69,3.75-2.43,0,0-4.04,4.89-5.37,12.23,0,0,.99-1.16,2.84-1.75-1.87,3.24-3.37,6.63-3.39,11.23,0,0,8.98-9.02,9.88-21.92,0,0,.89,1.31.1,5.85,0,0,3.52-6.46.66-9.99Z" style="fill: #000; stroke-width: 0px;"/>
  <path d="M308.18,199.55l-.2-1.59c-9.49.07-13.73,8.66-13.28,15.74,3.33-8.2,12.76-9.38,12.76-9.38-1.65-4.23-7.55,0-9.66,1.67,2.87-4.09,10.38-6.44,10.38-6.44Z" style="fill: #000; stroke-width: 0px;"/>
  <path d="M321.23,200.54c-.12.54-.51,1.72-.86,2.7.96,2.32,2.99,5.21,2.08,10.16-.2-2.04-1.06-5.28-3.17-7.7-.35.67-.59,1.02-1.07,1.68,1.43,2.82,3.26,8.1.81,13.6,5.41-4.56,8.66-13.53,2.21-20.42Z" style="fill: #000; stroke-width: 0px;"/>
  <path d="M314.86,187.41s1.09.22,2.65.8c0,0,1.62-5.26,5.71-8.27,0,0-2.88,3.44-4.33,8.1,0,0,2.19-2.62,4.65-3.54l-1.61-.53s2.85-3.54,5.92-4.46l-1.48-.49s2.31-2.36,4.57-3.04c0,0-11.27-.64-16.08,11.42Z" style="fill: #000; stroke-width: 0px;"/>
  <path d="M291.53,184.42l2.65.62s3.54-2.35,8.79-1.68c0,0-4.06.54-5.78,2.03l2.89.88s3.65-1.56,7.14-.82c0,0-2.68.16-4.75,1.59l3.35,1.21s2.32-.66,4.35-.3l-2.25,1.04,2.6,2.21s2-2.41,3.26-2.26c0,0-1.38-3.92-6.91-6.69-5.52-2.77-12.75-.42-15.35,2.16Z" style="fill: #000; stroke-width: 0px;"/>
  <path d="M305.14,172.51s3.13,4.19,3.76,7.58c0,0,2.67,1.99,3.96,4.25,0,0,.4-3.63-3.15-7.93,2.13,1.58,3.83,3.47,5.48,5.52,0,0-1.72-7.02-10.05-9.42Z" style="fill: #000; stroke-width: 0px;"/>
  <path d="M288.05,198.77s7.46-4.59,13.36-4.63c0,0-2.03.76-3.11,1.69,0,0,4.29-1.38,7.88-1.02,0,0-1.33.65-1.94.86,0,0,2.54.49,4.13.93.23-.64.68-1.65,1.43-2.65-2.19-.95-10.73-4.02-18.43,2.07,0,0,2.31-3.56,6.09-4.62,0,0-6.05-1.25-9.42,7.35Z" style="fill: #000; stroke-width: 0px;"/>
  <path d="M330.96,200.01c1.59,2.56,1.05,5.76,1.05,5.76-1.2-7.43-7.61-10.12-9.34-10.71-.09.95-.36,1.75-.56,2.24,1.12.57,2.81,1.61,2.81,1.61-.23-.43-.65-1.49-.65-1.49,2.21,1.66,3.93,4.66,3.93,4.66-.13-1.08-.88-2.57-.88-2.57,3.31,3.07,5.15,9.53,5.15,9.53,2.55-6.61-1.51-9.03-1.51-9.03Z" style="fill: #000; stroke-width: 0px;"/>
  <path d="M323.91,191.22l.62,1.09s3.96-.53,8.13,1.18c0,0-.87-.98-2.46-1.85,3.17-.15,7.51,2.28,10.04,4.3,0,0-6.43-8.97-16.33-4.73Z" style="fill: #000; stroke-width: 0px;"/>
  <path d="M323.82,187.34c5.42-2.37,7.85-2.92,13.77-2.78,0,0-8.73-3.32-13.77,2.78Z" style="fill: #000; stroke-width: 0px;"/>
</svg>