<?xml version="1.0" encoding="UTF-8"?>
<svg id="Layer_1" data-name="Layer 1" xmlns="http://www.w3.org/2000/svg" viewBox="0 0 576 576">
  <path d="M242.77,128.68c1.99-1.99,4.09-3.79,6.27-5.44-2.91-.45-5.83-.69-8.73-.69-18.07,0-35.42,8.62-46.26,23.46,2.71-.38,5.47-.59,8.28-.59,15.28,0,29.64-5.95,40.45-16.75Z" style="fill: #000; stroke-width: 0px;"/>
  <path d="M185.13,156.92c1.07-2.59,2.32-5.06,3.71-7.42-20.71,5.03-37.05,21.36-42.08,42.08,2.35-1.38,4.82-2.63,7.42-3.71,14.12-5.85,25.11-16.84,30.95-30.95Z" style="fill: #000; stroke-width: 0px;"/>
  <path d="M415.74,187.88c2.58,1.07,5.05,2.31,7.41,3.69-5.04-20.71-21.36-37.03-42.07-42.06,1.38,2.35,2.63,4.82,3.71,7.41,5.85,14.12,16.84,25.11,30.95,30.96Z" style="fill: #000; stroke-width: 0px;"/>
  <path d="M469.53,248.02c-18.42-85.71-94.77-150.17-185.91-150.17S116.14,162.3,97.72,248.02h-30.32v93.35h33.71c23.12,78.95,96.19,136.78,182.52,136.78s159.39-57.83,182.52-136.78h42.46v-93.35h-39.07ZM143.83,193.41c4.69-23.55,23.28-42.14,46.83-46.83,13.34-19.96,37.63-30.02,61.18-25.34,8.09-5.4,17.21-8.61,26.54-9.63,4.49-.49,9.03-.48,13.52.04,9.19,1.07,18.18,4.26,26.16,9.59,23.55-4.68,47.84,5.38,61.19,25.34,23.54,4.69,42.12,23.27,46.82,46.8,9.75,6.49,17.37,15.71,21.95,26.78,3.71,8.96,5.15,18.47,4.34,27.86h-2.46c.81-9.07-.57-18.26-4.15-26.92-4.08-9.86-10.69-18.19-19.11-24.32.38,2.71.59,5.48.59,8.3,0,14.97,5.72,29.05,16.12,39.78l-9.8-8.62c-5.71-9.28-8.77-19.98-8.77-31.15,0-3.48-.33-6.89-.93-10.2-2.85-1.82-5.86-3.42-9.05-4.74-14.72-6.1-26.19-17.56-32.28-32.28-1.33-3.21-2.94-6.23-4.75-9.05-3.31-.6-6.71-.93-10.18-.93-15.93,0-30.91-6.2-42.18-17.47-2.46-2.46-5.09-4.63-7.86-6.55-2.94.64-5.86,1.52-8.74,2.65l-2.08-1.83s.08-.03.12-.05c2.59-1.07,5.22-1.94,7.86-2.62-6.05-3.68-12.64-6.15-19.41-7.38-3.42-.62-6.88-.95-10.34-.95s-6.66.3-9.95.88c-6.91,1.21-13.64,3.69-19.81,7.45,2.64.69,5.27,1.55,7.87,2.62.11.04.22.08.32.13l-2.08,1.83c-2.95-1.17-5.94-2.07-8.94-2.73-2.76,1.92-5.4,4.09-7.86,6.55-11.27,11.27-26.25,17.47-42.18,17.47-3.48,0-6.88.33-10.19.93-1.82,2.82-3.41,5.84-4.74,9.05-6.1,14.72-17.56,26.19-32.28,32.28-3.21,1.33-6.23,2.94-9.05,4.75-.6,3.31-.93,6.71-.93,10.18,0,11.19-3.07,21.91-8.8,31.21l-9.8,8.61c10.41-10.73,16.15-24.83,16.15-39.81,0-2.81.21-5.56.59-8.27-16.18,11.83-24.97,31.4-23.24,51.2h-2.46c-1.79-21.39,8.16-42.5,26.27-54.61ZM408.57,214.26l-6.52-5.73c-13.75-20.42-32.63-37.1-54.78-48.19l-6.53-5.75c28.43,12.22,52.2,33.26,67.84,59.67ZM273.14,192.24s-3.37-3.64-7.01-5.23c0,0,.93,1.34,1.39,1.87,0,0-2.71-.9-4.46-1.34.12-.74.24-1.94.06-3.31,2.61.27,12.46,1.93,16.56,11.93,0,0-.3-4.66-3.35-7.72,0,0,6.48,2.06,5.07,12.14,0,0-4.68-8.43-10.32-11.64,0,0,1.54,1.83,2.07,3.3ZM260.9,202.91c.46-1.08.67-1.65.94-2.7,3.74,2.7,6,6.96,6.95,9.74-.34-7.22-4.12-10.59-6.22-13.52.17-1.48.33-3.26.32-4.05,11.28,7.53,9.66,21.13,3.59,29.28,1.63-8.49-2.66-15.27-5.58-18.74ZM272.52,177c2.51.69,4.04,1.78,4.04,1.78-6.39-1.04-11.75,1.01-11.75,1.01l-1.22-1.32c12.46-9.16,24.38,1.27,24.38,1.27-4.2-2-11.07-3.97-15.45-2.73ZM262.19,173.06c5.05-10.17,18.34-8.38,18.34-8.38-8.32,1.74-11.55,3.29-18.34,8.38ZM263.04,160.61l2.23.2c-4,2.29-6.82,8.17-6.82,8.17l2.42.22c-3.14,2.09-5.34,6.46-5.34,6.46.51-6.99,3.41-12.75,3.41-12.75-4.73,5.55-5.28,13.43-5.28,13.43-2.38-.3-3.97-.25-3.97-.25,2.78-18.43,18.75-21.22,18.75-21.22-2.94,1.69-5.39,5.74-5.39,5.74ZM255.94,180.46c5.15,4,2.34,14.18,2.34,14.18-.37-6.61-2.05-8.15-2.05-8.15,2.97,18.32-6.64,33.87-6.64,33.87-1.48-6.43-.49-11.67,1.07-16.81-2.4,1.43-3.4,3.37-3.4,3.37-.53-10.69,3.51-18.85,3.51-18.85-3.38,1.88-4.44,4.62-4.44,4.62-.26-9.44,4.47-16.24,9.62-12.24ZM244.87,182.83l-4.35-2.25,2.8-2.19c-2.96.17-5.99,1.85-5.99,1.85l-5.08-.6c2.43-2.68,6.12-3.77,6.12-3.77-5.12.11-9.72,3.48-9.72,3.48l-2.96-.2-1.37-.09c1.39-1.92,4.65-3.53,6.34-4.28.64-.28,1.07-.45,1.07-.45-.23.02-.44.06-.66.09-2.06.28-3.86.81-5.37,1.45-3.72,1.57-5.71,3.68-5.71,3.68h-3.91c2.16-3.46,8.27-7.62,14.93-8.35,1.24-.14,2.49-.15,3.75-.02.69.07,1.39.17,2.07.34,8.63,2.07,11.84,7.1,11.84,7.1-1.8.2-3.82,4.22-3.82,4.22ZM244.76,186.9c-.73,1.64-1.02,3.2-1.13,4.17-2.36-.09-6.08.05-6.08.05.77-.49,2.42-1.84,2.42-1.84-5.14.68-10.69,4.01-10.69,4.01,1.21-1.65,3.79-3.38,3.79-3.38-8.23,1.98-17.16,10.83-17.16,10.83,1.9-13.13,10.76-13.36,10.76-13.36-4.94,2.72-7,8.45-7,8.45,8.78-11.03,21.72-9.54,25.08-8.92ZM243.52,193.09l.8,2.15s-9.74,5.75-12.41,12.4c2.41-3.02,9.28-10.87,12.97-5.5,0,0-12.79,4.74-14.77,17.29-2.95-9.75.17-23.14,13.42-26.35ZM161.66,214.05l-5.71,5.01c16.44-30.34,43.39-54.18,75.92-66.64l-5.7,5c-26.84,11.86-49.38,31.75-64.51,56.62ZM242.58,164.31c-.75-.44-1.52-.86-2.31-1.24-.46-.22-.9-.46-1.37-.67.39.3.76.6,1.11.9.67.57,1.25,1.14,1.78,1.71,3.68,3.94,4.11,7.46,4.11,7.46-2.55-2.74-6.93-4.65-6.93-4.65-.03-.08-.07-.15-.11-.23-.34-.73-.76-1.46-1.24-2.18-2.48-3.69-6.38-6.97-6.38-6.97,4.51.23,7.99,1.6,10.62,3.24.76.47,1.43.97,2.05,1.47,3.12,2.55,4.47,5.17,4.47,5.17-1.88-1.47-3.78-2.82-5.79-4.01ZM448.02,355.25c-4.58,11.06-12.2,20.29-21.95,26.78-4.7,23.53-23.27,42.1-46.8,46.8-6.49,9.75-15.71,17.36-26.77,21.95-11.06,4.58-22.97,5.72-34.45,3.41-8,5.34-17.02,8.52-26.23,9.58l-.03.02c-2.28.26-4.56.41-6.85.41s-4.58-.15-6.85-.41l-.03-.03c-9.2-1.06-18.2-4.25-26.19-9.58-3.84.77-7.73,1.16-11.63,1.16-7.73,0-15.47-1.52-22.83-4.57-11.06-4.58-20.29-12.2-26.78-21.95-23.54-4.7-42.12-23.28-46.8-46.82-14.13-9.44-23.3-24.37-25.79-40.64h2.49c2.35,14.7,10.39,28.22,22.74,37.24-.38-2.7-.59-5.46-.59-8.27,0-10.35-2.74-20.28-7.86-28.97h2.82c4.88,8.76,7.49,18.66,7.49,28.97,0,3.48.33,6.88.93,10.18,2.83,1.82,5.84,3.42,9.05,4.75,14.72,6.1,26.19,17.56,32.28,32.28,1.32,3.19,2.92,6.2,4.74,9.05,3.31.6,6.72.93,10.2.93,15.93,0,30.91,6.2,42.18,17.47,2.46,2.46,5.1,4.64,7.87,6.55,2.97-.65,5.91-1.55,8.79-2.68l2.08,1.83c-.06.03-.13.05-.19.07-2.58,1.07-5.2,1.94-7.85,2.63,6.09,3.7,12.71,6.17,19.53,7.4l.02.02c6.74,1.2,13.65,1.2,20.39,0h.01c6.81-1.24,13.44-3.7,19.53-7.41-2.65-.69-5.28-1.56-7.85-2.63-.06-.03-.12-.05-.19-.07l2.08-1.83c2.88,1.14,5.82,2.03,8.79,2.68,2.77-1.92,5.41-4.09,7.87-6.55,11.27-11.27,26.25-17.47,42.18-17.47,3.48,0,6.89-.33,10.2-.93,1.82-2.85,3.42-5.86,4.74-9.05,6.1-14.72,17.56-26.19,32.28-32.28,3.21-1.33,6.23-2.94,9.05-4.75.6-3.31.93-6.71.93-10.18,0-10.31,2.61-20.21,7.49-28.97h2.82c-5.12,8.69-7.86,18.62-7.86,28.97,0,2.81-.21,5.56-.59,8.27,12.34-9.02,20.38-22.54,22.74-37.24h2.52c-.72,4.71-2.01,9.37-3.88,13.89ZM155.41,355.91l5.58,4.91c15.33,25.72,38.51,46.23,66.22,58.2l5.57,4.89c-33.3-12.5-60.83-36.9-77.37-68.01ZM339.3,422.01l6.26-5.51c23.41-11.33,43.28-28.88,57.44-50.49l6.31-5.55c-15.88,27.45-40.5,49.23-70.02,61.54ZM497.83,329.1c0,.74-.55,1.34-1.23,1.34h-73.78l-.56.49-3.63,3.19-106.6,93.69-3.61,3.17-15.37,13.51-2.47,2.17-4.82,4.24c-.23.2-.52.31-.81.31s-.58-.1-.81-.31l-4.82-4.24-2.47-2.17-14.77-12.98-3.47-3.05-111.07-97.63-.45-.39h-67.7c-.68,0-1.23-.6-1.23-1.34v-72.06c0-.74.55-1.34,1.23-1.34h55.5l9.39-8.26,3.52-3.09,70.29-61.79c1.25-.28,2.66-.51,4.24-.59.06-.01.13-.02.19-.03l-76.09,66.88-3.35,2.94-4.48,3.94h74.78c1.97-.85,16.61-7.07,33.36-12.33.13,3.99.3,8.13.51,12.33,0,.03,0,.07,0,.1h2.63s0-.07,0-.1c-.23-4.8-.38-9.24-.49-13.14-.28-10.23-.24-16.81-.24-16.81l2.11.36c.35,4.78.96,10,1.73,15.39.53,3.71,1.13,7.49,1.78,11.27-.05-.29.2.95.58,2.94,0,.03.01.07.02.1h4.58s-.01-.07-.02-.1c-.8-5.15-1.52-10.4-2.1-15.55,11.72-3.09,23.36-5.09,31.53-3.95,3.35.47,7.08,1.98,10.96,3.95-.97,5.03-1.93,10.36-2.71,15.55,0,.03-.01.07-.02.1h1.63s.01-.07.02-.1c.85-5.39,1.77-10.44,2.62-14.75,1.62-8.28,2.96-13.83,2.96-13.83l1.24.52c-.7,4.44-1.19,9.55-1.54,14.75-.05.7-.09,1.4-.13,2.1.03-.53-.26,7.02-.42,11.21,0,.03,0,.07,0,.1h2.62s0-.07,0-.1c.18-3.7.44-7.68.79-11.68,7.06,4.04,14.19,8.36,20.2,9.62,4.96,1.04,6.98,1.8,8.39,2.07h1.88c1.11-.23,2.57-.87,5.64-2.07,7.95-3.09,20.38,1.34,22.31,2.07h65.46l-7.97-7-3.46-3.04-111.71-98.19-3.46-3.04-14.96-13.15-2.62-2.3-2.17-1.91-2.17,1.91-2.62,2.3-14.47,12.72-3.34,2.94-16.31,14.33c-.63-.46-1.36-.92-2.2-1.33l13.91-12.23,3.52-3.09,15.58-13.69,2.47-2.17,4.82-4.24c.46-.41,1.16-.41,1.62,0l4.82,4.24,2.47,2.17,16.2,14.24,3.66,3.22,105.42,92.66,3.67,3.22,13.02,11.44h61.59c.68,0,1.23.6,1.23,1.34v72.06ZM358.54,216.07c-.65-.26-1.36-.47-2.11-.62-.75.15-1.46.36-2.11.62.29-.3.63-.57.99-.81-.64-.08-1.32-.13-2-.13-1.94,0-3.74.34-5.23.93,1.23-1.24,3.11-2.03,5.23-2.03,1.13,0,2.19.23,3.12.62.93-.4,1.99-.62,3.12-.62,2.12,0,4,.79,5.23,2.03-1.49-.59-3.29-.93-5.23-.93-.69,0-1.36.04-2,.13.36.24.7.51.99.81ZM351.07,225.76c1.77-.75,3.78-1.18,5.91-1.18,4.01,0,7.59,1.5,9.91,3.84-2.82-1.12-6.23-1.77-9.91-1.77-1.3,0-2.57.08-3.8.24.69.45,1.32.97,1.87,1.53-1.23-.49-2.57-.89-3.99-1.18-1.43.29-2.77.69-4,1.18.55-.56,1.19-1.08,1.87-1.53-1.22-.16-2.49-.24-3.8-.24-3.68,0-7.09.65-9.91,1.77,2.32-2.34,5.9-3.84,9.91-3.84,2.14,0,4.15.43,5.92,1.18ZM326.16,200.57c1.44.78,2.22,1.67,2.22,1.67-3.77-1.55-7.35-1.07-7.35-1.07l-.56-.98c8.96-3.83,14.77,4.27,14.77,4.27-2.29-1.83-6.22-4.02-9.08-3.89ZM324.36,210.01s-1.55-2.72-3.55-4.22c0,0,.38.96.58,1.35,0,0-1.53-.94-2.55-1.46.18-.44.43-1.16.51-2.02,1.56.54,7.36,2.97,8.45,9.69,0,0,.49-2.9-.95-5.21,0,0,3.68,2.19,1.37,8.17,0,0-1.66-5.84-4.66-8.62,0,0,.68,1.34.8,2.32ZM315.32,214.8c.43-.6.65-.92.96-1.52,1.91,2.19,2.68,5.13,2.87,6.97.83-4.48-1.01-7.09-1.88-9.19.32-.88.67-1.95.78-2.44,5.84,6.23,2.9,14.35-1.99,18.47,2.22-4.97.56-9.75-.73-12.3ZM314.81,204.06c-.81,11.66-8.93,19.82-8.93,19.82.02-4.16,1.37-7.23,3.06-10.15-1.68.53-2.57,1.58-2.57,1.58,1.21-6.63,4.86-11.06,4.86-11.06-2.34.67-3.39,2.2-3.39,2.2,1.2-5.82,5.07-9.32,7.66-6.13,2.59,3.19-.6,9.03-.6,9.03.72-4.11-.09-5.29-.09-5.29ZM305.6,212.03s-8.52,1.07-11.54,8.49c-.41-6.4,3.42-14.17,12.01-14.23l.18,1.43s-6.8,2.13-9.39,5.82c1.91-1.5,7.25-5.34,8.74-1.51ZM320.39,196.68c4.56-5.51,12.45-2.51,12.45-2.51-5.36-.12-7.55.36-12.45,2.51ZM324.04,189.6c-2.78.83-5.36,4.03-5.36,4.03l1.45.48c-2.22.83-4.2,3.2-4.2,3.2,1.31-4.21,3.92-7.33,3.92-7.33-3.7,2.72-5.16,7.48-5.16,7.48-1.42-.53-2.4-.72-2.4-.72,4.35-10.91,14.54-10.33,14.54-10.33-2.05.62-4.13,2.75-4.13,2.75l1.34.44ZM307.64,186.8c3.21,3.89,2.85,7.17,2.85,7.17-1.17-2.05-3.58-3.85-3.58-3.85-.56-3.06-3.4-6.85-3.4-6.85,7.54,2.17,9.09,8.52,9.09,8.52-1.5-1.86-3.03-3.57-4.96-4.99ZM305.07,192.09c5,2.51,6.25,6.05,6.25,6.05-1.13-.14-2.95,2.04-2.95,2.04l-2.35-2,2.03-.94c-1.84-.32-3.94.27-3.94.27l-3.03-1.1c1.87-1.29,4.3-1.44,4.3-1.44-3.15-.67-6.46.74-6.46.74l-2.61-.8c1.55-1.35,5.22-1.84,5.22-1.84-4.74-.61-7.95,1.52-7.95,1.52l-2.4-.56c2.35-2.34,8.88-4.46,13.88-1.95ZM296.56,200.36c-3.42.96-5.51,4.18-5.51,4.18,6.96-5.51,14.69-2.74,16.66-1.88-.68.9-1.08,1.82-1.29,2.39-1.43-.4-3.73-.84-3.73-.84.55-.19,1.75-.78,1.75-.78-3.25-.32-7.13.93-7.13.93.98-.84,2.81-1.53,2.81-1.53-5.33.03-12.08,4.18-12.08,4.18,3.05-7.78,8.52-6.65,8.52-6.65Z" style="fill: #000; stroke-width: 0px;"/>
  <path d="M327.14,446.74c-1.99,1.99-4.1,3.8-6.28,5.45,10.28,1.62,20.84.4,30.71-3.68,9.86-4.09,18.19-10.69,24.32-19.11-2.71.38-5.48.59-8.3.59-15.28,0-29.64,5.95-40.44,16.75Z" style="fill: #000; stroke-width: 0px;"/>
  <path d="M367.58,145.43c2.81,0,5.56.21,8.27.59-12.58-17.21-33.91-26.05-54.98-22.77,2.18,1.65,4.28,3.45,6.26,5.43,10.8,10.8,25.17,16.75,40.44,16.75Z" style="fill: #000; stroke-width: 0px;"/>
  <path d="M154.17,387.53c-2.59-1.07-5.06-2.32-7.41-3.71,5.03,20.71,21.36,37.04,42.06,42.07-1.38-2.37-2.63-4.84-3.69-7.41-5.85-14.11-16.84-25.11-30.96-30.95Z" style="fill: #000; stroke-width: 0px;"/>
  <path d="M202.33,429.98c-2.82,0-5.58-.21-8.3-.59,6.12,8.42,14.45,15.02,24.32,19.11,9.86,4.09,20.42,5.31,30.71,3.68-2.19-1.65-4.29-3.46-6.28-5.45-10.8-10.8-25.17-16.75-40.44-16.75Z" style="fill: #000; stroke-width: 0px;"/>
  <path d="M384.78,418.49c-1.07,2.58-2.31,5.05-3.69,7.41,20.7-5.03,37.03-21.36,42.06-42.06-2.37,1.38-4.84,2.63-7.41,3.69-14.12,5.85-25.11,16.84-30.96,30.96Z" style="fill: #000; stroke-width: 0px;"/>
  <path d="M361.75,325.27c0-2.56-1.43-3.96-4.03-3.96h-3.75v7.9h3.75c2.6,0,4.03-1.4,4.03-3.94Z" style="fill: #000; stroke-width: 0px;"/>
  <path d="M470.23,258.38H80.62v69.37h111.78v2.69h-41.6l112.34,98.74,3.31,2.91,13.7,12.04,2.62,2.3,2.17,1.91,2.17-1.91,2.62-2.3,14.16-12.45,3.43-3.01,111.77-98.24h-42.59v-2.69h118.86v-69.37h-25.15ZM118.32,301.89c-.38.73-.9,1.37-1.54,1.92-.83.71-1.86,1.27-3.07,1.64-.75.23-1.56.38-2.43.46-.47.04-.94.07-1.44.07-3.46,0-7.2-1.23-9.21-2.38l-.8-.45,1.61-3.4.92.52c1.2.68,4.3,1.96,7.39,1.96.15,0,.31,0,.46,0,.83-.03,1.68-.14,2.44-.38.45-.14.86-.34,1.22-.59.68-.48,1.15-1.17,1.25-2.17.01-.13.03-.26.03-.4,0-1.4-.67-2.41-3.71-3.13-.15-.03-.29-.07-.44-.1-.5-.1-1.05-.2-1.67-.3-.13-.02-.27-.04-.41-.06-.74-.11-1.66-.27-2.64-.53-2.72-.7-5.81-2.16-6.35-5.58-.05-.34-.09-.7-.09-1.08,0-.55.06-1.08.17-1.57.57-2.55,2.59-4.29,5.71-5.02.94-.22,1.98-.35,3.11-.37.16,0,.31-.01.48-.01.19,0,.37,0,.55.01.49.01.97.04,1.43.09,2.19.22,4.17.82,5.89,1.79l.86.49-1.86,3.31-.87-.51c-.47-.28-2-1.06-4.35-1.33-.51-.06-1.04-.1-1.62-.1-.3,0-.57.01-.83.02-4.76.23-4.77,2.42-4.77,3.17,0,1.98,2.21,2.79,4.8,3.3.48.1.98.18,1.48.26.3.05.64.1,1.02.17,3.01.54,8.02,1.91,8.02,7.12,0,1.17-.26,2.23-.75,3.16ZM149.17,304.74l-1.41-3.05h-16.1l-1.41,3.05h-4.17l.34-.76,9.71-21.76h7.15l10.05,22.52h-4.17ZM185.16,304.74h-3.64l-14.57-16.25v16.25h-3.99v-22.76h3.56l14.65,16.51v-16.51h3.99v22.76ZM351.66,319.13h6.06c3.97,0,6.34,2.3,6.34,6.14s-2.37,6.12-6.34,6.12h-6.06v-12.27ZM323.13,281.98h2.01v-.15l.1.15h2.4l9.3,14.73,9.26-14.73h2.4l.1-.16v.16h2.01v22.76h-3.99v-16.2l-9.78,15.18-9.83-15.2v16.21h-3.99v-22.76ZM333.58,321.44v-2.18h12.55v2.18h-5.12v10h-2.31v-10h-5.12ZM320.69,319.08h2.31v10h8.39v2.18h-10.7v-12.18ZM296.34,282.22h7.15l10.05,22.52h-4.17l-1.41-3.05h-16.1l-1.41,3.05h-4.17l10.05-22.52ZM307.2,329.08v2.18h-10.7v-12.18h2.31v10h8.39ZM278.99,319.08h11.13v2.18h-8.82v2.81h7.53v2.18h-7.53v2.96l8.82.04v2.18h-.12s-11-.05-11-.05v-12.31ZM273.48,281.98h3.99v22.76h-3.99v-22.76ZM266.57,328.78l3.72-9.7h2.45l-4.63,11.92h-4.16l-.03-.08-4.6-11.84h2.45l3.72,9.7h1.09ZM241.2,282.06h11.16c7.31,0,11.68,4.23,11.68,11.32s-4.37,11.28-11.68,11.28h-11.16v-22.6ZM256.36,331.44h-2.42l-.75-1.63h-8.5l-.75,1.63h-2.42l5.45-12.22h3.94l5.45,12.22ZM222.39,319.08h7.93c2.89,0,4.68,1.61,4.68,4.21s-1.79,4.17-4.68,4.17h-.46c1.93,2.01,2.68,2.16,3.6,2.16s1.42-.26,1.69-.4l.53-.27.34.49.7,1.34-.48.3c-.49.31-1.31.72-2.82.72h0c-1.92-.02-3.41-.68-6.62-4.34h-2.09v3.98h-2.31v-12.35ZM196.46,282.06h11.16c7.31,0,11.68,4.23,11.68,11.32s-4.37,11.28-11.68,11.28h-11.16v-22.6ZM204.34,321.44v-2.18h12.55v2.18h-5.12v10h-2.31v-10h-5.12ZM245.61,393.32l-.47-1.3,6.25-2.28.47,1.3-6.25,2.28ZM241.04,384.53v-1.39h9.56v1.39h-9.56ZM251.4,377.93l-6.27-2.28.47-1.3,6.27,2.28-.47,1.3ZM308.95,385.4c-.72.99-1.77,2.38-3.19,4.28-2.64,3.5-6.17,8.16-9.59,12.66-4.46,5.87-10.01,13.18-11.92,15.79-.36.49-.59.82-.66.93,0,0-.02.04-.04.08,0,.01-.01.02-.02.03v.04l-.13.1s-.05.05-.1.07c-.04.02-.07.04-.1.06l-.12.05-.22.03h-.13s-.08-.03-.11-.04c-.06-.02-.11-.04-.15-.07-.05-.03-.08-.06-.11-.08l-.05-.04s-.01-.01-.02-.02l-.09-.11s0,0,0,0c-.04-.07-.06-.11-.08-.15-.05-.08-.28-.4-.64-.89-1.84-2.52-7.06-9.4-11.67-15.47l-.25-.33c-3.42-4.5-6.95-9.15-9.59-12.66-1.42-1.89-2.47-3.29-3.19-4.28-1.39-1.9-1.45-1.97-1.31-2.42l.03-.08s.03-.06.05-.09l.05-.08c.05-.06.07-.08.1-.1.03-.03.05-.04.07-.06l.03-.02c.35-.35,2.08-2.54,4-5.08l.23-.2,7.19-3.86c.11-.06.25-.1.38-.1h30.54c.13,0,.26.03.38.09l7.39,4.02c2.01,2.64,3.77,4.88,4.06,5.14l-.15.32.23-.26-.2.28h0s.26-.22.26-.22c.02.02.04.04.05.07.05.09.07.12.09.15l.03.07c.14.45.08.52-1.31,2.42ZM318.85,392.63l-6.27-2.28.47-1.3,6.27,2.28-.47,1.3ZM312.59,375.93l6.25-2.28.47,1.3-6.25,2.28-.47-1.3ZM323.42,383.83h-9.56v-1.39h9.56v1.39ZM373.03,347.98h-175.06c-.68,0-1.23-.55-1.23-1.23s.55-1.23,1.23-1.23h175.06c.68,0,1.23.55,1.23,1.23s-.55,1.23-1.23,1.23ZM368.71,331.67v-2.37h2.31v2.37h-2.31ZM373.05,305.62c-7.66,0-12.81-4.94-12.81-12.28s5.15-12.29,12.81-12.29,12.81,4.94,12.81,12.29-5.15,12.28-12.81,12.28ZM417.57,304.74h-3.64l-14.57-16.25v16.25h-3.99v-22.76h3.56l14.65,16.51v-16.51h3.99v22.76ZM445.9,303.5c-.72.33-1.5.59-2.33.78-1.09.25-2.27.38-3.54.38h-11.16v-22.6h11.16c.49,0,.96.02,1.42.06.86.07,1.67.2,2.43.4,4.96,1.27,7.82,5.13,7.82,10.86,0,4.89-2.1,8.41-5.81,10.12ZM473.65,281.45c1.27.32,2.45.78,3.52,1.38l.86.49-1.86,3.31-.87-.51c-.24-.14-.78-.42-1.56-.7-.36-.13-.76-.26-1.23-.37-.37-.09-.79-.16-1.23-.22-.6-.08-1.24-.14-1.95-.14-.47,0-.88.02-1.27.05-1.33.11-2.27.37-2.9.72-1.43.77-1.43,1.92-1.43,2.42,0,.96.52,1.64,1.35,2.15.7.43,1.6.73,2.62.97.74.17,1.52.31,2.31.44.36.06.79.13,1.26.22.39.07.8.16,1.22.27.4.1.81.22,1.22.36,2.63.88,5.32,2.63,5.32,6.45,0,3.52-2.31,6.04-6.1,6.92-.4.09-.82.17-1.25.22-.4.05-.82.08-1.25.1-.21,0-.42.02-.64.02-3.46,0-7.2-1.23-9.21-2.38l-.8-.45,1.61-3.4.92.52c1.2.68,4.3,1.96,7.39,1.96.34,0,.7-.01,1.05-.04.42-.03.84-.09,1.24-.18.44-.1.87-.24,1.26-.42,1.08-.52,1.85-1.41,1.85-2.91,0-1.07-.45-1.82-1.55-2.4-.34-.18-.74-.34-1.21-.48-.36-.11-.77-.22-1.22-.31-.55-.12-1.16-.23-1.85-.33-1.23-.18-3.16-.47-4.97-1.21-.8-.33-1.58-.75-2.26-1.28-.3-.24-.56-.5-.81-.79-.87-.98-1.45-2.26-1.45-3.96s.51-3.06,1.46-4.16c.28-.32.59-.61.94-.88.65-.5,1.43-.91,2.32-1.23,1.34-.47,2.93-.71,4.74-.71.64,0,1.27.04,1.88.09.42.04.83.09,1.24.16.42.07.83.16,1.24.26Z" style="fill: #000; stroke-width: 0px;"/>
  <polygon points="140.91 286.05 138.53 286.05 138.51 286.05 133.34 297.94 138.85 297.94 141.32 297.94 146.12 297.94 140.99 286.21 140.91 286.05" style="fill: #000; stroke-width: 0px;"/>
  <path d="M215.31,293.38c0-4.88-2.73-7.57-7.69-7.57h-7.17v15.11h7.17c4.96,0,7.69-2.68,7.69-7.53Z" style="fill: #000; stroke-width: 0px;"/>
  <path d="M373.05,284.8c-5.49,0-8.9,3.27-8.9,8.54s3.41,8.54,8.9,8.54,8.9-3.27,8.9-8.54-3.41-8.54-8.9-8.54Z" style="fill: #000; stroke-width: 0px;"/>
  <polygon points="248.35 321.44 245.66 327.62 252.23 327.62 249.52 321.44 248.35 321.44" style="fill: #000; stroke-width: 0px;"/>
  <polygon points="301.12 286.05 298.72 286.05 293.55 297.94 306.33 297.94 301.12 286.05" style="fill: #000; stroke-width: 0px;"/>
  <path d="M232.69,323.29c0-1.83-1.72-2.03-2.46-2.03h-5.53v4.01h5.53c.92,0,2.46-.26,2.46-1.98Z" style="fill: #000; stroke-width: 0px;"/>
  <polygon points="293.96 381.84 303.42 377.86 297.93 374.92 267.79 374.92 262.3 377.86 271.76 381.84 293.96 381.84" style="fill: #000; stroke-width: 0px;"/>
  <path d="M260.05,293.38c0-4.88-2.73-7.57-7.69-7.57h-7.17v15.11h7.17c4.96,0,7.69-2.68,7.69-7.53Z" style="fill: #000; stroke-width: 0px;"/>
  <path d="M295.16,383.08l1.71,4.32,11.26-4.5c-.66-.79-1.68-2.1-3.1-3.97l-9.87,4.15Z" style="fill: #000; stroke-width: 0px;"/>
  <path d="M287.13,411.59c2.16-2.86,4.79-6.32,7.56-9.97l.2-.26c4.42-5.82,9.82-12.93,12.39-16.39l-10.26,4.1-9.89,22.53Z" style="fill: #000; stroke-width: 0px;"/>
  <path d="M289.47,389.27c-1.3,0-2.44,0-3.39,0h-1.41c-.69,0-1.23,0-1.59-.01h-.23s-.21,0-.21,0c-.37,0-.9,0-1.59,0h-1.4c-.95,0-2.08,0-3.39,0-2.19,0-4.39-.02-5.71-.02l12.31,28.05.02-.03h0s12.3-28.03,12.3-28.03c-1.33,0-3.53.01-5.71.02Z" style="fill: #000; stroke-width: 0px;"/>
  <path d="M258.45,384.96c2.47,3.34,7.57,10.05,12.12,16.04l.27.35c2.84,3.74,5.55,7.31,7.76,10.24l-9.89-22.53-10.26-4.1Z" style="fill: #000; stroke-width: 0px;"/>
  <polygon points="282.82 419.18 282.82 419.18 282.82 419.18 282.82 419.18" style="fill: #000; stroke-width: 0px;"/>
  <path d="M270.57,383.08l-9.87-4.15c-1.42,1.86-2.43,3.17-3.1,3.97l11.26,4.5,1.71-4.32Z" style="fill: #000; stroke-width: 0px;"/>
  <path d="M443.67,286.44c-.72-.29-1.54-.48-2.44-.57-.39-.04-.78-.06-1.2-.06h-7.17v15.11h7.17c.95,0,1.82-.1,2.6-.29.87-.22,1.64-.55,2.29-1,1.82-1.24,2.8-3.35,2.8-6.24,0-3.51-1.42-5.88-4.05-6.94Z" style="fill: #000; stroke-width: 0px;"/>
  <path d="M270.49,387.64c4.51.02,20.24.02,24.74,0l-1.66-4.2h-21.43l-1.66,4.2Z" style="fill: #000; stroke-width: 0px;"/>
</svg>