<?xml version="1.0" encoding="UTF-8"?>
<svg id="Layer_1" data-name="Layer 1" xmlns="http://www.w3.org/2000/svg" viewBox="0 0 576 576">
  <polygon points="462.4 244.42 458.46 240.95 447.7 231.49 296 98.07 292.28 94.8 284.85 88.25 277.45 94.75 273.75 98 121.58 231.55 110.82 241 106.92 244.42 45.95 244.42 45.95 346.85 119.92 346.85 123.02 346.85 124.36 346.85 273.46 477.9 277.17 481.16 284.66 487.75 292.15 481.16 295.86 477.9 444.96 346.85 446.3 346.85 449.4 346.85 530.05 346.85 530.05 244.42 462.4 244.42" style="fill: #000; stroke-width: 0px;"/>
  <polygon points="284.66 111.7 124.09 252.84 445.23 252.84 284.66 111.7" style="fill: none; stroke-width: 0px;"/>
  <polygon points="385.12 346.42 183.11 346.42 183.11 334.86 137.47 334.86 284.66 464.24 431.85 334.86 385.12 334.86 385.12 346.42" style="fill: none; stroke-width: 0px;"/>
  <g>
    <polygon points="196.34 324.85 201.95 324.85 201.95 335.82 204.22 335.82 204.22 324.85 209.83 324.85 209.83 322.72 196.34 322.72 196.34 324.85" style="fill: #fff; stroke-width: 0px;"/>
    <path d="M230.55,333.4l-.48.24c-.32.16-.91.46-1.92.46-1.09,0-1.97-.19-4.27-2.64h.82c3.09,0,5-1.7,5-4.44s-1.92-4.48-5-4.48h-8.56v13.28h2.27v-4.36h2.49c3.52,4.01,5.13,4.74,7.21,4.77,1.62,0,2.5-.44,3.03-.77l.42-.27-.71-1.34-.3-.45ZM218.41,324.66h6.21c.85,0,2.83.23,2.83,2.36,0,2.01-1.77,2.31-2.83,2.31h-6.21v-4.67Z" style="fill: #fff; stroke-width: 0px;"/>
    <path d="M243.06,322.68l-5.86,13.14h2.36l.83-1.79h9.5l.83,1.79h2.36l-5.86-13.14h-4.15ZM245.87,324.85l3.09,7.05h-7.62l3.07-7.05h1.46Z" style="fill: #fff; stroke-width: 0px;"/>
    <polygon points="264.58 333.17 263.2 333.17 259.12 322.53 256.72 322.53 261.7 335.34 266.07 335.34 271.05 322.53 268.66 322.53 264.58 333.17" style="fill: #fff; stroke-width: 0px;"/>
    <polygon points="278.25 335.77 290.19 335.82 290.19 333.7 280.51 333.65 280.51 330.13 288.77 330.13 288.77 328.01 280.51 328.01 280.51 324.66 290.19 324.66 290.19 322.53 278.25 322.53 278.25 335.77" style="fill: #fff; stroke-width: 0px;"/>
    <polygon points="299.73 322.53 297.47 322.53 297.47 335.63 308.94 335.63 308.94 333.5 299.73 333.5 299.73 322.53" style="fill: #fff; stroke-width: 0px;"/>
    <polygon points="326.27 322.53 324 322.53 324 335.63 335.47 335.63 335.47 333.5 326.27 333.5 326.27 322.53" style="fill: #fff; stroke-width: 0px;"/>
    <polygon points="338.15 324.85 343.77 324.85 343.77 335.82 346.03 335.82 346.03 324.85 351.65 324.85 351.65 322.72 338.15 322.72 338.15 324.85" style="fill: #fff; stroke-width: 0px;"/>
    <path d="M364.5,322.58h-6.51v13.19h6.51c4.27,0,6.82-2.46,6.82-6.58s-2.55-6.61-6.82-6.61ZM360.25,324.7h4.25c2.94,0,4.55,1.59,4.55,4.48s-1.62,4.46-4.55,4.46h-4.25v-8.94Z" style="fill: #fff; stroke-width: 0px;"/>
    <rect x="376.69" y="333.74" width="2.27" height="2.33" style="fill: #fff; stroke-width: 0px;"/>
  </g>
  <path d="M350.71,218.71c2.35,0,4.55.47,6.49,1.29,1.94-.82,4.14-1.29,6.49-1.29,4.4,0,8.32,1.65,10.87,4.22-3.1-1.22-6.84-1.94-10.87-1.94-1.43,0-2.82.09-4.17.26.76.5,1.45,1.06,2.06,1.68-1.35-.53-2.82-.97-4.38-1.29-1.57.32-3.04.76-4.38,1.29.61-.62,1.3-1.18,2.06-1.68-1.34-.17-2.74-.26-4.17-.26-4.03,0-7.78.72-10.87,1.94,2.55-2.57,6.47-4.22,10.87-4.22" style="fill: #fff; fill-rule: evenodd; stroke-width: 0px;"/>
  <path d="M359.66,207.14c1.24,0,2.4.25,3.43.68,1.02-.44,2.19-.68,3.43-.68,2.32,0,4.39.87,5.74,2.23-1.64-.65-3.61-1.02-5.74-1.02-.76,0-1.49.05-2.2.14.4.26.76.56,1.09.89-.71-.28-1.49-.51-2.31-.68-.83.17-1.6.4-2.31.68.32-.33.69-.62,1.09-.89-.71-.09-1.44-.14-2.2-.14-2.13,0-4.1.38-5.74,1.02,1.35-1.36,3.42-2.23,5.74-2.23" style="fill: #fff; fill-rule: evenodd; stroke-width: 0px;"/>
  <g>
    <path d="M92.73,292.07c-3.49-.56-6.89-1.33-6.89-3.91,0-.87,0-3.5,6.15-3.5,3.6,0,5.93,1.2,6.55,1.57l.95.56,2.05-3.63-.94-.53c-2.45-1.38-5.36-2.08-8.65-2.08-6.51,0-10.39,2.86-10.39,7.66,0,6.4,7.29,7.49,10.41,7.95,4.72.7,6.4,1.71,6.4,3.87,0,3.22-3.22,3.9-5.93,3.9-3.4,0-6.79-1.41-8.11-2.15l-1.01-.57-1.77,3.72.87.5c2.2,1.26,6.31,2.61,10.11,2.61,6.15,0,10.13-3.13,10.13-7.97,0-6.42-6.95-7.52-9.91-7.99Z" style="fill: #fff; stroke-width: 0px;"/>
    <path d="M121.37,281.95l-11.02,24.71h4.57l1.54-3.35h17.67l1.54,3.35h4.57l-11.02-24.71h-7.85ZM118.3,299.2l5.67-13.05h2.64l5.71,13.05h-14.02Z" style="fill: #fff; stroke-width: 0px;"/>
    <polygon points="170.79 299.81 154.72 281.69 150.81 281.69 150.81 306.66 155.18 306.66 155.18 288.83 171.17 306.66 175.16 306.66 175.16 281.69 170.79 281.69 170.79 299.81" style="fill: #fff; stroke-width: 0px;"/>
    <path d="M199.8,281.78h-12.24v24.79h12.24c8.03,0,12.82-4.63,12.82-12.38s-4.79-12.42-12.82-12.42ZM199.8,302.46h-7.87v-16.58h7.87c5.44,0,8.44,2.95,8.44,8.31s-3,8.27-8.44,8.27Z" style="fill: #fff; stroke-width: 0px;"/>
    <path d="M248.89,281.78h-12.24v24.79h12.24c8.03,0,12.82-4.63,12.82-12.38s-4.79-12.42-12.82-12.42ZM241.02,285.89h7.87c5.44,0,8.44,2.95,8.44,8.31s-3,8.27-8.44,8.27h-7.87v-16.58Z" style="fill: #fff; stroke-width: 0px;"/>
    <rect x="272.07" y="281.69" width="4.37" height="24.97" style="fill: #fff; stroke-width: 0px;"/>
    <path d="M297.16,281.95l-11.02,24.71h4.57l1.54-3.35h17.66l1.54,3.35h4.57l-11.02-24.71h-7.85ZM294.09,299.2l5.67-13.05h2.64l5.71,13.05h-14.02Z" style="fill: #fff; stroke-width: 0px;"/>
    <polygon points="354.61 281.51 354.5 281.69 351.87 281.69 341.7 297.85 331.5 281.69 328.86 281.69 328.75 281.52 328.75 281.69 326.55 281.69 326.55 306.66 330.92 306.66 330.92 288.87 341.71 305.55 352.44 288.89 352.44 306.66 356.82 306.66 356.82 281.69 354.61 281.69 354.61 281.51" style="fill: #fff; stroke-width: 0px;"/>
    <path d="M381.32,280.67c-8.4,0-14.05,5.42-14.05,13.48s5.65,13.48,14.05,13.48,14.05-5.42,14.05-13.48-5.65-13.48-14.05-13.48ZM381.32,303.52c-6.02,0-9.77-3.59-9.77-9.37s3.74-9.37,9.77-9.37,9.76,3.59,9.76,9.37-3.74,9.37-9.76,9.37Z" style="fill: #fff; stroke-width: 0px;"/>
    <polygon points="425.8 299.81 409.73 281.69 405.82 281.69 405.82 306.66 410.19 306.66 410.19 288.83 426.18 306.66 430.17 306.66 430.17 281.69 425.8 281.69 425.8 299.81" style="fill: #fff; stroke-width: 0px;"/>
    <path d="M454.81,281.78h-12.24v24.79h12.24c8.03,0,12.82-4.63,12.82-12.38s-4.79-12.42-12.82-12.42ZM454.81,302.46h-7.87v-16.58h7.87c5.44,0,8.44,2.95,8.44,8.31s-3,8.27-8.44,8.27Z" style="fill: #fff; stroke-width: 0px;"/>
    <path d="M487.71,292.07c-3.49-.56-6.9-1.33-6.9-3.91,0-.87,0-3.5,6.15-3.5,3.6,0,5.93,1.2,6.55,1.57l.95.56,2.04-3.63-.94-.53c-2.45-1.38-5.36-2.08-8.65-2.08-6.51,0-10.39,2.86-10.39,7.66,0,6.4,7.29,7.49,10.41,7.95,4.72.7,6.4,1.71,6.4,3.87,0,3.22-3.22,3.9-5.93,3.9-3.4,0-6.79-1.41-8.11-2.15l-1.01-.57-1.77,3.73.87.5c2.2,1.26,6.31,2.61,10.11,2.61,6.15,0,10.13-3.13,10.13-7.97,0-6.42-6.95-7.52-9.91-7.99Z" style="fill: #fff; stroke-width: 0px;"/>
  </g>
  <g>
    <path d="M312.39,392.43s-.04-.07-.09-.17c-.02-.03-.04-.05-.06-.07l-.29.24h0s.22-.31.22-.31l-.25.28h0l.17-.35c-.31-.28-2.25-2.74-4.45-5.64l-8.11-4.41c-.13-.07-.27-.1-.42-.1h-33.51c-.15,0-.29.04-.42.1l-7.89,4.23-.25.22c-2.11,2.79-4,5.19-4.39,5.57l-.03.03s-.04.03-.08.06c-.02.02-.05.04-.1.11l-.06.09s-.04.07-.05.1l-.04.09c-.15.49-.09.57,1.44,2.65.79,1.08,1.94,2.62,3.5,4.69,2.89,3.84,6.77,8.95,10.52,13.89l.28.36c5.06,6.66,10.79,14.21,12.81,16.97.39.53.64.89.7.97.02.05.04.09.09.16,0,0,0,0,0,0l.09.12s.01.01.02.02l.05.05s.07.05.12.09c.05.03.1.05.17.08.04.01.09.02.13.03h.15s.25-.02.25-.02l.13-.05s.07-.03.11-.06c.04-.03.09-.06.1-.08l.14-.11v-.05s.01-.02.02-.03c.03-.04.05-.09.05-.09.08-.13.33-.48.73-1.03,2.09-2.86,8.18-10.88,13.08-17.33,3.75-4.94,7.63-10.04,10.52-13.89,1.56-2.08,2.71-3.61,3.5-4.69,1.53-2.08,1.59-2.16,1.44-2.65l-.03-.08ZM312.06,392.62h0s0,0,0,0ZM309.15,394.69c-2.81,3.8-8.74,11.6-13.59,17.99l-.22.29c-3.04,4-5.93,7.81-8.3,10.94l10.85-24.72,11.25-4.5ZM266.83,399.19l10.85,24.72c-2.42-3.21-5.39-7.12-8.52-11.23l-.3-.39c-4.99-6.57-10.58-13.94-13.29-17.6l11.26,4.5ZM268.87,392.62l-1.87,4.74-12.35-4.94c.73-.87,1.84-2.31,3.4-4.35l10.83,4.55ZM294.12,393.02l1.82,4.61c-4.95.02-22.2.02-27.15,0l1.82-4.61h23.51ZM275.11,399.41c1.43,0,2.67,0,3.72,0h1.54c.76,0,1.35,0,1.75-.01h.23s.25,0,.25,0c.4,0,.99,0,1.75.01h1.54c1.04,0,2.29,0,3.72,0,2.4,0,4.81-.02,6.27-.02l-13.5,30.75h0s-.02.03-.02.03l-13.51-30.78c1.45,0,3.87.02,6.27.02ZM294.54,391.26h-24.35l-10.39-4.37,6.03-3.23h33.07l6.03,3.23-10.39,4.37ZM310.08,392.42l-12.35,4.94-1.87-4.74,10.83-4.55c1.56,2.05,2.67,3.48,3.4,4.35ZM282.32,432.23s0,0,0,0h0s0,0,0,0Z" style="fill: #fff; stroke-width: 0px;"/>
    <rect x="316.37" y="391.92" width="10.49" height="1.52" style="fill: #fff; stroke-width: 0px;"/>
    <rect x="315.03" y="383.48" width="7.3" height="1.52" transform="translate(-112.2 132.16) rotate(-20)" style="fill: #fff; stroke-width: 0px;"/>
    <rect x="317.91" y="397.47" width="1.52" height="7.32" transform="translate(-167.26 563.38) rotate(-70)" style="fill: #fff; stroke-width: 0px;"/>
    <rect x="236.47" y="392.69" width="10.49" height="1.52" style="fill: #fff; stroke-width: 0px;"/>
    <rect x="241.01" y="401.13" width="7.3" height="1.52" transform="translate(-122.69 107.9) rotate(-20)" style="fill: #fff; stroke-width: 0px;"/>
    <rect x="243.91" y="381.35" width="1.52" height="7.32" transform="translate(-200.8 483.24) rotate(-70)" style="fill: #fff; stroke-width: 0px;"/>
  </g>
  <polygon points="448.59 255.79 120.73 255.79 116.65 255.79 60.46 255.79 60.46 331.91 130.03 331.91 134.11 331.91 183.11 331.91 183.11 334.86 137.47 334.86 284.66 464.24 431.85 334.86 385.12 334.86 385.12 331.91 435.21 331.91 439.29 331.91 515.54 331.91 515.54 255.79 452.67 255.79 448.59 255.79" style="fill: none; stroke-width: 0px;"/>
  <g>
    <path d="M381.3,351.41h-192.08c-.74,0-1.35.6-1.35,1.35s.6,1.35,1.35,1.35h192.08c.74,0,1.35-.6,1.35-1.35s-.6-1.35-1.35-1.35Z" style="fill: #fff; stroke-width: 0px;"/>
    <path d="M516.89,252.84h-67.57l-163.77-143.94c-.51-.45-1.27-.45-1.78,0l-42.6,37.44c.88.49,1.66,1,2.34,1.53l41.15-36.17,160.57,141.14H124.09l94.54-83.1c-.25.03-.49.05-.74.09l-.11.02h-.11c-1.69.1-3.31.62-4.77,1.34l-92.89,81.65h-60.89c-.74,0-1.35.66-1.35,1.48v79.07c0,.81.6,1.48,1.35,1.48h74.28l150.38,132.18c.25.22.57.34.89.34s.64-.11.89-.34l150.38-132.18h80.96c.74,0,1.35-.66,1.35-1.48v-79.07c0-.81-.6-1.48-1.35-1.48ZM515.54,331.91h-130.42v2.95h46.73l-147.19,129.37-147.19-129.37h45.64v-2.95H60.46v-76.12h455.09v76.12Z" style="fill: #fff; stroke-width: 0px;"/>
  </g>
  <path d="M348.93,250.57c-9.47,3.68-4.93,2.62-17.46,0-6.49-1.35-14.17-5.97-21.8-10.34,1.45-11.05,3.84-23.4,5.89-30.37,0,0,4.63,7.49.68,14.61,10.39-3.5,12.55-18.1,5.05-25.64,0,0,9.26,2.03,11.04,15.12,5.25-6.88,2.01-15.61-5.56-18.98,0,0,12.1-.23,16.48,8.35.31-8.96-8.3-16.44-19.33-13.03,0,0,6.11-5.3,18.77-2.59,0,0-8.09-7.69-16.87-3.91,0,0,4.87-6.53,11.71-5.95-4.46-2.86-13.36-5.62-21.16,3.61,0,0-2.91-10.71-16.55-10.07,0,0,5.84,4.38,6.73,9.49-3.53-1.17-13.62-3.75-18.8,7.39,0,0,3.24-2.21,7.8-1.39,6,1,11.29,4.73,11.29,4.73-10.17-4.27-20.1-.3-21.24,11.88,0,0,7.54-7.53,15.33-4.96-3.38.66-11.49,8.6-7.95,21.32,0,0,6.17-10.42,14.57-11.72,0,0-3.1,12.58-6.02,27.66-4.25-2.15-8.34-3.82-12.02-4.33-8.85-1.23-21.41.88-34.1,4.2-1.25-16.33-1.86-35.22-1.86-38.78,0,0,11.52,11.77,7.99,24.2,14.81-9.17,12.87-32.52-1.45-41.46,0,0,19.46,4.26,22.54,19.38,5.63-12.54-2.53-24.86-15.46-27.34,0,0,18.63-4.73,28.49,6.95-2.76-13.97-18.78-22.42-34.59-13.16,0,0,7.52-10.4,28.08-10.79,0,0-15.29-8.97-27.5.05,0,0,5.17-11.86,15.96-13.43-7.93-2.81-22.69-3.85-31.41,13.23,0,0-3.37-11.3-24.48-8.8,0,0,6.6,4.59,9.83,12.17-5.87-.54-23.15-1.59-27.13,17.51,0,0,5.79-7.12,13.13-7.51,12-2,17.59,5.77,17.59,5.77-17.27-2.93-31.19,6.8-28.54,26.04,0,0,8.93-14.37,21.9-13.21-4.98,2.25-14.66,17.45-4.58,35.84,0,0,6.13-21.39,18.63-26.44,0,0-.46,20.32.21,43.44-19.78,6.2-36.89,13.65-36.89,13.65h167.81s-15.3-6.06-24.77-2.38Z" style="fill: #fff; stroke-width: 0px;"/>
</svg>