<?xml version="1.0" encoding="UTF-8"?>
<svg id="Layer_1" data-name="Layer 1" xmlns="http://www.w3.org/2000/svg" viewBox="0 0 576 576">
  <path d="M322.98,112.69c2.32,1.75,4.55,3.67,6.66,5.78,11.49,11.49,26.78,17.83,43.04,17.83,2.99,0,5.92.22,8.8.62-13.38-18.31-36.08-27.72-58.5-24.23Z" style="fill: #1482a5; stroke-width: 0px;"/>
  <path d="M387.04,140.63c1.47,2.51,2.8,5.13,3.94,7.89,6.22,15.02,17.92,26.72,32.94,32.94,2.74,1.14,5.37,2.46,7.89,3.93-5.36-22.03-22.73-39.4-44.77-44.76Z" style="fill: #1482a5; stroke-width: 0px;"/>
  <path d="M188.03,136.92c2.88-.4,5.82-.62,8.81-.62,16.26,0,31.54-6.33,43.04-17.83,2.11-2.11,4.35-4.03,6.67-5.78-3.1-.48-6.2-.73-9.29-.73-19.23,0-37.69,9.18-49.23,24.96Z" style="fill: #1482a5; stroke-width: 0px;"/>
  <path d="M137.71,185.41c2.51-1.47,5.13-2.8,7.89-3.94,15.02-6.22,26.72-17.92,32.94-32.94,1.14-2.76,2.47-5.39,3.94-7.89-22.04,5.35-39.42,22.73-44.77,44.77Z" style="fill: #1482a5; stroke-width: 0px;"/>
  <path d="M287.07,419.51c2.3-3.04,5.1-6.73,8.05-10.61l.21-.28c4.7-6.19,10.45-13.76,13.18-17.44l-10.91,4.36-10.52,23.97Z" style="fill: #1482a5; stroke-width: 0px;"/>
  <path d="M289.56,395.76c-1.39,0-2.59,0-3.6,0h-1.5c-.73,0-1.3,0-1.69-.01h-.24s-.23,0-.23,0c-.39,0-.96,0-1.7,0h-1.49c-1.01,0-2.22,0-3.61,0-2.33,0-4.67-.02-6.08-.02l13.1,29.85.02-.03h0s13.09-29.82,13.09-29.82c-1.41,0-3.76.02-6.08.02Z" style="fill: #1482a5; stroke-width: 0px;"/>
  <path d="M269.37,394.03c4.8.02,21.53.02,26.33,0l-1.76-4.47h-22.8l-1.76,4.47Z" style="fill: #1482a5; stroke-width: 0px;"/>
  <path d="M256.56,391.18c2.63,3.55,8.05,10.69,12.89,17.07l.29.38c3.03,3.98,5.91,7.78,8.26,10.89l-10.52-23.97-10.92-4.36Z" style="fill: #1482a5; stroke-width: 0px;"/>
  <path d="M269.45,389.17l-10.5-4.41c-1.51,1.98-2.59,3.37-3.29,4.22l11.98,4.79,1.82-4.6Z" style="fill: #1482a5; stroke-width: 0px;"/>
  <polygon points="282.49 427.58 282.49 427.58 282.49 427.58 282.49 427.58" style="fill: #1482a5; stroke-width: 0px;"/>
  <path d="M481.91,256.48H67.33v73.82h118.95v2.86h-44.26l119.54,105.07,3.53,3.1,14.58,12.81,2.78,2.45,2.31,2.03,2.31-2.03,2.78-2.45,15.07-13.24,3.65-3.21,118.93-104.53h-45.31v-2.86h126.48v-73.82h-26.76ZM98.43,307.14c-3.69,0-7.66-1.31-9.8-2.53l-.85-.48,1.71-3.61.98.55c1.28.72,4.57,2.09,7.87,2.09.16,0,.33,0,.49,0,.88-.03,1.79-.14,2.6-.41.48-.15.92-.36,1.3-.63.72-.51,1.22-1.25,1.33-2.31.01-.14.03-.28.03-.43,0-1.49-.71-2.57-3.95-3.33-.15-.04-.31-.07-.47-.11-.53-.11-1.12-.22-1.78-.31-.14-.02-.29-.04-.44-.07-.79-.12-1.77-.29-2.81-.56-2.89-.75-6.18-2.3-6.76-5.94-.06-.36-.09-.74-.09-1.15,0-.59.06-1.14.18-1.67.61-2.71,2.75-4.57,6.08-5.35,1-.23,2.11-.37,3.31-.4.17,0,.33-.01.51-.01.2,0,.39.01.59.02.52.01,1.03.04,1.52.09,2.33.24,4.44.87,6.27,1.91l.92.52-1.98,3.52-.92-.54c-.5-.29-2.13-1.13-4.63-1.41-.54-.06-1.11-.11-1.73-.11-.31,0-.6.01-.89.02-5.07.24-5.08,2.58-5.08,3.37,0,2.11,2.35,2.97,5.11,3.51.51.1,1.04.19,1.57.28.32.05.69.11,1.08.18,3.2.57,8.53,2.03,8.53,7.57,0,1.25-.28,2.38-.79,3.37-.4.77-.95,1.46-1.63,2.04-.88.76-1.98,1.35-3.27,1.74-.79.24-1.66.4-2.59.49-.5.05-1,.08-1.53.08ZM140.27,305.81l-1.5-3.25h-17.13l-1.5,3.25h-4.43l.36-.8,10.33-23.16h7.61l10.69,23.96h-4.43ZM178.57,305.81h-3.87l-15.5-17.29v17.29h-4.24v-24.22h3.79l15.58,17.57v-17.57h4.24v24.22ZM355.74,321.12h6.45c4.22,0,6.74,2.44,6.74,6.54s-2.52,6.51-6.74,6.51h-6.45v-13.05ZM373.88,334.47v-2.53h2.46v2.53h-2.46ZM198.97,323.58v-2.32h13.35v2.32h-5.44v10.64h-2.46v-10.64h-5.44ZM238.53,334.22l5.8-13.01h4.19l5.8,13.01h-2.58l-.8-1.74h-9.04l-.8,1.74h-2.58ZM308.43,331.71v2.32h-11.38v-12.96h2.46v10.64h8.92ZM336.51,323.58v-2.32h13.35v2.32h-5.44v10.64h-2.46v-10.64h-5.44ZM325.38,281.6h2.14v-.16l.1.16h2.55l9.9,15.67,9.86-15.67h2.55l.11-.17v.17h2.14v24.22h-4.24v-17.24l-10.41,16.16-10.46-16.17v17.25h-4.24v-24.22ZM322.78,321.07h2.46v10.64h8.92v2.32h-11.38v-12.96ZM296.88,281.85h7.61l10.69,23.96h-4.43l-1.5-3.25h-17.13l-1.5,3.25h-4.43l10.69-23.96ZM278.41,321.07h11.84v2.32h-9.38v2.99h8.01v2.32h-8.01v3.15l9.38.05v2.32h-.13s-11.71-.05-11.71-.05v-13.1ZM272.55,281.6h4.24v24.22h-4.24v-24.22ZM265.19,331.39l3.96-10.32h2.6l-4.93,12.69h-4.42l-.03-.08-4.89-12.6h2.6l3.96,10.32h1.16ZM238.2,281.68h11.87c7.78,0,12.43,4.5,12.43,12.04s-4.65,12-12.43,12h-11.87v-24.05ZM218.19,321.07h8.44c3.07,0,4.98,1.72,4.98,4.48s-1.91,4.43-4.98,4.43h-.49c2.05,2.14,2.86,2.3,3.83,2.3s1.51-.28,1.8-.43l.56-.28.36.53.75,1.42-.51.32c-.52.33-1.4.77-3,.77h0c-2.05-.03-3.63-.73-7.05-4.62h-2.22v4.23h-2.46v-13.14ZM190.59,281.68h11.87c7.78,0,12.43,4.5,12.43,12.04s-4.65,12-12.43,12h-11.87v-24.05ZM242.89,400.07l-.5-1.39,6.65-2.42.5,1.39-6.65,2.42ZM238.03,390.72v-1.47h10.17v1.47h-10.17ZM249.06,383.7l-6.67-2.43.5-1.39,6.67,2.43-.5,1.39ZM310.29,391.64c-.77,1.05-1.88,2.54-3.4,4.55-2.81,3.73-6.57,8.68-10.2,13.47-4.75,6.25-10.65,14.03-12.68,16.8-.39.53-.63.87-.7.99,0,0-.02.05-.04.09,0,.01-.01.02-.02.03v.05l-.14.11s-.06.05-.1.08c-.04.03-.08.04-.11.06l-.12.05-.24.03h-.14s-.08-.03-.12-.04c-.06-.02-.11-.05-.16-.07-.05-.03-.09-.06-.12-.08l-.05-.04s-.01-.01-.02-.02l-.09-.11s0,0,0,0c-.04-.07-.07-.11-.08-.16-.06-.08-.3-.43-.68-.94-1.96-2.68-7.52-10-12.42-16.46l-.27-.35c-3.64-4.79-7.4-9.74-10.2-13.47-1.51-2.01-2.63-3.5-3.4-4.55-1.48-2.02-1.54-2.1-1.4-2.57l.04-.09s.03-.06.05-.1l.06-.08c.06-.07.08-.09.1-.11.03-.03.06-.05.08-.06l.03-.03c.37-.37,2.21-2.7,4.26-5.4l.24-.21,7.65-4.1c.12-.07.26-.1.4-.1h32.49c.14,0,.28.03.4.1l7.86,4.28c2.13,2.81,4.01,5.2,4.32,5.47l-.16.34.24-.27-.22.3h0s.28-.23.28-.23c.02.02.04.05.06.07.06.09.08.13.09.16l.03.08c.15.48.09.55-1.4,2.57ZM320.82,399.33l-6.67-2.43.5-1.39,6.67,2.43-.5,1.39ZM314.17,381.56l6.65-2.42.5,1.39-6.65,2.42-.5-1.39ZM325.69,389.97h-10.17v-1.47h10.17v1.47ZM378.48,351.82h-186.27c-.72,0-1.31-.59-1.31-1.31s.58-1.31,1.31-1.31h186.27c.72,0,1.31.59,1.31,1.31s-.58,1.31-1.31,1.31ZM378.5,306.75c-8.15,0-13.63-5.25-13.63-13.07s5.48-13.07,13.63-13.07,13.63,5.25,13.63,13.07-5.48,13.07-13.63,13.07ZM425.88,305.81h-3.87l-15.5-17.29v17.29h-4.24v-24.22h3.79l15.59,17.57v-17.57h4.24v24.22ZM437.89,281.68h11.87c.52,0,1.02.02,1.52.06.91.07,1.78.22,2.59.42,5.28,1.35,8.32,5.46,8.32,11.56,0,5.2-2.23,8.95-6.18,10.77-.76.35-1.59.62-2.48.83-1.16.26-2.41.41-3.77.41h-11.87v-24.05ZM489.3,282.5l.92.52-1.98,3.52-.92-.54c-.26-.15-.83-.45-1.66-.75-.39-.14-.81-.27-1.31-.39-.4-.09-.84-.17-1.31-.24-.63-.09-1.32-.15-2.07-.15-.5,0-.94.02-1.35.06-1.42.11-2.41.4-3.09.76-1.52.82-1.52,2.04-1.52,2.58,0,1.02.56,1.75,1.44,2.29.74.45,1.71.78,2.78,1.03.78.18,1.62.33,2.46.47.38.06.84.13,1.34.23.41.08.85.17,1.3.28.42.11.86.23,1.3.38,2.79.93,5.66,2.79,5.66,6.86,0,3.75-2.46,6.43-6.49,7.36-.43.1-.87.18-1.33.24-.43.05-.87.09-1.32.1-.23,0-.45.02-.68.02-3.69,0-7.66-1.31-9.8-2.53l-.85-.48,1.71-3.61.98.55c1.28.72,4.57,2.09,7.87,2.09.37,0,.74-.01,1.12-.05.45-.04.89-.1,1.32-.19.47-.1.93-.25,1.34-.45,1.15-.55,1.97-1.5,1.97-3.1,0-1.13-.48-1.94-1.65-2.55-.36-.19-.79-.36-1.29-.51-.39-.12-.82-.23-1.3-.33-.59-.13-1.23-.24-1.97-.35-1.31-.19-3.37-.5-5.29-1.29-.86-.35-1.68-.79-2.4-1.37-.31-.25-.6-.53-.87-.84-.93-1.05-1.54-2.41-1.54-4.22s.54-3.25,1.56-4.43c.29-.34.63-.65,1-.94.7-.53,1.52-.97,2.47-1.31,1.42-.5,3.11-.76,5.05-.76.69,0,1.35.04,2,.1.45.04.89.1,1.31.17.45.08.89.17,1.32.28,1.35.34,2.6.83,3.75,1.47Z" style="fill: #1482a5; stroke-width: 0px;"/>
  <path d="M295.61,389.17l1.82,4.6,11.98-4.79c-.7-.84-1.79-2.23-3.29-4.22l-10.5,4.41Z" style="fill: #1482a5; stroke-width: 0px;"/>
  <path d="M481.16,245.46c-19.6-91.21-100.84-159.79-197.82-159.79S105.12,154.25,85.53,245.46h-32.26v99.33h35.87c24.6,84.01,102.35,145.55,194.21,145.55s169.61-61.54,194.21-145.55h45.18v-99.33h-41.57ZM460.28,245.46c.86-9.65-.6-19.43-4.42-28.64-4.35-10.49-11.37-19.36-20.33-25.88.4,2.89.63,5.83.63,8.83,0,15.93,6.09,30.91,17.15,42.32l-10.43-9.18c-6.07-9.88-9.33-21.26-9.33-33.15,0-3.7-.35-7.33-.99-10.85-3.03-1.94-6.24-3.64-9.63-5.04-15.66-6.49-27.86-18.69-34.35-34.35-1.42-3.42-3.12-6.62-5.06-9.63-3.52-.64-7.14-.99-10.83-.99-16.96,0-32.9-6.6-44.88-18.59-2.62-2.62-5.42-4.93-8.36-6.96-3.13.68-6.23,1.62-9.3,2.82l-2.21-1.95s.09-.03.13-.05c2.76-1.14,5.55-2.06,8.37-2.79-6.44-3.92-13.45-6.54-20.66-7.86-3.63-.66-7.32-1.01-11-1.01s-7.08.32-10.58.94c-7.36,1.29-14.51,3.93-21.08,7.93,2.81.73,5.61,1.65,8.37,2.79.11.05.23.09.34.13l-2.22,1.95c-3.14-1.24-6.32-2.21-9.51-2.9-2.94,2.04-5.74,4.35-8.36,6.97-11.99,11.99-27.93,18.59-44.88,18.59-3.7,0-7.32.35-10.85.99-1.93,3.01-3.63,6.22-5.04,9.63-6.49,15.66-18.69,27.86-34.35,34.35-3.42,1.42-6.63,3.12-9.63,5.06-.64,3.52-.98,7.13-.98,10.83,0,11.91-3.27,23.32-9.37,33.21l-10.43,9.16c11.08-11.42,17.19-26.42,17.19-42.36,0-2.99.22-5.92.62-8.8-17.22,12.58-26.57,33.41-24.73,54.49h-2.62c-1.91-22.77,8.69-45.23,27.95-58.11,4.99-25.06,24.77-44.84,49.83-49.83,14.2-21.24,40.04-31.95,65.1-26.97,8.61-5.75,18.32-9.16,28.24-10.25,4.78-.53,9.61-.51,14.39.05,9.78,1.14,19.35,4.53,27.84,10.2,25.06-4.98,50.91,5.73,65.11,26.97,25.05,4.99,44.82,24.76,49.82,49.8,10.37,6.91,18.48,16.72,23.35,28.49,3.95,9.53,5.48,19.65,4.62,29.64h-2.62ZM409.36,203.44c-14.63-21.73-34.72-39.48-58.29-51.27l-6.95-6.11c30.25,13,55.54,35.39,72.18,63.49l-6.94-6.1ZM245.83,160.66c-2-1.57-4.02-3-6.16-4.27-.79-.47-1.61-.91-2.45-1.32-.49-.24-.96-.49-1.46-.71.42.32.81.64,1.18.96.71.61,1.33,1.22,1.89,1.82,3.91,4.2,4.37,7.93,4.37,7.93-2.72-2.92-7.37-4.95-7.37-4.95-.03-.08-.08-.16-.12-.24-.36-.77-.81-1.55-1.32-2.32-2.64-3.92-6.78-7.41-6.78-7.41,4.8.24,8.51,1.7,11.3,3.45.8.51,1.52,1.03,2.18,1.57,3.32,2.71,4.76,5.5,4.76,5.5ZM363.06,211.46c-.69-.27-1.44-.5-2.24-.66-.8.16-1.55.39-2.24.66.31-.32.67-.6,1.05-.86-.69-.09-1.4-.13-2.13-.13-2.06,0-3.98.37-5.57.99,1.3-1.32,3.31-2.16,5.57-2.16,1.2,0,2.33.24,3.32.66.99-.42,2.12-.66,3.32-.66,2.25,0,4.26.84,5.57,2.16-1.59-.63-3.5-.99-5.57-.99-.73,0-1.45.05-2.13.13.39.25.74.54,1.05.86ZM355.11,221.77c1.88-.8,4.02-1.25,6.29-1.25,4.27,0,8.07,1.6,10.54,4.09-3-1.19-6.63-1.88-10.54-1.88-1.39,0-2.74.09-4.04.25.73.48,1.4,1.03,1.99,1.63-1.31-.52-2.73-.94-4.25-1.25-1.52.31-2.95.74-4.25,1.25.59-.6,1.26-1.15,2-1.63-1.3-.17-2.65-.25-4.04-.25-3.91,0-7.54.69-10.54,1.88,2.47-2.49,6.28-4.09,10.54-4.09,2.27,0,4.41.45,6.3,1.25ZM244.63,201.74c-.57-11.38,3.74-20.06,3.74-20.06-3.6,2-4.73,4.92-4.73,4.92-.27-10.04,4.76-17.28,10.24-13.02,5.48,4.25,2.49,15.09,2.49,15.09-.4-7.04-2.18-8.67-2.18-8.67,3.16,19.49-7.07,36.04-7.07,36.04-1.57-6.84-.52-12.42,1.14-17.88-2.56,1.52-3.62,3.59-3.62,3.59ZM220.25,172.08c1.48-2.04,4.95-3.76,6.75-4.56.69-.3,1.14-.48,1.14-.48-.24.02-.47.06-.71.1-2.19.29-4.11.86-5.71,1.54-3.96,1.67-6.08,3.92-6.08,3.92h-4.16c2.3-3.68,8.8-8.11,15.89-8.88,1.32-.14,2.65-.16,3.99-.02.74.08,1.48.18,2.21.36,9.18,2.2,12.6,7.55,12.6,7.55-1.92.21-4.06,4.49-4.06,4.49l-4.63-2.39,2.98-2.33c-3.15.18-6.37,1.97-6.37,1.97l-5.41-.64c2.58-2.85,6.51-4.02,6.51-4.02-5.45.12-10.34,3.7-10.34,3.7l-3.15-.21-1.45-.1ZM211.29,195.14c2.02-13.97,11.45-14.22,11.45-14.22-5.26,2.89-7.45,8.99-7.45,8.99,9.34-11.74,23.11-10.15,26.69-9.5-.77,1.75-1.08,3.4-1.21,4.43-2.51-.1-6.47.05-6.47.05.82-.53,2.58-1.96,2.58-1.96-5.47.72-11.37,4.27-11.37,4.27,1.28-1.76,4.04-3.6,4.04-3.6-8.76,2.11-18.26,11.53-18.26,11.53ZM240.67,187.01l.85,2.29s-10.36,6.12-13.21,13.19c2.57-3.21,9.87-11.57,13.8-5.85,0,0-13.61,5.04-15.72,18.4-3.14-10.37.18-24.62,14.28-28.03ZM330.97,196.74c-4.01-1.65-7.82-1.14-7.82-1.14l-.6-1.05c9.53-4.08,15.72,4.55,15.72,4.55-2.44-1.94-6.62-4.28-9.67-4.14,1.53.83,2.36,1.78,2.36,1.78ZM326.69,205.01s-1.65-2.89-3.78-4.49c0,0,.4,1.02.62,1.43,0,0-1.63-1-2.71-1.55.19-.46.45-1.23.54-2.15,1.66.57,7.83,3.16,8.99,10.31,0,0,.52-3.09-1.01-5.55,0,0,3.91,2.34,1.46,8.69,0,0-1.77-6.21-4.96-9.17,0,0,.72,1.43.85,2.47ZM317.07,210.11c.46-.64.69-.98,1.03-1.62,2.03,2.33,2.86,5.45,3.05,7.41.88-4.76-1.07-7.54-2-9.77.34-.94.71-2.08.83-2.59,6.21,6.63,3.08,15.27-2.12,19.66,2.36-5.29.59-10.37-.78-13.08ZM322.47,190.83c4.85-5.87,13.25-2.67,13.25-2.67-5.7-.13-8.04.39-13.25,2.67ZM326.35,183.3c-2.96.88-5.7,4.29-5.7,4.29l1.55.51c-2.37.88-4.47,3.4-4.47,3.4,1.4-4.48,4.17-7.8,4.17-7.8-3.93,2.9-5.49,7.96-5.49,7.96-1.51-.56-2.55-.77-2.55-.77,4.62-11.6,15.47-10.99,15.47-10.99-2.18.65-4.39,2.92-4.39,2.92l1.43.47ZM308.89,180.31c3.42,4.14,3.03,7.63,3.03,7.63-1.25-2.18-3.81-4.09-3.81-4.09-.6-3.26-3.61-7.29-3.61-7.29,8.02,2.31,9.67,9.07,9.67,9.07-1.59-1.98-3.23-3.8-5.28-5.31ZM297.91,199c1.04-.89,2.99-1.63,2.99-1.63-5.67.04-12.85,4.45-12.85,4.45,3.24-8.28,9.06-7.08,9.06-7.08-3.64,1.02-5.86,4.44-5.86,4.44,7.41-5.86,15.63-2.91,17.73-2-.72.96-1.15,1.93-1.38,2.55-1.52-.42-3.97-.89-3.97-.89.58-.2,1.86-.83,1.86-.83-3.46-.34-7.59.99-7.59.99ZM307.18,192.42l2.16-1c-1.96-.34-4.19.29-4.19.29l-3.23-1.17c1.99-1.38,4.57-1.53,4.57-1.53-3.36-.71-6.87.79-6.87.79l-2.78-.85c1.65-1.43,5.56-1.96,5.56-1.96-5.05-.65-8.46,1.61-8.46,1.61l-2.55-.6c2.5-2.48,9.45-4.74,14.77-2.08,5.32,2.67,6.65,6.44,6.65,6.44-1.2-.15-3.13,2.17-3.13,2.17l-2.5-2.13ZM275.82,171.78c-6.8-1.1-12.5,1.07-12.5,1.07l-1.3-1.4c13.26-9.75,25.95,1.35,25.95,1.35-4.47-2.12-11.78-4.23-16.44-2.91,2.67.73,4.29,1.89,4.29,1.89ZM272.19,186.11s-3.59-3.87-7.46-5.57c0,0,.99,1.43,1.48,1.99,0,0-2.88-.96-4.75-1.42.13-.79.25-2.07.06-3.52,2.78.28,13.26,2.05,17.62,12.69,0,0-.31-4.96-3.57-8.21,0,0,6.89,2.2,5.4,12.91,0,0-4.98-8.97-10.98-12.39,0,0,1.63,1.94,2.2,3.51ZM259.17,197.46c.48-1.15.71-1.76,1-2.87,3.98,2.87,6.39,7.4,7.39,10.36-.36-7.68-4.38-11.27-6.62-14.39.18-1.57.35-3.47.34-4.31,12.01,8.01,10.28,22.49,3.82,31.16,1.74-9.03-2.83-16.25-5.94-19.94ZM260.54,165.7c5.38-10.82,19.52-8.92,19.52-8.92-8.86,1.85-12.29,3.51-19.52,8.92ZM261.44,152.45l2.37.21c-4.25,2.43-7.26,8.7-7.26,8.7l2.58.23c-3.34,2.22-5.68,6.88-5.68,6.88.54-7.44,3.63-13.56,3.63-13.56-5.03,5.9-5.62,14.29-5.62,14.29-2.54-.32-4.23-.26-4.23-.26,2.96-19.61,19.95-22.58,19.95-22.58-3.13,1.8-5.74,6.1-5.74,6.1ZM306.73,207.16s-9.07,1.14-12.28,9.03c-.44-6.81,3.64-15.07,12.78-15.14l.19,1.53s-7.23,2.26-9.99,6.2c2.03-1.6,7.71-5.68,9.3-1.61ZM310.28,208.97c-1.79.56-2.74,1.68-2.74,1.68,1.28-7.06,5.17-11.77,5.17-11.77-2.49.71-3.61,2.34-3.61,2.34,1.27-6.2,5.39-9.91,8.15-6.52,2.75,3.39-.64,9.61-.64,9.61.77-4.37-.09-5.63-.09-5.63-.86,12.41-9.5,21.09-9.5,21.09.02-4.42,1.46-7.69,3.26-10.81ZM222.21,149.07c-28.56,12.62-52.54,33.79-68.64,60.25l-6.08,5.33c17.5-32.28,46.17-57.65,80.79-70.91l-6.07,5.33ZM109.8,344.78c2.5,15.64,11.06,30.03,24.19,39.62-.4-2.88-.62-5.81-.62-8.8,0-11.01-2.91-21.58-8.36-30.82h3.01c5.19,9.32,7.97,19.86,7.97,30.82,0,3.7.35,7.32.99,10.84,3.01,1.93,6.22,3.64,9.63,5.06,15.67,6.49,27.86,18.69,34.35,34.35,1.4,3.39,3.1,6.6,5.04,9.63,3.52.64,7.15.99,10.85.99,16.96,0,32.9,6.6,44.88,18.59,2.62,2.62,5.43,4.93,8.37,6.97,3.16-.69,6.29-1.64,9.36-2.85l2.21,1.95c-.07.03-.13.05-.2.08-2.74,1.14-5.53,2.06-8.35,2.8,6.48,3.94,13.53,6.57,20.78,7.87,7.18,1.29,14.55,1.29,21.73,0,7.25-1.31,14.31-3.93,20.78-7.87-2.82-.74-5.61-1.66-8.36-2.8-.07-.03-.13-.05-.2-.08l2.21-1.95c3.07,1.21,6.2,2.16,9.36,2.85,2.94-2.04,5.75-4.35,8.37-6.97,11.99-11.99,27.93-18.59,44.88-18.59,3.7,0,7.33-.35,10.85-.99,1.94-3.03,3.64-6.24,5.04-9.63,6.49-15.66,18.69-27.86,34.35-34.35,3.42-1.42,6.63-3.12,9.63-5.06.64-3.52.99-7.14.99-10.83,0-10.97,2.78-21.5,7.97-30.82h3c-5.45,9.25-8.36,19.81-8.36,30.82,0,2.99-.22,5.92-.62,8.8,13.13-9.6,21.69-23.98,24.19-39.62h2.69c-.77,5.01-2.14,9.97-4.13,14.78-4.88,11.77-12.98,21.59-23.35,28.49-5,25.04-24.76,44.8-49.8,49.8-6.9,10.37-16.72,18.48-28.49,23.35-11.77,4.88-24.44,6.09-36.66,3.63-8.52,5.69-18.13,9.08-27.95,10.2-2.41.28-4.84.43-7.26.43s-4.85-.16-7.27-.43c-9.82-1.12-19.42-4.52-27.95-10.2-4.09.82-8.23,1.23-12.37,1.23-8.23,0-16.46-1.62-24.29-4.87-11.77-4.88-21.59-12.98-28.49-23.35-25.04-5-44.81-24.78-49.8-49.82-15.03-10.05-24.79-25.93-27.45-43.24h2.65ZM152.86,365.49c16.31,27.37,40.98,49.19,70.46,61.93l5.92,5.21c-35.44-13.3-64.73-39.27-82.33-72.36l5.94,5.22ZM349.26,424.73c24.91-12.06,46.05-30.73,61.12-53.72l6.72-5.9c-16.9,29.2-43.09,52.39-74.5,65.49l6.66-5.86ZM511.28,331.73c0,.79-.58,1.43-1.31,1.43h-78.51l-.6.52-3.86,3.39-113.43,99.7-3.84,3.38-16.36,14.38-2.63,2.31-5.13,4.51c-.25.22-.56.33-.86.33s-.62-.11-.86-.33l-5.13-4.51-2.63-2.31-15.72-13.82-3.7-3.25-118.19-103.88-.48-.42h-72.03c-.72,0-1.31-.64-1.31-1.43v-76.68c0-.79.58-1.43,1.31-1.43h59.05l10-8.79,3.75-3.29,74.8-65.74c1.33-.3,2.83-.54,4.51-.63.07-.01.14-.02.2-.04l-80.97,71.17-3.56,3.13-4.76,4.19h79.57c2.09-.9,17.67-7.53,35.5-13.12.14,4.25.32,8.65.54,13.12,0,.04,0,.07,0,.11h2.79s0-.07,0-.11c-.24-5.11-.41-9.83-.52-13.99-.3-10.88-.25-17.89-.25-17.89l2.24.39c.37,5.09,1.02,10.64,1.84,16.37.56,3.94,1.2,7.97,1.9,11.99-.05-.31.21,1.01.62,3.13,0,.04.01.07.02.11h4.87s-.01-.07-.02-.11c-.85-5.48-1.62-11.07-2.23-16.54,12.48-3.29,24.86-5.41,33.55-4.2,3.57.5,7.53,2.11,11.66,4.2-1.04,5.35-2.05,11.03-2.88,16.55,0,.04-.01.07-.02.11h1.74s.01-.07.02-.11c.9-5.74,1.89-11.11,2.78-15.7,1.73-8.81,3.15-14.71,3.15-14.71l1.32.56c-.75,4.72-1.27,10.17-1.63,15.7-.05.74-.1,1.49-.14,2.23.03-.57-.27,7.46-.44,11.92,0,.03,0,.07,0,.11h2.79s0-.07,0-.11c.2-3.93.47-8.17.84-12.43,7.51,4.3,15.1,8.9,21.49,10.23,5.28,1.1,7.43,1.92,8.93,2.2h2c1.18-.24,2.73-.93,6-2.2,8.45-3.29,21.69,1.43,23.74,2.2h69.66l-8.48-7.45-3.68-3.24-118.87-104.48-3.68-3.23-15.91-13.99-2.78-2.45-2.31-2.03-2.31,2.03-2.78,2.45-15.4,13.53-3.55,3.12-17.35,15.25c-.67-.49-1.45-.97-2.34-1.42l14.81-13.01,3.74-3.29,16.57-14.57,2.63-2.31,5.13-4.51c.49-.43,1.23-.43,1.73,0l5.13,4.51,2.63,2.31,17.23,15.15,3.9,3.43,112.17,98.6,3.9,3.43,13.85,12.18h65.53c.72,0,1.31.64,1.31,1.43v76.68Z" style="fill: #1482a5; stroke-width: 0px;"/>
  <path d="M452.54,301.43c.93-.23,1.74-.59,2.44-1.07,1.94-1.32,2.98-3.57,2.98-6.64,0-3.73-1.51-6.25-4.31-7.38-.77-.31-1.64-.51-2.6-.61-.41-.04-.83-.07-1.28-.07h-7.63v16.08h7.63c1.01,0,1.94-.11,2.77-.31Z" style="fill: #1482a5; stroke-width: 0px;"/>
  <path d="M378.5,284.6c-5.84,0-9.47,3.48-9.47,9.09s3.63,9.08,9.47,9.08,9.47-3.48,9.47-9.08-3.63-9.09-9.47-9.09Z" style="fill: #1482a5; stroke-width: 0px;"/>
  <path d="M182.46,434.74c-1.47-2.52-2.79-5.15-3.93-7.89-6.22-15.02-17.92-26.72-32.94-32.94-2.76-1.14-5.38-2.47-7.89-3.94,5.35,22.04,22.72,39.41,44.76,44.77Z" style="fill: #1482a5; stroke-width: 0px;"/>
  <polygon points="294.34 387.85 304.41 383.62 298.56 380.49 266.5 380.49 260.65 383.62 270.72 387.85 294.34 387.85" style="fill: #1482a5; stroke-width: 0px;"/>
  <path d="M431.81,389.98c-2.52,1.47-5.15,2.79-7.89,3.93-15.02,6.22-26.72,17.92-32.94,32.94-1.14,2.74-2.46,5.37-3.93,7.89,22.03-5.36,39.4-22.73,44.76-44.76Z" style="fill: #1482a5; stroke-width: 0px;"/>
  <path d="M355.63,458.79c10.49-4.35,19.36-11.37,25.88-20.33-2.89.4-5.83.63-8.83.63-16.26,0-31.54,6.33-43.04,17.83-2.12,2.12-4.36,4.04-6.69,5.8,10.94,1.73,22.18.43,32.67-3.92Z" style="fill: #1482a5; stroke-width: 0px;"/>
  <path d="M213.89,458.79c10.49,4.35,21.73,5.64,32.67,3.92-2.33-1.76-4.57-3.68-6.69-5.8-11.49-11.49-26.78-17.83-43.04-17.83-3,0-5.94-.22-8.83-.63,6.52,8.96,15.38,15.99,25.88,20.33Z" style="fill: #1482a5; stroke-width: 0px;"/>
  <path d="M366.47,327.66c0-2.72-1.52-4.22-4.28-4.22h-3.99v8.41h3.99c2.76,0,4.28-1.49,4.28-4.19Z" style="fill: #1482a5; stroke-width: 0px;"/>
  <polygon points="131.49 285.92 128.95 285.92 128.93 285.92 123.43 298.58 129.3 298.58 131.92 298.58 137.03 298.58 131.57 286.1 131.49 285.92" style="fill: #1482a5; stroke-width: 0px;"/>
  <path d="M210.65,293.72c0-5.2-2.91-8.06-8.19-8.06h-7.63v16.08h7.63c5.28,0,8.19-2.85,8.19-8.02Z" style="fill: #1482a5; stroke-width: 0px;"/>
  <polygon points="247.05 323.58 245.81 323.58 242.95 330.16 249.93 330.16 247.05 323.58" style="fill: #1482a5; stroke-width: 0px;"/>
  <path d="M229.15,325.55c0-1.95-1.83-2.16-2.61-2.16h-5.89v4.27h5.89c.98,0,2.61-.27,2.61-2.11Z" style="fill: #1482a5; stroke-width: 0px;"/>
  <path d="M258.26,293.72c0-5.2-2.91-8.06-8.19-8.06h-7.63v16.08h7.63c5.28,0,8.19-2.85,8.19-8.02Z" style="fill: #1482a5; stroke-width: 0px;"/>
  <polygon points="301.96 285.92 299.4 285.92 293.9 298.58 307.5 298.58 301.96 285.92" style="fill: #1482a5; stroke-width: 0px;"/>
</svg>