<?xml version="1.0" encoding="UTF-8"?>
<svg id="Layer_1" data-name="Layer 1" xmlns="http://www.w3.org/2000/svg" viewBox="0 0 576 576">
  <polygon points="462.4 256.02 458.46 252.55 447.7 243.09 296 109.67 292.28 106.4 284.85 99.85 277.45 106.35 273.75 109.59 121.58 243.15 110.82 252.6 106.92 256.02 45.95 256.02 45.95 358.45 119.92 358.45 123.02 358.45 124.36 358.45 273.46 489.5 277.17 492.76 284.66 499.34 292.15 492.76 295.86 489.5 444.96 358.45 446.3 358.45 449.4 358.45 530.05 358.45 530.05 256.02 462.4 256.02" style="fill: #076a95; stroke-width: 0px;"/>
  <polygon points="284.66 123.3 124.09 264.44 445.23 264.44 284.66 123.3" style="fill: none; stroke-width: 0px;"/>
  <polygon points="385.12 358.02 183.11 358.02 183.11 346.46 137.47 346.46 284.66 475.84 431.85 346.46 385.12 346.46 385.12 358.02" style="fill: none; stroke-width: 0px;"/>
  <g>
    <polygon points="196.34 336.44 201.95 336.44 201.95 347.42 204.22 347.42 204.22 336.44 209.83 336.44 209.83 334.32 196.34 334.32 196.34 336.44" style="fill: #fff; stroke-width: 0px;"/>
    <path d="M230.55,344.99l-.48.24c-.32.16-.91.46-1.92.46-1.09,0-1.97-.19-4.27-2.64h.82c3.09,0,5-1.7,5-4.44s-1.92-4.48-5-4.48h-8.56v13.28h2.27v-4.36h2.49c3.52,4.01,5.13,4.74,7.21,4.77,1.62,0,2.5-.44,3.03-.77l.42-.27-.71-1.34-.3-.45ZM218.41,336.26h6.21c.85,0,2.83.23,2.83,2.36,0,2.01-1.77,2.31-2.83,2.31h-6.21v-4.67Z" style="fill: #fff; stroke-width: 0px;"/>
    <path d="M243.06,334.27l-5.86,13.14h2.36l.83-1.79h9.5l.83,1.79h2.36l-5.86-13.14h-4.15ZM245.87,336.44l3.09,7.05h-7.62l3.07-7.05h1.46Z" style="fill: #fff; stroke-width: 0px;"/>
    <polygon points="264.58 344.77 263.2 344.77 259.12 334.13 256.72 334.13 261.7 346.94 266.07 346.94 271.05 334.13 268.66 334.13 264.58 344.77" style="fill: #fff; stroke-width: 0px;"/>
    <polygon points="278.25 347.37 290.19 347.42 290.19 345.3 280.51 345.25 280.51 341.73 288.77 341.73 288.77 339.61 280.51 339.61 280.51 336.26 290.19 336.26 290.19 334.13 278.25 334.13 278.25 347.37" style="fill: #fff; stroke-width: 0px;"/>
    <polygon points="299.73 334.13 297.47 334.13 297.47 347.23 308.94 347.23 308.94 345.1 299.73 345.1 299.73 334.13" style="fill: #fff; stroke-width: 0px;"/>
    <polygon points="326.27 334.13 324 334.13 324 347.23 335.47 347.23 335.47 345.1 326.27 345.1 326.27 334.13" style="fill: #fff; stroke-width: 0px;"/>
    <polygon points="338.15 336.44 343.77 336.44 343.77 347.42 346.03 347.42 346.03 336.44 351.65 336.44 351.65 334.32 338.15 334.32 338.15 336.44" style="fill: #fff; stroke-width: 0px;"/>
    <path d="M364.5,334.18h-6.51v13.19h6.51c4.27,0,6.82-2.46,6.82-6.58s-2.55-6.61-6.82-6.61ZM360.25,336.3h4.25c2.94,0,4.55,1.59,4.55,4.48s-1.62,4.46-4.55,4.46h-4.25v-8.94Z" style="fill: #fff; stroke-width: 0px;"/>
    <rect x="376.69" y="345.34" width="2.27" height="2.33" style="fill: #fff; stroke-width: 0px;"/>
  </g>
  <path d="M350.71,230.31c2.35,0,4.55.47,6.49,1.29,1.94-.82,4.14-1.29,6.49-1.29,4.4,0,8.32,1.65,10.87,4.22-3.1-1.22-6.84-1.94-10.87-1.94-1.43,0-2.82.09-4.17.26.76.5,1.45,1.06,2.06,1.68-1.35-.53-2.82-.97-4.38-1.29-1.57.32-3.04.76-4.38,1.29.61-.62,1.3-1.18,2.06-1.68-1.34-.17-2.74-.26-4.17-.26-4.03,0-7.78.72-10.87,1.94,2.55-2.57,6.47-4.22,10.87-4.22" style="fill: #f3e2bf; fill-rule: evenodd; stroke-width: 0px;"/>
  <path d="M359.66,218.74c1.24,0,2.4.25,3.43.68,1.02-.44,2.19-.68,3.43-.68,2.32,0,4.39.87,5.74,2.23-1.64-.65-3.61-1.02-5.74-1.02-.76,0-1.49.05-2.2.14.4.26.76.56,1.09.89-.71-.28-1.49-.51-2.31-.68-.83.17-1.6.4-2.31.68.32-.33.69-.62,1.09-.89-.71-.09-1.44-.14-2.2-.14-2.13,0-4.1.38-5.74,1.02,1.35-1.36,3.42-2.23,5.74-2.23" style="fill: #f3e2bf; fill-rule: evenodd; stroke-width: 0px;"/>
  <g>
    <path d="M92.73,303.67c-3.49-.56-6.89-1.33-6.89-3.91,0-.87,0-3.5,6.15-3.5,3.6,0,5.93,1.2,6.55,1.57l.95.56,2.05-3.63-.94-.53c-2.45-1.38-5.36-2.08-8.65-2.08-6.51,0-10.39,2.86-10.39,7.66,0,6.4,7.29,7.49,10.41,7.95,4.72.7,6.4,1.71,6.4,3.87,0,3.22-3.22,3.9-5.93,3.9-3.4,0-6.79-1.41-8.11-2.15l-1.01-.57-1.77,3.72.87.5c2.2,1.26,6.31,2.61,10.11,2.61,6.15,0,10.13-3.13,10.13-7.97,0-6.42-6.95-7.52-9.91-7.99Z" style="fill: #fff; stroke-width: 0px;"/>
    <path d="M121.37,293.55l-11.02,24.71h4.57l1.54-3.35h17.67l1.54,3.35h4.57l-11.02-24.71h-7.85ZM118.3,310.8l5.67-13.05h2.64l5.71,13.05h-14.02Z" style="fill: #fff; stroke-width: 0px;"/>
    <polygon points="170.79 311.41 154.72 293.29 150.81 293.29 150.81 318.26 155.18 318.26 155.18 300.43 171.17 318.26 175.16 318.26 175.16 293.29 170.79 293.29 170.79 311.41" style="fill: #fff; stroke-width: 0px;"/>
    <path d="M199.8,293.38h-12.24v24.79h12.24c8.03,0,12.82-4.63,12.82-12.38s-4.79-12.42-12.82-12.42ZM199.8,314.06h-7.87v-16.58h7.87c5.44,0,8.44,2.95,8.44,8.31s-3,8.27-8.44,8.27Z" style="fill: #fff; stroke-width: 0px;"/>
    <path d="M248.89,293.38h-12.24v24.79h12.24c8.03,0,12.82-4.63,12.82-12.38s-4.79-12.42-12.82-12.42ZM241.02,297.49h7.87c5.44,0,8.44,2.95,8.44,8.31s-3,8.27-8.44,8.27h-7.87v-16.58Z" style="fill: #fff; stroke-width: 0px;"/>
    <rect x="272.07" y="293.29" width="4.37" height="24.97" style="fill: #fff; stroke-width: 0px;"/>
    <path d="M297.16,293.55l-11.02,24.71h4.57l1.54-3.35h17.66l1.54,3.35h4.57l-11.02-24.71h-7.85ZM294.09,310.8l5.67-13.05h2.64l5.71,13.05h-14.02Z" style="fill: #fff; stroke-width: 0px;"/>
    <polygon points="354.61 293.11 354.5 293.29 351.87 293.29 341.7 309.45 331.5 293.29 328.86 293.29 328.75 293.12 328.75 293.29 326.55 293.29 326.55 318.26 330.92 318.26 330.92 300.47 341.71 317.15 352.44 300.49 352.44 318.26 356.82 318.26 356.82 293.29 354.61 293.29 354.61 293.11" style="fill: #fff; stroke-width: 0px;"/>
    <path d="M381.32,292.27c-8.4,0-14.05,5.42-14.05,13.48s5.65,13.48,14.05,13.48,14.05-5.42,14.05-13.48-5.65-13.48-14.05-13.48ZM381.32,315.12c-6.02,0-9.77-3.59-9.77-9.37s3.74-9.37,9.77-9.37,9.76,3.59,9.76,9.37-3.74,9.37-9.76,9.37Z" style="fill: #fff; stroke-width: 0px;"/>
    <polygon points="425.8 311.41 409.73 293.29 405.82 293.29 405.82 318.26 410.19 318.26 410.19 300.43 426.18 318.26 430.17 318.26 430.17 293.29 425.8 293.29 425.8 311.41" style="fill: #fff; stroke-width: 0px;"/>
    <path d="M454.81,293.38h-12.24v24.79h12.24c8.03,0,12.82-4.63,12.82-12.38s-4.79-12.42-12.82-12.42ZM454.81,314.06h-7.87v-16.58h7.87c5.44,0,8.44,2.95,8.44,8.31s-3,8.27-8.44,8.27Z" style="fill: #fff; stroke-width: 0px;"/>
    <path d="M487.71,303.67c-3.49-.56-6.9-1.33-6.9-3.91,0-.87,0-3.5,6.15-3.5,3.6,0,5.93,1.2,6.55,1.57l.95.56,2.04-3.63-.94-.53c-2.45-1.38-5.36-2.08-8.65-2.08-6.51,0-10.39,2.86-10.39,7.66,0,6.4,7.29,7.49,10.41,7.95,4.72.7,6.4,1.71,6.4,3.87,0,3.22-3.22,3.9-5.93,3.9-3.4,0-6.79-1.41-8.11-2.15l-1.01-.57-1.77,3.73.87.5c2.2,1.26,6.31,2.61,10.11,2.61,6.15,0,10.13-3.13,10.13-7.97,0-6.42-6.95-7.52-9.91-7.99Z" style="fill: #fff; stroke-width: 0px;"/>
  </g>
  <g>
    <path d="M313.89,404.95s-.04-.07-.09-.17c-.02-.03-.04-.05-.06-.07l-.29.24h0s.22-.31.22-.31l-.25.28h0l.17-.35c-.31-.28-2.25-2.74-4.45-5.64l-8.11-4.41c-.13-.07-.27-.1-.42-.1h-33.51c-.15,0-.29.04-.42.1l-7.89,4.23-.25.22c-2.11,2.79-4,5.19-4.39,5.57l-.03.03s-.04.03-.08.06c-.02.02-.05.04-.1.11l-.06.09s-.04.07-.05.1l-.04.09c-.15.49-.09.57,1.44,2.65.79,1.08,1.94,2.62,3.5,4.69,2.89,3.84,6.77,8.95,10.52,13.89l.28.36c5.06,6.66,10.79,14.21,12.81,16.97.39.53.64.89.7.97.02.05.04.09.09.16,0,0,0,0,0,0l.09.12s.01.01.02.02l.05.05s.07.05.12.09c.05.03.1.05.17.08.04.01.09.02.13.03h.15s.25-.02.25-.02l.13-.05s.07-.03.11-.06c.04-.03.09-.06.1-.08l.14-.11v-.05s.01-.02.02-.03c.03-.04.05-.09.05-.09.08-.13.33-.48.73-1.03,2.09-2.86,8.18-10.88,13.08-17.33,3.75-4.94,7.63-10.04,10.52-13.89,1.56-2.08,2.71-3.61,3.5-4.69,1.53-2.08,1.59-2.16,1.44-2.65l-.03-.08ZM313.56,405.14h0s0,0,0,0ZM310.65,407.21c-2.81,3.8-8.74,11.6-13.59,17.99l-.22.29c-3.04,4-5.93,7.81-8.3,10.94l10.85-24.72,11.25-4.5ZM268.33,411.71l10.85,24.72c-2.42-3.21-5.39-7.12-8.52-11.23l-.3-.39c-4.99-6.57-10.58-13.94-13.29-17.6l11.26,4.5ZM270.37,405.14l-1.87,4.74-12.35-4.94c.73-.87,1.84-2.31,3.4-4.35l10.83,4.55ZM295.62,405.54l1.82,4.61c-4.95.02-22.2.02-27.15,0l1.82-4.61h23.51ZM276.62,411.94c1.43,0,2.67,0,3.72,0h1.54c.76,0,1.35,0,1.75-.01h.23s.25,0,.25,0c.4,0,.99,0,1.75.01h1.54c1.04,0,2.29,0,3.72,0,2.4,0,4.81-.02,6.27-.02l-13.5,30.75h0s-.02.03-.02.03l-13.51-30.78c1.45,0,3.87.02,6.27.02ZM296.04,403.78h-24.35l-10.39-4.37,6.03-3.23h33.07l6.03,3.23-10.39,4.37ZM311.58,404.94l-12.35,4.94-1.87-4.74,10.83-4.55c1.56,2.05,2.67,3.48,3.4,4.35ZM283.82,444.75s0,0,0,0h0s0,0,0,0Z" style="fill: #f2d4b2; stroke-width: 0px;"/>
    <rect x="317.88" y="404.45" width="10.49" height="1.52" style="fill: #f2d4b2; stroke-width: 0px;"/>
    <rect x="316.53" y="396" width="7.3" height="1.52" transform="translate(-116.39 133.43) rotate(-20)" style="fill: #f2d4b2; stroke-width: 0px;"/>
    <rect x="319.41" y="409.99" width="1.52" height="7.32" transform="translate(-178.04 573.03) rotate(-70)" style="fill: #f2d4b2; stroke-width: 0px;"/>
    <rect x="237.97" y="405.22" width="10.49" height="1.52" style="fill: #f2d4b2; stroke-width: 0px;"/>
    <rect x="242.51" y="413.66" width="7.3" height="1.52" transform="translate(-126.88 109.17) rotate(-20)" style="fill: #f2d4b2; stroke-width: 0px;"/>
    <rect x="245.41" y="393.87" width="1.52" height="7.32" transform="translate(-211.58 492.9) rotate(-70)" style="fill: #f2d4b2; stroke-width: 0px;"/>
  </g>
  <polygon points="448.59 267.39 120.73 267.39 116.65 267.39 60.46 267.39 60.46 343.51 130.03 343.51 134.11 343.51 183.11 343.51 183.11 346.46 137.47 346.46 284.66 475.84 431.85 346.46 385.12 346.46 385.12 343.51 435.21 343.51 439.29 343.51 515.54 343.51 515.54 267.39 452.67 267.39 448.59 267.39" style="fill: none; stroke-width: 0px;"/>
  <g>
    <path d="M381.3,363.01h-192.08c-.74,0-1.35.6-1.35,1.35s.6,1.35,1.35,1.35h192.08c.74,0,1.35-.6,1.35-1.35s-.6-1.35-1.35-1.35Z" style="fill: #bf986b; stroke-width: 0px;"/>
    <path d="M516.89,264.44h-67.57l-163.77-143.94c-.51-.45-1.27-.45-1.78,0l-42.6,37.44c.88.49,1.66,1,2.34,1.53l41.15-36.17,160.57,141.14H124.09l94.54-83.1c-.25.03-.49.05-.74.09l-.11.02h-.11c-1.69.1-3.31.62-4.77,1.34l-92.89,81.65h-60.89c-.74,0-1.35.66-1.35,1.48v79.07c0,.81.6,1.48,1.35,1.48h74.28l150.38,132.18c.25.22.57.34.89.34s.64-.11.89-.34l150.38-132.18h80.96c.74,0,1.35-.66,1.35-1.48v-79.07c0-.81-.6-1.48-1.35-1.48ZM515.54,343.51h-130.42v2.95h46.73l-147.19,129.37-147.19-129.37h45.64v-2.95H60.46v-76.12h455.09v76.12Z" style="fill: #bf986b; stroke-width: 0px;"/>
  </g>
  <path d="M348.93,262.17c-9.47,3.68-4.93,2.62-17.46,0-6.49-1.35-14.17-5.97-21.8-10.34,1.45-11.05,3.84-23.4,5.89-30.37,0,0,4.63,7.49.68,14.61,10.39-3.5,12.55-18.1,5.05-25.64,0,0,9.26,2.03,11.04,15.12,5.25-6.88,2.01-15.61-5.56-18.98,0,0,12.1-.23,16.48,8.35.31-8.96-8.3-16.44-19.33-13.03,0,0,6.11-5.3,18.77-2.59,0,0-8.09-7.69-16.87-3.91,0,0,4.87-6.53,11.71-5.95-4.46-2.86-13.36-5.62-21.16,3.61,0,0-2.91-10.71-16.55-10.07,0,0,5.84,4.38,6.73,9.49-3.53-1.17-13.62-3.75-18.8,7.39,0,0,3.24-2.21,7.8-1.39,6,1,11.29,4.73,11.29,4.73-10.17-4.27-20.1-.3-21.24,11.88,0,0,7.54-7.53,15.33-4.96-3.38.66-11.49,8.6-7.95,21.32,0,0,6.17-10.42,14.57-11.72,0,0-3.1,12.58-6.02,27.66-4.25-2.15-8.34-3.82-12.02-4.33-8.85-1.23-21.41.88-34.1,4.2-1.25-16.33-1.86-35.22-1.86-38.78,0,0,11.52,11.77,7.99,24.2,14.81-9.17,12.87-32.52-1.45-41.46,0,0,19.46,4.26,22.54,19.38,5.63-12.54-2.53-24.86-15.46-27.34,0,0,18.63-4.73,28.49,6.95-2.76-13.97-18.78-22.42-34.59-13.16,0,0,7.52-10.4,28.08-10.79,0,0-15.29-8.97-27.5.05,0,0,5.17-11.86,15.96-13.43-7.93-2.81-22.69-3.85-31.41,13.23,0,0-3.37-11.3-24.48-8.8,0,0,6.6,4.59,9.83,12.17-5.87-.54-23.15-1.59-27.13,17.51,0,0,5.79-7.12,13.13-7.51,12-2,17.59,5.77,17.59,5.77-17.27-2.93-31.19,6.8-28.54,26.04,0,0,8.93-14.37,21.9-13.21-4.98,2.25-14.66,17.45-4.58,35.84,0,0,6.13-21.39,18.63-26.44,0,0-.46,20.32.21,43.44-19.78,6.2-36.89,13.65-36.89,13.65h167.81s-15.3-6.06-24.77-2.38Z" style="fill: #f3e2bf; stroke-width: 0px;"/>
</svg>