<?xml version="1.0" encoding="UTF-8"?>
<svg id="Layer_1" data-name="Layer 1" xmlns="http://www.w3.org/2000/svg" viewBox="0 0 576 576">
  <g>
    <circle cx="283.24" cy="288" r="205.58" style="fill: #1482a5; stroke-width: 0px;"/>
    <path d="M283.24,494.92c-114.09,0-206.92-92.82-206.92-206.92s92.82-206.92,206.92-206.92,206.92,92.82,206.92,206.92-92.82,206.92-206.92,206.92ZM283.24,83.76c-112.62,0-204.24,91.62-204.24,204.24s91.62,204.24,204.24,204.24,204.24-91.62,204.24-204.24-91.62-204.24-204.24-204.24Z" style="fill: #1482a5; stroke-width: 0px;"/>
  </g>
  <path d="M283.24,445.91c-87.07,0-157.91-70.84-157.91-157.91s70.84-157.91,157.91-157.91,157.91,70.84,157.91,157.91-70.84,157.91-157.91,157.91ZM283.24,132.76c-85.6,0-155.24,69.64-155.24,155.24s69.64,155.24,155.24,155.24,155.24-69.64,155.24-155.24-69.64-155.24-155.24-155.24Z" style="fill: #bf986b; stroke-width: 0px;"/>
  <path d="M236.03,470.1c-8.42,0-16.83-1.66-24.84-4.98-16.02-6.64-28.49-19.11-35.13-35.13-6.36-15.36-18.33-27.32-33.69-33.68-33.07-13.7-48.83-51.74-35.13-84.81,6.36-15.36,6.36-32.28,0-47.64-13.7-33.07,2.06-71.12,35.13-84.81,15.36-6.36,27.32-18.32,33.68-33.68,13.7-33.07,51.74-48.83,84.81-35.13,15.36,6.36,32.28,6.36,47.64,0,33.07-13.7,71.11,2.06,84.81,35.13,6.36,15.36,18.32,27.32,33.68,33.68,16.02,6.64,28.5,19.11,35.13,35.13,6.64,16.02,6.63,33.66,0,49.68l-1.23-.51,1.23.51c-6.36,15.36-6.36,32.28,0,47.64,6.64,16.02,6.64,33.66,0,49.68-6.64,16.02-19.11,28.49-35.13,35.13-15.36,6.36-27.32,18.33-33.69,33.68-6.64,16.02-19.11,28.49-35.13,35.13-16.02,6.64-33.66,6.64-49.68,0-15.36-6.36-32.28-6.36-47.64,0-8.01,3.32-16.42,4.98-24.84,4.98ZM236.11,107.97c-24.44,0-47.67,14.48-57.58,38.42-6.64,16.02-19.11,28.49-35.13,35.13-31.71,13.13-46.82,49.61-33.69,81.32,6.64,16.02,6.64,33.66,0,49.68-13.13,31.71,1.98,68.19,33.68,81.32,16.02,6.64,28.5,19.11,35.13,35.13,6.36,15.36,18.32,27.32,33.68,33.68,15.36,6.36,32.28,6.36,47.64,0,16.02-6.64,33.66-6.64,49.68,0,15.36,6.36,32.28,6.36,47.64,0,15.36-6.36,27.32-18.32,33.68-33.68,6.64-16.02,19.11-28.49,35.13-35.13,31.71-13.13,46.82-49.61,33.68-81.32-6.64-16.02-6.64-33.66,0-49.68h0c6.36-15.36,6.36-32.28,0-47.64-6.36-15.36-18.32-27.32-33.68-33.68-16.02-6.64-28.49-19.11-35.13-35.13-13.13-31.71-49.61-46.82-81.32-33.68-16.02,6.64-33.66,6.64-49.68,0-7.76-3.22-15.81-4.74-23.74-4.74Z" style="fill: #f2d4b2; stroke-width: 0px;"/>
  <g>
    <path d="M295.8,476.04c12.06-2.17,23.6-7.89,32.9-17.19,12.26-12.26,28.56-19.01,45.9-19.01,34.32,0,62.24-27.92,62.24-62.24,0-11.21,2.84-21.99,8.15-31.52h-1.33l-147.86,129.97Z" style="fill: none; stroke-width: 0px;"/>
    <path d="M124.38,346.07c5.31,9.53,8.15,20.31,8.15,31.52,0,34.32,27.92,62.24,62.24,62.24,17.34,0,33.64,6.75,45.9,19.01,9.3,9.3,20.84,15.02,32.9,17.19l-147.86-129.97h-1.33Z" style="fill: none; stroke-width: 0px;"/>
    <path d="M374.6,135.53c-17.34,0-33.64-6.75-45.9-19.01-9.26-9.26-20.75-14.98-32.76-17.17l150.44,132.32c-6.21-10.1-9.54-21.74-9.54-33.9,0-34.32-27.92-62.24-62.24-62.24Z" style="fill: none; stroke-width: 0px;"/>
    <path d="M240.68,116.52c-12.26,12.26-28.56,19.01-45.9,19.01-34.32,0-62.24,27.92-62.24,62.24,0,12.18-3.35,23.84-9.58,33.96l150.91-132.46c-12.16,2.13-23.81,7.87-33.19,17.24Z" style="fill: none; stroke-width: 0px;"/>
    <path d="M328.7,116.52c12.26,12.26,28.56,19.01,45.9,19.01,34.32,0,62.24,27.92,62.24,62.24,0,12.16,3.33,23.8,9.54,33.9l10.67,9.38c-11.31-11.67-17.54-26.99-17.54-43.28,0-35.79-29.12-64.91-64.91-64.91-16.63,0-32.25-6.47-44.01-18.23-10.73-10.73-24.32-16.89-38.34-18.52l3.69,3.24c12.01,2.19,23.5,7.91,32.76,17.17Z" style="fill: #fff; stroke-width: 0px;"/>
    <path d="M132.54,197.77c0-34.32,27.92-62.24,62.24-62.24,17.34,0,33.64-6.75,45.9-19.01,9.38-9.38,21.03-15.11,33.19-17.24l3.67-3.22c-14.16,1.56-27.91,7.74-38.75,18.57-11.76,11.76-27.39,18.23-44.01,18.23-35.79,0-64.91,29.12-64.91,64.91,0,16.31-6.24,31.65-17.58,43.32l10.67-9.36c6.23-10.12,9.58-21.78,9.58-33.96Z" style="fill: #fff; stroke-width: 0px;"/>
    <path d="M436.84,377.59c0,34.32-27.92,62.24-62.24,62.24-17.34,0-33.64,6.75-45.9,19.01-9.3,9.3-20.84,15.02-32.9,17.19l-3.68,3.24c14.07-1.61,27.71-7.78,38.47-18.54,11.76-11.76,27.39-18.23,44.01-18.23,35.79,0,64.91-29.12,64.91-64.91,0-11.26,2.98-22.07,8.55-31.52h-3.07c-5.31,9.53-8.15,20.31-8.15,31.52Z" style="fill: #fff; stroke-width: 0px;"/>
    <path d="M240.68,458.84c-12.26-12.26-28.56-19.01-45.9-19.01-34.32,0-62.24-27.92-62.24-62.24,0-11.21-2.84-21.99-8.15-31.52h-3.07c5.57,9.45,8.55,20.26,8.55,31.52,0,35.79,29.12,64.91,64.91,64.91,16.62,0,32.25,6.47,44.01,18.23,10.77,10.77,24.4,16.93,38.47,18.54l-3.68-3.24c-12.06-2.17-23.6-7.89-32.9-17.19Z" style="fill: #fff; stroke-width: 0px;"/>
    <path d="M292.25,96.1l-7.38-6.49-7.34,6.44c4.89-.54,9.83-.52,14.71.05Z" style="fill: #076a95; stroke-width: 0px;"/>
    <path d="M284.69,98.32c-3.62,0-7.24.33-10.82.96L122.96,231.73c-2.64,4.28-5.79,8.29-9.43,11.94-11.76,11.76-18.23,27.39-18.23,44.01s6.47,32.25,18.23,44.01c4.33,4.33,7.96,9.17,10.86,14.38h1.33l147.86,129.97c7.34,1.32,14.88,1.32,22.22,0l147.86-129.97h1.33c2.9-5.21,6.53-10.05,10.86-14.38,24.27-24.27,24.27-63.75,0-88.02-3.66-3.66-6.82-7.7-9.47-12l-150.44-132.32c-3.72-.68-7.48-1.03-11.25-1.03Z" style="fill: #076a95; stroke-width: 0px;"/>
    <path d="M277.26,479.27l7.43,6.53,7.43-6.53c-2.47.28-4.95.44-7.43.44s-4.96-.16-7.43-.44Z" style="fill: #076a95; stroke-width: 0px;"/>
    <path d="M92.62,287.68c0-17.34,6.75-33.64,19.01-45.9.22-.22.43-.46.65-.69l-3.87,3.4h-60.47v101.58h73.36c-2.65-4.5-5.88-8.7-9.68-12.49-12.26-12.26-19.01-28.56-19.01-45.9Z" style="fill: #076a95; stroke-width: 0px;"/>
    <path d="M528.05,244.49h-67.09l-3.91-3.44c.23.24.46.49.69.73,25.31,25.31,25.31,66.49,0,91.8-3.79,3.79-7.02,7.99-9.68,12.49h79.99v-101.58Z" style="fill: #076a95; stroke-width: 0px;"/>
    <path d="M284.69,98.32c3.77,0,7.53.35,11.25,1.03l-3.69-3.24c-4.89-.57-9.82-.59-14.71-.05l-3.67,3.22c3.58-.63,7.2-.96,10.82-.96Z" style="fill: #fff; stroke-width: 0px;"/>
    <path d="M113.52,331.69c-11.76-11.76-18.23-27.39-18.23-44.01s6.47-32.25,18.23-44.01c3.65-3.65,6.79-7.66,9.43-11.94l-10.67,9.36c-.22.23-.43.46-.65.69-12.26,12.26-19.01,28.56-19.01,45.9s6.75,33.64,19.01,45.9c3.79,3.79,7.02,7.99,9.68,12.49h3.07c-2.9-5.21-6.53-10.05-10.86-14.38Z" style="fill: #076a95; stroke-width: 0px;"/>
    <path d="M457.74,241.78c-.24-.24-.46-.49-.69-.73l-10.67-9.38c2.65,4.31,5.81,8.34,9.47,12,24.27,24.27,24.27,63.75,0,88.02-4.33,4.33-7.96,9.17-10.86,14.38h3.07c2.65-4.5,5.89-8.7,9.68-12.49,25.31-25.31,25.31-66.49,0-91.8ZM456.8,332.64h.01-.01Z" style="fill: #076a95; stroke-width: 0px;"/>
    <path d="M273.58,476.04l3.68,3.24c2.47.28,4.95.44,7.43.44s4.96-.16,7.43-.44l3.68-3.24c-7.34,1.32-14.88,1.32-22.22,0Z" style="fill: #fff; stroke-width: 0px;"/>
  </g>
  <path d="M483.57,287.68l-49.58,43.58h4.05l48.44-42.58c.29-.25.45-.62.45-1s-.17-.75-.45-1l-35.16-30.91h-4.05l36.31,31.91Z" style="fill: none; stroke-width: 0px;"/>
  <path d="M122.11,255.77h-4.05l-35.16,30.91c-.29.25-.45.62-.45,1s.17.75.45,1l48.44,42.58h4.05l-49.58-43.58,36.31-31.91Z" style="fill: none; stroke-width: 0px;"/>
  <path d="M82.44,287.68c0-.38.17-.75.45-1l35.16-30.91h-55.72v75.49h69l-48.44-42.58c-.29-.25-.45-.62-.45-1Z" style="fill: none; stroke-width: 0px;"/>
  <polygon points="284.69 112.87 125.44 252.84 443.93 252.84 284.69 112.87" style="fill: none; stroke-width: 0px;"/>
  <polygon points="384.32 345.65 183.98 345.65 183.98 334.19 138.71 334.19 284.69 462.49 430.66 334.19 384.32 334.19 384.32 345.65" style="fill: none; stroke-width: 0px;"/>
  <path d="M515,252.84h-67.02l-162.41-142.75c-.5-.44-1.26-.44-1.76,0L121.39,252.84h-60.39c-.74,0-1.34.66-1.34,1.46v78.42c0,.81.6,1.46,1.34,1.46h73.67l149.14,131.09c.25.22.57.33.88.33s.63-.11.88-.33l149.14-131.09h80.29c.74,0,1.34-.66,1.34-1.46v-78.42c0-.81-.6-1.46-1.34-1.46ZM284.69,112.87l159.25,139.97H125.44l159.25-139.97ZM513.66,331.26h-129.34v2.93h46.34l-145.97,128.3-145.97-128.3h45.26v-2.93H62.34v-75.49h451.33v75.49Z" style="fill: #bf986b; stroke-width: 0px;"/>
  <path d="M380.53,353.26h-190.49c-.74,0-1.34-.6-1.34-1.34s.6-1.34,1.34-1.34h190.49c.74,0,1.34.6,1.34,1.34s-.6,1.34-1.34,1.34Z" style="fill: #bf986b; stroke-width: 0px;"/>
  <g>
    <polygon points="197.09 324.25 202.66 324.25 202.66 335.13 204.91 335.13 204.91 324.25 210.48 324.25 210.48 322.15 197.09 322.15 197.09 324.25" style="fill: #fff; stroke-width: 0px;"/>
    <path d="M231.03,332.73l-.47.24c-.31.16-.9.45-1.91.45-1.08,0-1.95-.19-4.23-2.62h.82c3.06,0,4.96-1.69,4.96-4.4s-1.9-4.45-4.96-4.45h-8.49v13.17h2.25v-4.33h2.47c3.49,3.98,5.09,4.7,7.15,4.73,1.61,0,2.48-.43,3-.76l.42-.26-.7-1.33-.3-.44ZM218.99,324.06h6.15c.84,0,2.81.23,2.81,2.34,0,2-1.76,2.29-2.81,2.29h-6.15v-4.63Z" style="fill: #fff; stroke-width: 0px;"/>
    <path d="M243.43,322.1l-5.82,13.03h2.34l.82-1.78h9.42l.82,1.78h2.34l-5.82-13.03h-4.11ZM246.21,324.25l3.06,7h-7.55l3.04-7h1.45Z" style="fill: #fff; stroke-width: 0px;"/>
    <polygon points="264.77 332.51 263.4 332.51 259.35 321.96 256.98 321.96 261.92 334.66 266.26 334.66 271.19 321.96 268.82 321.96 264.77 332.51" style="fill: #fff; stroke-width: 0px;"/>
    <polygon points="278.33 335.08 290.17 335.13 290.17 333.03 280.57 332.98 280.57 329.49 288.76 329.49 288.76 327.39 280.57 327.39 280.57 324.06 290.17 324.06 290.17 321.96 278.33 321.96 278.33 335.08" style="fill: #fff; stroke-width: 0px;"/>
    <polygon points="299.64 321.96 297.39 321.96 297.39 334.94 308.76 334.94 308.76 332.84 299.64 332.84 299.64 321.96" style="fill: #fff; stroke-width: 0px;"/>
    <polygon points="325.95 321.96 323.71 321.96 323.71 334.94 335.08 334.94 335.08 332.84 325.95 332.84 325.95 321.96" style="fill: #fff; stroke-width: 0px;"/>
    <polygon points="337.74 324.25 343.31 324.25 343.31 335.13 345.55 335.13 345.55 324.25 351.12 324.25 351.12 322.15 337.74 322.15 337.74 324.25" style="fill: #fff; stroke-width: 0px;"/>
    <path d="M363.87,322h-6.46v13.08h6.46c4.23,0,6.76-2.44,6.76-6.53s-2.53-6.55-6.76-6.55ZM359.66,324.11h4.21c2.91,0,4.52,1.58,4.52,4.45s-1.6,4.42-4.52,4.42h-4.21v-8.87Z" style="fill: #fff; stroke-width: 0px;"/>
    <rect x="375.96" y="333.07" width="2.25" height="2.32" style="fill: #fff; stroke-width: 0px;"/>
  </g>
  <path d="M206.56,252.95s57.22-24.9,82.94-21.33c12.3,1.71,29.17,16.37,41.6,18.97,12.43,2.6,7.93,3.65,17.32,0,9.39-3.65,24.56,2.36,24.56,2.36" style="fill: #f3e2bf; stroke-width: 0px;"/>
  <path d="M350.19,218.99c2.33,0,4.51.46,6.44,1.28,1.92-.82,4.11-1.28,6.44-1.28,4.37,0,8.26,1.63,10.78,4.18-3.07-1.21-6.78-1.92-10.78-1.92-1.42,0-2.8.09-4.13.26.75.49,1.43,1.05,2.04,1.67-1.34-.53-2.8-.96-4.34-1.28-1.55.32-3.01.75-4.35,1.28.6-.61,1.29-1.17,2.04-1.67-1.33-.17-2.71-.26-4.13-.26-4,0-7.71.71-10.78,1.92,2.53-2.55,6.42-4.18,10.78-4.18" style="fill: #f3e2bf; fill-rule: evenodd; stroke-width: 0px;"/>
  <path d="M359.07,207.52c1.23,0,2.38.24,3.4.68,1.01-.43,2.17-.68,3.4-.68,2.3,0,4.36.86,5.69,2.21-1.62-.64-3.58-1.02-5.69-1.02-.75,0-1.48.05-2.18.14.4.26.76.56,1.08.88-.71-.28-1.48-.51-2.29-.68-.82.17-1.59.4-2.3.68.32-.32.68-.62,1.08-.88-.7-.09-1.43-.14-2.18-.14-2.11,0-4.07.38-5.69,1.02,1.33-1.35,3.39-2.21,5.69-2.21" style="fill: #f3e2bf; fill-rule: evenodd; stroke-width: 0px;"/>
  <g>
    <path d="M94.35,291.74c-3.46-.56-6.84-1.32-6.84-3.88,0-.86,0-3.47,6.1-3.47,3.57,0,5.88,1.19,6.5,1.56l.94.56,2.03-3.6-.94-.53c-2.43-1.37-5.31-2.06-8.58-2.06-6.45,0-10.31,2.84-10.31,7.59,0,6.35,7.23,7.43,10.32,7.89,4.68.69,6.34,1.7,6.34,3.83,0,3.2-3.2,3.87-5.88,3.87-3.37,0-6.74-1.4-8.04-2.14l-1.01-.57-1.75,3.69.87.49c2.18,1.25,6.25,2.59,10.03,2.59,6.1,0,10.04-3.1,10.04-7.9,0-6.37-6.89-7.46-9.83-7.93Z" style="fill: #fff; stroke-width: 0px;"/>
    <path d="M122.75,281.71l-10.93,24.5h4.53l1.53-3.32h17.52l1.53,3.32h4.53l-10.93-24.5h-7.78ZM119.7,298.82l5.63-12.94h2.61l5.66,12.94h-13.9Z" style="fill: #fff; stroke-width: 0px;"/>
    <polygon points="171.76 299.42 155.82 281.45 151.94 281.45 151.94 306.22 156.28 306.22 156.28 288.53 172.13 306.22 176.1 306.22 176.1 281.45 171.76 281.45 171.76 299.42" style="fill: #fff; stroke-width: 0px;"/>
    <path d="M200.53,281.54h-12.14v24.59h12.14c7.96,0,12.71-4.59,12.71-12.27s-4.75-12.32-12.71-12.32ZM200.53,302.05h-7.8v-16.44h7.8c5.4,0,8.37,2.93,8.37,8.24s-2.97,8.2-8.37,8.2Z" style="fill: #fff; stroke-width: 0px;"/>
    <path d="M249.22,281.54h-12.14v24.59h12.14c7.96,0,12.71-4.59,12.71-12.27s-4.75-12.32-12.71-12.32ZM241.41,285.61h7.8c5.4,0,8.37,2.93,8.37,8.24s-2.97,8.2-8.37,8.2h-7.8v-16.44Z" style="fill: #fff; stroke-width: 0px;"/>
    <rect x="272.2" y="281.45" width="4.34" height="24.77" style="fill: #fff; stroke-width: 0px;"/>
    <path d="M297.08,281.71l-10.93,24.5h4.53l1.53-3.32h17.52l1.53,3.32h4.53l-10.93-24.5h-7.78ZM294.04,298.82l5.63-12.94h2.61l5.66,12.94h-13.9Z" style="fill: #fff; stroke-width: 0px;"/>
    <polygon points="354.06 281.28 353.95 281.45 351.34 281.45 341.26 297.48 331.14 281.45 328.52 281.45 328.42 281.29 328.42 281.45 326.23 281.45 326.23 306.22 330.57 306.22 330.57 288.58 341.26 305.11 351.91 288.59 351.91 306.22 356.25 306.22 356.25 281.45 354.06 281.45 354.06 281.28" style="fill: #fff; stroke-width: 0px;"/>
    <path d="M380.55,280.44c-8.34,0-13.94,5.37-13.94,13.37s5.6,13.37,13.94,13.37,13.94-5.37,13.94-13.37-5.6-13.37-13.94-13.37ZM380.55,303.1c-5.97,0-9.69-3.56-9.69-9.29s3.71-9.29,9.69-9.29,9.68,3.56,9.68,9.29-3.71,9.29-9.68,9.29Z" style="fill: #fff; stroke-width: 0px;"/>
    <polygon points="424.66 299.42 408.72 281.45 404.85 281.45 404.85 306.22 409.18 306.22 409.18 288.53 425.04 306.22 429 306.22 429 281.45 424.66 281.45 424.66 299.42" style="fill: #fff; stroke-width: 0px;"/>
    <path d="M453.43,281.54h-12.14v24.59h12.14c7.96,0,12.71-4.59,12.71-12.27s-4.75-12.32-12.71-12.32ZM453.43,302.05h-7.8v-16.44h7.8c5.4,0,8.37,2.93,8.37,8.24s-2.97,8.2-8.37,8.2Z" style="fill: #fff; stroke-width: 0px;"/>
    <path d="M486.06,291.74c-3.46-.56-6.84-1.32-6.84-3.88,0-.86,0-3.47,6.1-3.47,3.57,0,5.88,1.19,6.5,1.56l.94.56,2.03-3.6-.94-.53c-2.43-1.37-5.31-2.06-8.58-2.06-6.45,0-10.31,2.84-10.31,7.59,0,6.35,7.23,7.43,10.32,7.89,4.68.69,6.34,1.7,6.34,3.83,0,3.2-3.2,3.87-5.88,3.87-3.37,0-6.74-1.4-8.05-2.14l-1.01-.57-1.75,3.69.87.49c2.18,1.25,6.25,2.59,10.02,2.59,6.1,0,10.04-3.1,10.04-7.9,0-6.37-6.89-7.46-9.83-7.93Z" style="fill: #fff; stroke-width: 0px;"/>
  </g>
  <g>
    <path d="M312.19,391.28s-.03-.07-.09-.17c-.02-.03-.04-.05-.06-.07l-.29.24h0s.22-.31.22-.31l-.25.28h0l.16-.34c-.31-.28-2.23-2.71-4.42-5.59l-8.04-4.38c-.13-.07-.27-.1-.41-.1h-33.23c-.14,0-.29.04-.41.1l-7.83,4.2-.25.22c-2.09,2.76-3.97,5.15-4.35,5.52l-.03.03s-.04.03-.08.06c-.02.02-.05.04-.1.11l-.06.09s-.04.07-.05.1l-.04.09c-.15.49-.09.57,1.43,2.63.79,1.07,1.93,2.6,3.47,4.65,2.87,3.81,6.71,8.87,10.43,13.77l.27.36c5.02,6.61,10.7,14.09,12.7,16.83.39.53.64.88.69.97.02.05.04.09.08.16,0,0,0,0,0,0l.09.12s.01.01.02.02l.05.05s.07.05.12.08c.05.03.1.05.16.07.04.01.09.02.12.03h.15s.24-.02.24-.02l.13-.05s.07-.03.11-.06c.04-.03.08-.06.1-.08l.14-.11v-.05s.01-.02.02-.03c.02-.04.05-.09.05-.09.08-.13.33-.48.72-1.02,2.07-2.84,8.11-10.79,12.97-17.18,3.72-4.9,7.56-9.96,10.43-13.77,1.55-2.06,2.69-3.58,3.47-4.65,1.52-2.06,1.58-2.14,1.43-2.63l-.03-.08ZM311.86,391.47h0s0,0,0,0ZM308.97,393.51c-2.79,3.77-8.67,11.51-13.48,17.84l-.22.28c-3.02,3.97-5.88,7.75-8.23,10.85l10.76-24.52,11.16-4.46ZM267.01,397.98l10.76,24.52c-2.4-3.18-5.35-7.06-8.45-11.14l-.29-.39c-4.95-6.52-10.5-13.82-13.18-17.45l11.16,4.46ZM269.03,391.46l-1.86,4.7-12.25-4.9c.72-.87,1.83-2.29,3.37-4.32l10.74,4.51ZM294.07,391.86l1.8,4.57c-4.91.02-22.02.02-26.93,0l1.8-4.57h23.32ZM275.22,398.2c1.42,0,2.65,0,3.69,0h1.53c.75,0,1.34,0,1.74-.01h.23s.25,0,.25,0c.4,0,.98,0,1.73.01h1.53c1.03,0,2.27,0,3.69,0,2.38,0,4.77-.02,6.22-.02l-13.39,30.5h0s-.02.03-.02.03l-13.4-30.53c1.44,0,3.84.02,6.22.02ZM294.48,390.11h-24.15l-10.3-4.33,5.98-3.2h32.79l5.98,3.2-10.3,4.33ZM309.89,391.26l-12.25,4.9-1.86-4.7,10.74-4.51c1.54,2.03,2.65,3.45,3.37,4.32ZM282.37,430.74s0,0,0,0h0s0,0,0,0Z" style="fill: #f2d4b2; stroke-width: 0px;"/>
    <rect x="316.14" y="390.77" width="10.4" height="1.51" style="fill: #f2d4b2; stroke-width: 0px;"/>
    <rect x="314.8" y="382.4" width="7.24" height="1.51" transform="translate(-111.84 132.01) rotate(-20)" style="fill: #f2d4b2; stroke-width: 0px;"/>
    <rect x="317.66" y="396.27" width="1.51" height="7.26" transform="translate(-166.28 562.34) rotate(-70)" style="fill: #f2d4b2; stroke-width: 0px;"/>
    <rect x="236.9" y="391.54" width="10.4" height="1.51" style="fill: #f2d4b2; stroke-width: 0px;"/>
    <rect x="241.4" y="399.91" width="7.24" height="1.51" transform="translate(-122.25 107.95) rotate(-20)" style="fill: #f2d4b2; stroke-width: 0px;"/>
    <rect x="244.27" y="380.29" width="1.51" height="7.26" transform="translate(-199.54 482.86) rotate(-70)" style="fill: #f2d4b2; stroke-width: 0px;"/>
  </g>
  <path d="M295.6,179.22c-2.74-13.86-18.62-22.23-34.31-13.05,0,0,7.46-10.32,27.85-10.7,0,0-15.16-8.89-27.27.04,0,0,5.12-11.76,15.83-13.32-7.87-2.79-22.5-3.82-31.15,13.12,0,0-3.34-11.21-24.28-8.73,0,0,4.24,2.91,7.44,10.43-5.83-.53-20.66.06-24.6,19.01,0,0,4.15-3.01,11.43-3.4,9.12-1.97,19.04,1.68,19.04,1.68-17.12-2.91-30.93,6.74-28.3,25.82,0,0,8.86-14.25,21.72-13.1-4.94,2.23-14.53,17.3-4.55,35.54,0,0,5.73-18.19,18.13-23.19,0,0-.3,25.7,1.08,53.58h2.86c-.9-18.98-.8-32.71-.8-32.71l2.29.39c.64,8.79,2.09,18.92,3.82,29-.05-.32.22,1.08.66,3.31h4.98c-2.46-15.85-4.3-32.69-3.61-44.94,0,0,3.04-4.39,4.44-8.65,0,0,6.95,9.64,3.45,21.97,14.68-9.09,12.76-32.25-1.44-41.12,0,0,5.28,1.59,9.47,5.97,4.24,1.75,10.62,5.58,12.88,13.26,5.58-12.44-2.51-24.66-15.34-27.11,0,0,18.48-4.7,28.26,6.89ZM226.23,147.02c13.54.68,18.65,10.76,18.65,10.76-3.25-2.54-6.5-4.81-10.31-6.45,6.93,5.28,7.61,10.95,7.61,10.95-2.78-2.98-7.54-5.06-7.54-5.06-2.15-4.93-8.41-10.2-8.41-10.2ZM224.1,184.93c1.31-1.8,4.13-3.68,4.13-3.68-8.96,2.15-18.68,11.79-18.68,11.79,2.07-14.29,11.71-14.54,11.71-14.54-5.38,2.96-7.62,9.19-7.62,9.19,9.55-12.01,23.63-10.38,27.3-9.71-.79,1.79-1.11,3.48-1.23,4.53-2.57-.1-6.61.06-6.61.06.84-.54,2.64-2,2.64-2-5.59.74-11.63,4.36-11.63,4.36ZM224.99,213.39c-3.21-10.61.19-25.18,14.61-28.67l.87,2.34s-10.6,6.25-13.51,13.49c2.62-3.28,10.09-11.83,14.11-5.98,0,0-13.92,5.16-16.07,18.82ZM241.07,173.55l-4.74-2.45,3.05-2.38c-3.22.18-6.52,2.01-6.52,2.01l-5.53-.65c2.64-2.91,6.66-4.11,6.66-4.11-5.57.12-10.57,3.79-10.57,3.79l-4.71-.32c2.08-2.88,8.07-5.15,8.07-5.15-8.22.84-12.77,5.68-12.77,5.68h-4.26c3.03-4.85,13.19-11,22.58-8.74,9.39,2.25,12.89,7.72,12.89,7.72-1.96.21-4.15,4.59-4.15,4.59ZM255.65,186.41c-.41-7.19-2.23-8.87-2.23-8.87,3.23,19.93-7.23,36.86-7.23,36.86-1.61-7-.53-12.7,1.16-18.29-2.62,1.55-3.7,3.67-3.7,3.67-.58-11.63,3.82-20.52,3.82-20.52-3.68,2.05-4.84,5.03-4.84,5.03-.28-10.27,4.86-17.67,10.47-13.32,5.61,4.35,2.54,15.43,2.54,15.43ZM252.67,165.76c.55-7.61,3.71-13.87,3.71-13.87-5.15,6.04-5.74,14.61-5.74,14.61-2.59-.33-4.32-.27-4.32-.27,3.02-20.06,20.4-23.09,20.4-23.09-3.2,1.84-5.87,6.24-5.87,6.24l2.43.22c-4.35,2.49-7.42,8.89-7.42,8.89l2.64.24c-3.41,2.27-5.81,7.03-5.81,7.03ZM260.33,188.35c.19-1.61.36-3.55.35-4.41,12.28,8.19,10.52,23,3.91,31.86,1.78-9.23-2.9-16.62-6.07-20.4.5-1.18.73-1.8,1.02-2.94,4.07,2.94,6.53,7.57,7.56,10.6-.37-7.86-4.48-11.53-6.77-14.71ZM259.92,162.93c5.5-11.07,19.96-9.12,19.96-9.12-9.06,1.9-12.56,3.58-19.96,9.12ZM278.94,188.06s-.32-5.07-3.65-8.4c0,0,7.05,2.25,5.52,13.21,0,0-5.1-9.17-11.23-12.67,0,0,1.67,1.99,2.25,3.59,0,0-3.67-3.96-7.63-5.7,0,0,1.01,1.46,1.51,2.04,0,0-2.95-.98-4.86-1.45.13-.8.26-2.12.06-3.6,2.84.29,13.56,2.1,18.02,12.98ZM262.76,170.24l-1.33-1.44c13.56-9.97,26.53,1.38,26.53,1.38-4.57-2.17-12.05-4.32-16.81-2.98,2.73.75,4.39,1.93,4.39,1.93-6.95-1.13-12.78,1.09-12.78,1.09Z" style="fill: #076a95; stroke-width: 0px;"/>
  <path d="M253.11,170.98c-5.61-4.35-10.75,3.05-10.47,13.32,0,0,1.16-2.99,4.84-5.03,0,0-4.4,8.88-3.82,20.52,0,0,1.09-2.12,3.7-3.67-1.7,5.59-2.77,11.29-1.16,18.29,0,0,10.46-16.93,7.23-36.86,0,0,1.82,1.67,2.23,8.87,0,0,3.06-11.08-2.54-15.43Z" style="fill: #f3e2bf; stroke-width: 0px;"/>
  <path d="M226.96,200.56c2.91-7.24,13.51-13.49,13.51-13.49l-.87-2.34c-14.42,3.49-17.82,18.06-14.61,28.67,2.16-13.66,16.07-18.82,16.07-18.82-4.01-5.85-11.48,2.7-14.11,5.98Z" style="fill: #f3e2bf; stroke-width: 0px;"/>
  <path d="M259.54,192.47c-.3,1.14-.53,1.76-1.02,2.94,3.17,3.78,7.85,11.16,6.07,20.4,6.61-8.87,8.37-23.67-3.91-31.86,0,.86-.16,2.8-.35,4.41,2.29,3.19,6.4,6.86,6.77,14.71-1.03-3.03-3.49-7.66-7.56-10.6Z" style="fill: #f3e2bf; stroke-width: 0px;"/>
  <path d="M263.27,149.59l-2.43-.22s2.67-4.4,5.87-6.24c0,0-17.38,3.04-20.4,23.09,0,0,1.73-.06,4.32.27,0,0,.6-8.57,5.74-14.61,0,0-3.16,6.26-3.71,13.87,0,0,2.4-4.76,5.81-7.03l-2.64-.24s3.08-6.4,7.42-8.89Z" style="fill: #f3e2bf; stroke-width: 0px;"/>
  <path d="M245.22,168.96s-3.5-5.47-12.89-7.72c-9.39-2.25-19.55,3.89-22.58,8.74h4.26s4.55-4.84,12.77-5.68c0,0-5.98,2.27-8.07,5.15l4.71.32s5-3.67,10.57-3.79c0,0-4.02,1.19-6.66,4.11l5.53.65s3.3-1.83,6.52-2.01l-3.05,2.38,4.74,2.45s2.19-4.38,4.15-4.59Z" style="fill: #f3e2bf; stroke-width: 0px;"/>
  <path d="M251.85,249.64c-1.73-10.08-3.18-20.22-3.82-29l-2.29-.39s-.1,13.73.8,32.71h5.98c-.44-2.23-.71-3.63-.66-3.31Z" style="fill: #f3e2bf; stroke-width: 0px;"/>
  <path d="M242.18,162.27s-.68-5.67-7.61-10.95c3.8,1.64,7.06,3.91,10.31,6.45,0,0-5.11-10.07-18.65-10.76,0,0,6.26,5.27,8.41,10.2,0,0,4.76,2.08,7.54,5.06Z" style="fill: #f3e2bf; stroke-width: 0px;"/>
  <path d="M233.1,182.57s4.05-.16,6.61-.06c.13-1.05.44-2.74,1.23-4.53-3.66-.67-17.75-2.3-27.3,9.71,0,0,2.25-6.24,7.62-9.19,0,0-9.65.25-11.71,14.54,0,0,9.72-9.64,18.68-11.79,0,0-2.82,1.88-4.13,3.68,0,0,6.04-3.63,11.63-4.36,0,0-1.79,1.46-2.64,2Z" style="fill: #f3e2bf; stroke-width: 0px;"/>
  <path d="M260.85,178.69c1.91.47,4.86,1.45,4.86,1.45-.51-.58-1.51-2.04-1.51-2.04,3.96,1.74,7.63,5.7,7.63,5.7-.58-1.6-2.25-3.59-2.25-3.59,6.13,3.5,11.23,12.67,11.23,12.67,1.53-10.96-5.52-13.21-5.52-13.21,3.33,3.32,3.65,8.4,3.65,8.4-4.47-10.88-15.18-12.69-18.02-12.98.2,1.49.07,2.8-.06,3.6Z" style="fill: #f3e2bf; stroke-width: 0px;"/>
  <path d="M287.97,170.19s-12.97-11.36-26.53-1.38l1.33,1.44s5.83-2.22,12.78-1.09c0,0-1.67-1.18-4.39-1.93,4.76-1.35,12.24.8,16.81,2.98Z" style="fill: #f3e2bf; stroke-width: 0px;"/>
  <path d="M259.92,162.93c7.4-5.54,10.9-7.23,19.96-9.12,0,0-14.46-1.94-19.96,9.12Z" style="fill: #f3e2bf; stroke-width: 0px;"/>
  <path d="M323.63,190.81s6.06-5.26,18.61-2.57c0,0-8.02-7.63-16.73-3.88,0,0,4.83-6.48,11.62-5.9-4.43-2.84-13.25-5.57-20.98,3.58,0,0-2.88-10.62-16.42-9.99,0,0,4.96,3.55,5.85,8.62-3.5-1.16-12.68-2.92-17.81,8.13,0,0,2.97-1.25,7.5-.45,5.87.1,11.44,3.76,11.44,3.76-10.09-4.24-19.93-.3-21.06,11.78,0,0,7.47-7.47,15.2-4.92-3.35.66-11.39,8.53-7.88,21.15,0,0,6.12-10.33,14.45-11.62,0,0-5.75,23.35-8.93,44.46h1.78c2.7-17.19,6.09-31.21,6.09-31.21l1.35.57c-.87,5.48-1.43,11.9-1.82,18.33.04-.58-.28,7.77-.46,12.3h2.85c.61-12.36,1.93-27.73,4.81-37.54,0,0,2.49-2.26,3.96-4.67,0,0,2.88,6.91-1.03,13.97,10.31-3.47,12.45-17.95,5.01-25.42,0,0,3.01,1.73,4.95,5.02,2.35,1.68,5.71,4.94,6,9.98,5.21-6.83,2-15.48-5.52-18.83,0,0,12-.23,16.34,8.28.31-8.89-8.23-16.3-19.17-12.92ZM336.8,185.89c-5.83-.14-8.22.4-13.55,2.73,4.96-6,13.55-2.73,13.55-2.73ZM304.87,174.04c8.2,2.36,9.89,9.27,9.89,9.27-1.63-2.02-3.3-3.88-5.4-5.43,3.49,4.23,3.1,7.81,3.1,7.81-1.28-2.23-3.9-4.18-3.9-4.18-.61-3.33-3.7-7.46-3.7-7.46ZM305.54,189.54l-3.3-1.19c2.04-1.41,4.67-1.56,4.67-1.56-3.43-.72-7.03.81-7.03.81l-2.84-.87c1.69-1.47,5.68-2,5.68-2-5.16-.66-8.65,1.65-8.65,1.65l-2.61-.61c2.55-2.54,9.67-4.85,15.1-2.12,5.44,2.73,6.8,6.58,6.8,6.58-1.23-.15-3.2,2.22-3.2,2.22l-2.56-2.18,2.21-1.02c-2-.35-4.29.3-4.29.3ZM298.13,196.99c1.06-.92,3.06-1.67,3.06-1.67-5.8.04-13.14,4.55-13.14,4.55,3.32-8.47,9.27-7.24,9.27-7.24-3.72,1.04-5.99,4.55-5.99,4.55,7.58-5.99,15.98-2.98,18.13-2.04-.74.98-1.18,1.98-1.41,2.6-1.56-.43-4.06-.91-4.06-.91.59-.21,1.9-.85,1.9-.85-3.53-.35-7.76,1.01-7.76,1.01ZM307.15,205.33s-9.27,1.17-12.55,9.24c-.45-6.97,3.73-15.42,13.07-15.49l.2,1.56s-7.4,2.32-10.22,6.34c2.08-1.64,7.89-5.81,9.51-1.65ZM317.17,196.66c-.88,12.69-9.72,21.57-9.72,21.57.02-4.52,1.49-7.87,3.34-11.05-1.83.58-2.8,1.72-2.8,1.72,1.31-7.22,5.29-12.03,5.29-12.03-2.55.73-3.69,2.39-3.69,2.39,1.3-6.34,5.52-10.14,8.33-6.67,2.81,3.47-.65,9.83-.65,9.83.78-4.47-.1-5.76-.1-5.76ZM318.53,221.72c2.41-5.41.6-10.61-.8-13.38.47-.65.7-1,1.05-1.66,2.08,2.38,2.92,5.58,3.12,7.58.9-4.87-1.09-7.71-2.04-9.99.35-.96.73-2.12.85-2.65,6.36,6.78,3.15,15.61-2.17,20.1ZM318.4,189.32c1.43-4.59,4.26-7.97,4.26-7.97-4.02,2.96-5.62,8.14-5.62,8.14-1.54-.57-2.61-.79-2.61-.79,4.73-11.87,15.82-11.24,15.82-11.24-2.23.67-4.49,2.99-4.49,2.99l1.46.48c-3.02.9-5.83,4.39-5.83,4.39l1.58.53c-2.42.9-4.57,3.48-4.57,3.48ZM331.31,206.77s.53-3.16-1.03-5.67c0,0,4,2.39,1.49,8.89,0,0-1.81-6.35-5.07-9.38,0,0,.74,1.46.87,2.53,0,0-1.68-2.95-3.86-4.59,0,0,.41,1.04.64,1.47,0,0-1.67-1.02-2.77-1.59.2-.47.46-1.26.55-2.2,1.7.59,8.01,3.23,9.19,10.54ZM331.94,194.68c-4.1-1.69-8-1.16-8-1.16l-.61-1.07c9.75-4.17,16.07,4.65,16.07,4.65-2.49-1.99-6.77-4.38-9.89-4.24,1.56.85,2.42,1.82,2.42,1.82Z" style="fill: #076a95; stroke-width: 0px;"/>
  <path d="M317.92,192.59c-2.81-3.47-7.03.33-8.33,6.67,0,0,1.14-1.66,3.69-2.39,0,0-3.97,4.82-5.29,12.03,0,0,.97-1.14,2.8-1.72-1.84,3.18-3.32,6.53-3.34,11.05,0,0,8.84-8.88,9.72-21.57,0,0,.88,1.29.1,5.76,0,0,3.47-6.36.65-9.83Z" style="fill: #f3e2bf; stroke-width: 0px;"/>
  <path d="M307.86,200.64l-.2-1.56c-9.34.07-13.52,8.52-13.07,15.49,3.28-8.07,12.55-9.24,12.55-9.24-1.62-4.16-7.43,0-9.51,1.65,2.82-4.02,10.22-6.34,10.22-6.34Z" style="fill: #f3e2bf; stroke-width: 0px;"/>
  <path d="M319.86,204.28c.95,2.28,2.94,5.12,2.04,9.99-.2-2-1.04-5.2-3.12-7.58-.34.66-.58,1-1.05,1.66,1.4,2.77,3.21,7.97.8,13.38,5.32-4.49,8.53-13.32,2.17-20.1-.12.53-.5,1.69-.85,2.65Z" style="fill: #f3e2bf; stroke-width: 0px;"/>
  <path d="M321.39,185.32s2.8-3.49,5.83-4.39l-1.46-.48s2.27-2.32,4.49-2.99c0,0-11.09-.63-15.82,11.24,0,0,1.07.21,2.61.79,0,0,1.6-5.17,5.62-8.14,0,0-2.83,3.39-4.26,7.97,0,0,2.15-2.58,4.57-3.48l-1.58-.53Z" style="fill: #f3e2bf; stroke-width: 0px;"/>
  <path d="M309.82,189.24l-2.21,1.02,2.56,2.18s1.97-2.37,3.2-2.22c0,0-1.36-3.86-6.8-6.58-5.44-2.73-12.55-.42-15.1,2.12l2.61.61s3.49-2.31,8.65-1.65c0,0-3.99.53-5.68,2l2.84.87s3.59-1.53,7.03-.81c0,0-2.64.16-4.67,1.56l3.3,1.19s2.28-.65,4.29-.3Z" style="fill: #f3e2bf; stroke-width: 0px;"/>
  <path d="M305.87,240.65c.38-6.43.95-12.86,1.82-18.33l-1.35-.57s-3.39,14.02-6.09,31.21h5.17c.17-4.54.49-12.89.46-12.3Z" style="fill: #f3e2bf; stroke-width: 0px;"/>
  <path d="M312.47,185.68s.39-3.57-3.1-7.81c2.1,1.55,3.77,3.41,5.4,5.43,0,0-1.69-6.91-9.89-9.27,0,0,3.08,4.13,3.7,7.46,0,0,2.62,1.96,3.9,4.18Z" style="fill: #f3e2bf; stroke-width: 0px;"/>
  <path d="M305.89,195.98s-1.31.64-1.9.85c0,0,2.5.48,4.06.91.23-.63.67-1.62,1.41-2.6-2.15-.93-10.55-3.95-18.13,2.04,0,0,2.27-3.5,5.99-4.55,0,0-5.95-1.23-9.27,7.24,0,0,7.34-4.52,13.14-4.55,0,0-2,.75-3.06,1.67,0,0,4.22-1.36,7.76-1.01Z" style="fill: #f3e2bf; stroke-width: 0px;"/>
  <path d="M321.56,198.42c1.1.56,2.77,1.59,2.77,1.59-.23-.43-.64-1.47-.64-1.47,2.18,1.63,3.86,4.59,3.86,4.59-.13-1.07-.87-2.53-.87-2.53,3.26,3.02,5.07,9.38,5.07,9.38,2.51-6.5-1.49-8.89-1.49-8.89,1.56,2.52,1.03,5.67,1.03,5.67-1.18-7.31-7.49-9.96-9.19-10.54-.09.94-.36,1.73-.55,2.2Z" style="fill: #f3e2bf; stroke-width: 0px;"/>
  <path d="M323.34,192.44l.61,1.07s3.89-.53,8,1.16c0,0-.85-.96-2.42-1.82,3.12-.14,7.39,2.25,9.89,4.24,0,0-6.33-8.82-16.07-4.65Z" style="fill: #f3e2bf; stroke-width: 0px;"/>
  <path d="M323.25,188.62c5.33-2.34,7.72-2.87,13.55-2.73,0,0-8.59-3.26-13.55,2.73Z" style="fill: #f3e2bf; stroke-width: 0px;"/>
</svg>