<?xml version="1.0" encoding="UTF-8"?>
<svg xmlns="http://www.w3.org/2000/svg" viewBox="0 0 576 576">
  <g id="Do_Not_Print" data-name="Do Not Print">
    <rect x="-2.9" y="-2.9" width="581.8" height="581.8" style="fill: #1482a5; stroke-width: 0px;"/>
  </g>
  <g id="Layer_1" data-name="Layer 1">
    <g>
      <path d="M228.04,435.91l-6.05-5.31c-30.09-13-55.26-35.28-71.91-63.21l-6.06-5.33c17.96,33.78,47.85,60.28,84.02,73.85Z" style="fill: #fff; stroke-width: 0px;"/>
      <path d="M345.26,143.44l7.09,6.24c24.06,12.04,44.57,30.15,59.49,52.33l7.08,6.23c-16.99-28.67-42.8-51.53-73.67-64.8Z" style="fill: #fff; stroke-width: 0px;"/>
      <path d="M227.05,141.08c-35.33,13.53-64.59,39.42-82.45,72.37l6.2-5.44c16.44-27.01,40.9-48.61,70.06-61.49l6.19-5.43Z" style="fill: #fff; stroke-width: 0px;"/>
      <path d="M419.75,367l-6.85,6.02c-15.38,23.46-36.95,42.52-62.38,54.83l-6.8,5.98c32.06-13.37,58.79-37.03,76.04-66.83Z" style="fill: #fff; stroke-width: 0px;"/>
      <path d="M438.57,386.7c.41-2.94.64-5.93.64-8.98,0-11.24,2.97-22.02,8.54-31.46h-3.07c-5.3,9.51-8.14,20.27-8.14,31.46,0,3.77-.36,7.47-1.01,11.06-3.07,1.97-6.34,3.72-9.83,5.16-15.99,6.62-28.44,19.07-35.06,35.06-1.43,3.46-3.17,6.74-5.14,9.83-3.6.65-7.29,1.01-11.07,1.01-17.3,0-33.57,6.74-45.81,18.97-2.67,2.67-5.54,5.03-8.54,7.12-3.23-.71-6.42-1.68-9.55-2.91l-2.26,1.99c.07.03.14.05.2.08,2.8,1.16,5.65,2.1,8.53,2.86-6.61,4.02-13.81,6.7-21.21,8.03-7.33,1.32-14.85,1.32-22.18,0-7.4-1.33-14.6-4.01-21.21-8.03,2.88-.75,5.73-1.7,8.53-2.86.07-.03.14-.05.2-.08l-2.26-1.99c-3.13,1.23-6.32,2.2-9.55,2.91-3-2.08-5.87-4.44-8.54-7.12-12.24-12.24-28.5-18.97-45.81-18.97-3.78,0-7.48-.36-11.07-1.01-1.98-3.09-3.71-6.37-5.14-9.83-6.62-15.99-19.07-28.44-35.06-35.06-3.49-1.44-6.76-3.19-9.83-5.16-.65-3.59-1.01-7.28-1.01-11.06,0-11.19-2.83-21.94-8.14-31.46h-3.07c5.56,9.44,8.54,20.22,8.54,31.46,0,3.05.23,6.04.64,8.98-13.4-9.79-22.14-24.47-24.69-40.44h-2.7c2.71,17.67,12.67,33.88,28.01,44.13,5.09,25.56,25.27,45.75,50.83,50.85,7.05,10.59,17.06,18.86,29.08,23.83,7.99,3.31,16.39,4.97,24.79,4.97,4.23,0,8.45-.42,12.63-1.26,8.7,5.8,18.5,9.27,28.52,10.41,2.46.28,4.94.44,7.42.44s4.95-.16,7.41-.44c10.02-1.14,19.82-4.61,28.52-10.41,12.47,2.5,25.4,1.27,37.41-3.71,12.01-4.98,22.03-13.25,29.08-23.83,25.55-5.1,45.72-25.27,50.82-50.82,10.59-7.05,18.86-17.06,23.83-29.08,2.03-4.9,3.43-9.96,4.22-15.08h-2.74c-2.55,15.96-11.29,30.64-24.69,40.44ZM134.62,392.38c2.56,1.5,5.24,2.86,8.05,4.02,15.33,6.35,27.27,18.29,33.62,33.62,1.16,2.8,2.51,5.48,4.01,8.05-22.49-5.47-40.22-23.2-45.68-45.69ZM212.36,462.61c-10.71-4.44-19.76-11.61-26.41-20.75,2.95.41,5.95.64,9.01.64,16.59,0,32.19,6.46,43.92,18.19,2.16,2.16,4.45,4.13,6.82,5.92-11.17,1.76-22.64.44-33.35-4ZM357.02,462.61c-10.71,4.44-22.18,5.76-33.35,4,2.37-1.79,4.66-3.76,6.82-5.92,11.73-11.73,27.33-18.19,43.92-18.19,3.06,0,6.06-.23,9.01-.64-6.65,9.14-15.7,16.32-26.41,20.75ZM389.09,438.06c1.5-2.57,2.85-5.25,4.01-8.05,6.35-15.33,18.29-27.27,33.62-33.62,2.8-1.16,5.48-2.51,8.05-4.01-5.47,22.48-23.19,40.21-45.68,45.68Z" style="fill: #fff; stroke-width: 0px;"/>
      <path d="M105.59,244.89c-1.88-21.51,7.66-42.76,25.24-55.61-.41,2.94-.64,5.93-.64,8.98,0,16.27-6.23,31.58-17.54,43.24l10.65-9.35c6.22-10.1,9.56-21.73,9.56-33.89,0-3.77.36-7.47,1.01-11.06,3.07-1.97,6.34-3.72,9.83-5.16,15.99-6.62,28.44-19.07,35.06-35.06,1.44-3.48,3.18-6.76,5.15-9.83,3.6-.65,7.29-1.01,11.07-1.01,17.3,0,33.57-6.74,45.81-18.97,2.67-2.67,5.53-5.03,8.53-7.11,3.26.71,6.51,1.69,9.71,2.96l2.26-1.99c-.12-.05-.24-.09-.35-.14-2.82-1.17-5.67-2.1-8.54-2.85,6.7-4.08,14-6.78,21.51-8.09,3.57-.63,7.18-.95,10.8-.95s7.52.35,11.23,1.03c7.36,1.34,14.51,4.02,21.08,8.02-2.87.75-5.72,1.68-8.54,2.85-.04.02-.09.03-.13.05l2.26,1.99c3.13-1.23,6.3-2.18,9.49-2.88,3,2.08,5.86,4.44,8.53,7.11,12.23,12.24,28.5,18.97,45.81,18.97,3.78,0,7.47.36,11.06,1.01,1.97,3.07,3.72,6.34,5.16,9.83,6.62,15.99,19.07,28.44,35.06,35.06,3.46,1.43,6.74,3.17,9.83,5.14.65,3.6,1.01,7.29,1.01,11.07,0,12.13,3.32,23.75,9.52,33.83l10.65,9.36c-11.28-11.65-17.5-26.94-17.5-43.19,0-3.06-.23-6.06-.64-9.01,9.14,6.65,16.32,15.7,20.75,26.41,3.89,9.4,5.39,19.38,4.51,29.23h2.68c.87-10.2-.69-20.52-4.72-30.25-4.98-12.01-13.25-22.03-23.83-29.08-5.1-25.56-25.29-45.73-50.85-50.83-14.49-21.68-40.87-32.6-66.44-27.52-8.67-5.79-18.43-9.25-28.41-10.41-4.88-.57-9.8-.59-14.68-.05-10.13,1.11-20.04,4.59-28.82,10.46-25.58-5.08-51.95,5.85-66.44,27.52-25.57,5.09-45.76,25.28-50.85,50.85-19.66,13.14-30.47,36.07-28.53,59.3h2.67ZM434.77,183.59c-2.57-1.5-5.25-2.85-8.05-4.01-15.33-6.35-27.27-18.29-33.62-33.62-1.17-2.82-2.52-5.5-4.02-8.05,22.49,5.46,40.22,23.19,45.69,45.68ZM383.4,134.12c-2.94-.41-5.93-.64-8.98-.64-16.59,0-32.19-6.46-43.92-18.19-2.16-2.16-4.43-4.11-6.8-5.9,22.87-3.56,46.04,6.04,59.7,24.73ZM236.22,108.64c3.15,0,6.31.25,9.48.74-2.37,1.79-4.65,3.75-6.8,5.9-11.73,11.73-27.33,18.19-43.92,18.19-3.05,0-6.05.23-8.99.64,11.77-16.11,30.61-25.48,50.24-25.48ZM180.31,137.91c-1.5,2.56-2.86,5.24-4.02,8.05-6.35,15.33-18.29,27.27-33.62,33.62-2.82,1.17-5.5,2.52-8.05,4.03,5.46-22.49,23.2-40.23,45.69-45.69Z" style="fill: #fff; stroke-width: 0px;"/>
      <path d="M514.54,253.22h-66.88l-14.14-12.43-3.98-3.5-114.48-100.62-3.98-3.5-17.59-15.46-2.68-2.36-5.24-4.6c-.5-.44-1.26-.44-1.76,0l-5.24,4.6-2.68,2.36-16.92,14.87-3.82,3.36-15.11,13.28c.91.45,1.71.95,2.39,1.45l17.71-15.57,3.63-3.19,15.71-13.81,2.84-2.5,2.36-2.07,2.36,2.07,2.84,2.5,16.24,14.27,3.75,3.3,121.32,106.63,3.76,3.3,8.65,7.61h-71.09c-2.09-.79-15.6-5.6-24.23-2.24-3.33,1.3-4.91,2-6.12,2.24h-2.05c-1.53-.29-3.73-1.12-9.12-2.24-6.52-1.36-14.27-6.05-21.93-10.44-.38,4.35-.66,8.67-.86,12.69,0,.04,0,.07,0,.11h-2.85s0-.07,0-.11c.17-4.55.49-12.75.45-12.17.05-.76.09-1.52.14-2.28.38-5.64.9-11.2,1.67-16.02l-1.35-.57s-1.46,6.02-3.22,15.01c-.92,4.68-1.92,10.17-2.84,16.02,0,.04-.01.07-.02.11h-1.78s.01-.07.02-.11c.85-5.64,1.88-11.43,2.94-16.89-4.21-2.13-8.26-3.78-11.9-4.29-8.88-1.23-21.51.93-34.24,4.29.63,5.59,1.41,11.3,2.28,16.88,0,.04.01.07.02.11h-4.97s-.01-.07-.02-.11c-.42-2.16-.69-3.51-.63-3.19-.71-4.1-1.36-8.21-1.94-12.24-.84-5.85-1.5-11.52-1.88-16.71l-2.29-.39s-.05,7.15.26,18.26c.12,4.24.29,9.06.53,14.27,0,.04,0,.07,0,.11h-2.85s0-.07,0-.11c-.23-4.56-.41-9.05-.55-13.39-18.19,5.71-34.09,12.47-36.23,13.39h-81.21l4.86-4.27,3.64-3.2,82.63-72.63c-.07.01-.14.02-.21.04-1.72.09-3.25.33-4.6.64l-76.34,67.1-3.82,3.36-10.2,8.97h-60.27c-.74,0-1.33.65-1.33,1.46v78.26c0,.81.6,1.46,1.33,1.46h73.52l.49.43,120.62,106.02,3.77,3.32,16.04,14.1,2.68,2.36,5.24,4.6c.25.22.57.33.88.33s.63-.11.88-.33l5.24-4.6,2.68-2.36,16.69-14.67,3.92-3.45,115.76-101.75,3.94-3.46.61-.53h80.13c.74,0,1.33-.65,1.33-1.46v-78.26c0-.81-.6-1.46-1.33-1.46ZM513.2,331.48h-129.08v2.92h46.25l-121.37,106.68-3.72,3.27-15.38,13.52-2.84,2.5-2.36,2.07-2.36-2.07-2.84-2.5-14.88-13.08-3.6-3.16-122-107.23h45.17v-2.92H62.8v-75.34h450.4v75.34Z" style="fill: #fff; stroke-width: 0px;"/>
      <path d="M380.34,350.77h-190.1c-.74,0-1.33.6-1.33,1.33s.6,1.33,1.33,1.33h190.1c.74,0,1.33-.6,1.33-1.33s-.6-1.33-1.33-1.33Z" style="fill: #fff; stroke-width: 0px;"/>
      <polygon points="205.21 335.48 205.21 324.62 210.77 324.62 210.77 322.25 197.14 322.25 197.14 324.62 202.7 324.62 202.7 335.48 205.21 335.48" style="fill: #fff; stroke-width: 0px;"/>
      <path d="M219.26,331.16h2.27c3.49,3.98,5.1,4.69,7.19,4.72h0c1.64,0,2.54-.45,3.07-.78l.53-.33-.76-1.45-.37-.54-.58.29c-.3.15-.87.44-1.84.44s-1.82-.17-3.91-2.35h.5c3.14,0,5.08-1.73,5.08-4.52s-1.95-4.57-5.08-4.57h-8.61v13.41h2.51v-4.32ZM219.26,324.43h6.01c.8,0,2.67.21,2.67,2.2,0,1.88-1.67,2.16-2.67,2.16h-6.01v-4.36Z" style="fill: #fff; stroke-width: 0px;"/>
      <path d="M243.44,322.21l-5.92,13.27h2.63l.82-1.78h9.23l.82,1.78h2.63l-5.92-13.27h-4.28ZM242.02,331.34l2.92-6.71h1.27l2.94,6.71h-7.13Z" style="fill: #fff; stroke-width: 0px;"/>
      <polygon points="256.85 322.06 261.84 334.93 261.88 335.01 266.39 335.01 271.42 322.06 268.76 322.06 264.72 332.6 263.54 332.6 259.51 322.06 256.85 322.06" style="fill: #fff; stroke-width: 0px;"/>
      <polygon points="290.3 335.48 290.3 333.11 280.72 333.07 280.72 329.85 288.9 329.85 288.9 327.48 280.72 327.48 280.72 324.43 290.3 324.43 290.3 322.06 278.21 322.06 278.21 335.43 290.16 335.48 290.3 335.48" style="fill: #fff; stroke-width: 0px;"/>
      <polygon points="297.24 322.06 297.24 335.29 308.86 335.29 308.86 332.92 299.75 332.92 299.75 322.06 297.24 322.06" style="fill: #fff; stroke-width: 0px;"/>
      <polygon points="335.11 332.92 326.01 332.92 326.01 322.06 323.5 322.06 323.5 335.29 335.11 335.29 335.11 332.92" style="fill: #fff; stroke-width: 0px;"/>
      <polygon points="345.57 335.48 345.57 324.62 351.13 324.62 351.13 322.25 337.5 322.25 337.5 324.62 343.06 324.62 343.06 335.48 345.57 335.48" style="fill: #fff; stroke-width: 0px;"/>
      <path d="M370.6,328.78c0-4.18-2.57-6.67-6.88-6.67h-6.58v13.32h6.58c4.31,0,6.88-2.48,6.88-6.65ZM359.65,324.48h4.07c2.82,0,4.37,1.53,4.37,4.3s-1.55,4.28-4.37,4.28h-4.07v-8.58Z" style="fill: #fff; stroke-width: 0px;"/>
      <rect x="375.64" y="333.16" width="2.51" height="2.58" style="fill: #fff; stroke-width: 0px;"/>
      <path d="M339.31,223.61c3.07-1.21,6.77-1.92,10.76-1.92,1.42,0,2.8.09,4.12.26-.75.49-1.43,1.05-2.04,1.66,1.33-.53,2.79-.96,4.34-1.28,1.55.32,3,.75,4.34,1.28-.61-.61-1.29-1.17-2.04-1.66,1.33-.17,2.71-.26,4.12-.26,3.99,0,7.7.71,10.76,1.92-2.52-2.54-6.4-4.17-10.76-4.17-2.32,0-4.51.46-6.42,1.28-1.92-.82-4.1-1.28-6.43-1.28-4.36,0-8.24,1.63-10.76,4.17Z" style="fill: #fff; stroke-width: 0px;"/>
      <path d="M371.38,210.2c-1.33-1.34-3.38-2.2-5.68-2.2-1.23,0-2.38.24-3.39.68-1.01-.43-2.17-.68-3.39-.68-2.3,0-4.35.86-5.68,2.2,1.62-.64,3.57-1.01,5.68-1.01.75,0,1.48.05,2.18.14-.39.26-.76.55-1.07.88.7-.28,1.47-.51,2.29-.68.82.17,1.58.4,2.29.68-.32-.32-.68-.62-1.07-.88.7-.09,1.43-.14,2.18-.14,2.11,0,4.06.37,5.68,1.01Z" style="fill: #fff; stroke-width: 0px;"/>
      <path d="M95.85,292.23c-.4-.07-.78-.13-1.1-.18-.54-.09-1.08-.18-1.61-.29-2.82-.56-5.22-1.43-5.22-3.59,0-.81,0-3.19,5.18-3.44.29-.01.58-.02.9-.02.63,0,1.21.05,1.76.11,2.55.3,4.21,1.14,4.72,1.44l.94.55,2.02-3.59-.94-.53c-1.87-1.06-4.02-1.71-6.4-1.95-.51-.05-1.03-.08-1.56-.1-.2,0-.4-.02-.6-.02-.18,0-.34.01-.52.01-1.23.03-2.36.17-3.38.4-3.4.79-5.59,2.69-6.21,5.45-.12.54-.18,1.1-.18,1.7,0,.41.03.8.09,1.17.59,3.71,3.94,5.29,6.89,6.06,1.06.27,2.06.45,2.87.57.15.02.31.05.45.07.67.1,1.28.21,1.82.32.17.04.33.07.48.11,3.3.78,4.03,1.87,4.03,3.4,0,.15-.01.3-.03.44-.11,1.08-.62,1.84-1.36,2.36-.39.28-.84.49-1.33.64-.83.27-1.75.38-2.65.41-.17,0-.34,0-.5,0-3.36,0-6.72-1.39-8.03-2.13l-1-.57-1.75,3.69.86.49c2.18,1.25,6.24,2.59,10,2.59.54,0,1.06-.03,1.57-.08.95-.09,1.83-.26,2.64-.5,1.32-.4,2.43-1.01,3.33-1.78.7-.6,1.26-1.3,1.67-2.08.52-1.01.81-2.16.81-3.43,0-5.66-5.44-7.14-8.7-7.73Z" style="fill: #fff; stroke-width: 0px;"/>
      <path d="M128.46,282.04h-5.38l-10.54,23.63-.37.82h4.52l1.53-3.32h17.48l1.53,3.32h4.53l-10.91-24.45h-2.39ZM128.71,299.1h-8.66l5.62-12.91h2.61l.08.18,5.57,12.73h-5.22Z" style="fill: #fff; stroke-width: 0px;"/>
      <polygon points="171.99 299.71 156.09 281.77 152.22 281.77 152.22 306.49 156.55 306.49 156.55 288.84 172.37 306.49 176.32 306.49 176.32 281.77 171.99 281.77 171.99 299.71" style="fill: #fff; stroke-width: 0px;"/>
      <path d="M213.39,294.15c0-7.7-4.74-12.29-12.69-12.29h-12.12v24.54h12.12c7.94,0,12.69-4.58,12.69-12.25ZM192.92,285.93h7.79c5.39,0,8.35,2.92,8.35,8.22s-2.97,8.18-8.35,8.18h-7.79v-16.41Z" style="fill: #fff; stroke-width: 0px;"/>
      <path d="M261.98,294.15c0-7.7-4.74-12.29-12.69-12.29h-12.12v24.54h12.12c7.94,0,12.69-4.58,12.69-12.25ZM241.51,285.93h7.79c5.39,0,8.36,2.92,8.36,8.22s-2.97,8.18-8.36,8.18h-7.79v-16.41Z" style="fill: #fff; stroke-width: 0px;"/>
      <rect x="272.24" y="281.77" width="4.33" height="24.71" style="fill: #fff; stroke-width: 0px;"/>
      <path d="M292.2,303.17h17.48l1.53,3.32h4.53l-10.91-24.45h-7.76l-10.91,24.45h4.52l1.53-3.32ZM299.64,286.19h2.61l5.65,12.91h-13.88l5.61-12.91Z" style="fill: #fff; stroke-width: 0px;"/>
      <polygon points="330.48 288.89 341.15 305.39 351.78 288.9 351.78 306.49 356.11 306.49 356.11 281.77 353.93 281.77 353.93 281.6 353.81 281.77 351.21 281.77 341.15 297.77 331.05 281.77 328.44 281.77 328.34 281.61 328.34 281.77 326.15 281.77 326.15 306.49 330.48 306.49 330.48 288.89" style="fill: #fff; stroke-width: 0px;"/>
      <path d="M380.36,280.77c-8.32,0-13.91,5.36-13.91,13.34s5.59,13.34,13.91,13.34,13.91-5.36,13.91-13.34-5.59-13.34-13.91-13.34ZM380.36,303.38c-5.96,0-9.67-3.55-9.67-9.27s3.7-9.27,9.67-9.27,9.66,3.55,9.66,9.27-3.7,9.27-9.66,9.27Z" style="fill: #fff; stroke-width: 0px;"/>
      <polygon points="424.38 299.71 408.48 281.77 404.61 281.77 404.61 306.49 408.94 306.49 408.94 288.84 424.76 306.49 428.71 306.49 428.71 281.77 424.38 281.77 424.38 299.71" style="fill: #fff; stroke-width: 0px;"/>
      <path d="M457.28,282.36c-.83-.21-1.71-.36-2.64-.43-.5-.04-1.02-.06-1.55-.06h-12.12v24.54h12.12c1.38,0,2.66-.15,3.84-.42.91-.21,1.75-.49,2.53-.84,4.03-1.85,6.31-5.68,6.31-10.99,0-6.23-3.11-10.42-8.5-11.8ZM458.41,300.93c-.71.49-1.54.85-2.49,1.09-.85.21-1.79.32-2.83.32h-7.79v-16.41h7.79c.45,0,.88.03,1.3.07.98.1,1.87.31,2.65.62,2.86,1.15,4.4,3.72,4.4,7.53,0,3.14-1.06,5.43-3.04,6.78Z" style="fill: #fff; stroke-width: 0px;"/>
      <path d="M484.88,280.64c-1.97,0-3.7.27-5.15.77-.97.34-1.82.79-2.52,1.33-.38.29-.72.61-1.02.96-1.03,1.2-1.59,2.72-1.59,4.52s.62,3.24,1.57,4.31c.27.31.56.6.88.85.74.58,1.58,1.04,2.45,1.4,1.96.8,4.06,1.12,5.39,1.32.75.11,1.41.23,2.01.36.49.11.93.22,1.32.34.51.16.95.33,1.31.52,1.19.62,1.69,1.44,1.69,2.6,0,1.63-.84,2.6-2.01,3.16-.42.2-.88.35-1.36.46-.44.1-.89.16-1.35.2-.38.03-.77.05-1.14.05-3.36,0-6.72-1.39-8.03-2.13l-1-.57-1.75,3.69.86.49c2.18,1.25,6.24,2.59,10,2.59.24,0,.46-.01.7-.02.46-.02.92-.05,1.35-.11.47-.06.92-.14,1.36-.24,4.11-.95,6.62-3.69,6.62-7.51,0-4.15-2.93-6.05-5.78-7-.45-.15-.9-.28-1.33-.39-.46-.12-.91-.21-1.33-.29-.51-.1-.98-.17-1.37-.23-.86-.14-1.71-.29-2.51-.48-1.1-.26-2.08-.59-2.84-1.05-.9-.55-1.47-1.29-1.47-2.34,0-.54,0-1.79,1.55-2.63.69-.38,1.7-.67,3.15-.78.42-.03.87-.06,1.38-.06.77,0,1.47.06,2.11.15.48.07.93.14,1.34.24.51.12.95.26,1.34.4.84.3,1.43.61,1.7.76l.94.56,2.02-3.59-.94-.53c-1.17-.66-2.45-1.16-3.83-1.5-.44-.11-.89-.2-1.35-.28-.44-.07-.89-.13-1.34-.17-.66-.06-1.34-.1-2.04-.1Z" style="fill: #fff; stroke-width: 0px;"/>
      <path d="M312.14,391.38s-.03-.07-.09-.17c-.02-.03-.04-.05-.06-.07l-.29.24h0s.22-.31.22-.31l-.25.28.16-.34c-.31-.28-2.23-2.71-4.41-5.58l-8.02-4.37c-.13-.07-.27-.1-.41-.1h-33.16c-.14,0-.29.04-.41.1l-7.81,4.19-.24.22c-2.09,2.76-3.96,5.14-4.34,5.51l-.03.03s-.04.03-.08.06c-.02.02-.05.04-.1.11l-.06.09s-.04.07-.05.1l-.04.09c-.15.49-.09.57,1.42,2.62.79,1.07,1.92,2.59,3.47,4.64,2.86,3.8,6.7,8.86,10.41,13.74l.27.36c5,6.59,10.68,14.06,12.68,16.8.39.53.64.88.69.96.02.05.04.09.08.16,0,0,0,0,0,0l.09.12s.01.01.02.02l.05.05s.07.05.12.08c.05.03.1.05.16.07.04.01.09.02.12.03h.15s.24-.02.24-.02l.13-.05s.07-.03.11-.06c.04-.03.08-.06.1-.08l.14-.11v-.05s.01-.02.02-.03c.02-.04.05-.09.05-.09.08-.13.32-.48.72-1.01,2.07-2.83,8.1-10.77,12.94-17.15,3.71-4.89,7.55-9.94,10.41-13.74,1.55-2.05,2.68-3.57,3.47-4.64,1.51-2.06,1.57-2.14,1.42-2.62l-.03-.08ZM266.06,382.7h32.73l5.97,3.2-10.28,4.32h-24.1l-10.28-4.32,5.97-3.2ZM295.85,396.52c-4.9.02-21.98.02-26.87,0l1.8-4.56h23.27l1.8,4.56ZM258.35,387.06l10.72,4.5-1.85,4.69-12.23-4.89c.72-.87,1.83-2.28,3.36-4.31ZM269.36,411.41l-.29-.39c-4.94-6.51-10.47-13.8-13.16-17.42l11.14,4.45,10.74,24.47c-2.4-3.18-5.34-7.05-8.43-11.12ZM282.38,430.76h0s0,0,0,0h0ZM282.44,428.7h0s-.02.03-.02.03l-13.37-30.46c1.43,0,3.83.02,6.2.02,1.42,0,2.65,0,3.68,0h1.53c.75,0,1.33,0,1.73-.01h.23s.25,0,.25,0c.4,0,.98,0,1.73.01h1.53c1.03,0,2.26,0,3.68,0,2.37,0,4.76-.02,6.21-.02l-13.36,30.44ZM295.48,411.41l-.22.28c-3.01,3.96-5.87,7.73-8.21,10.83l10.74-24.47,11.14-4.45c-2.79,3.76-8.65,11.48-13.45,17.8ZM297.62,396.25l-1.85-4.69,10.72-4.5c1.54,2.03,2.65,3.44,3.36,4.31l-12.23,4.89Z" style="fill: #fff; stroke-width: 0px;"/>
      <rect x="316.08" y="390.87" width="10.38" height="1.5" style="fill: #fff; stroke-width: 0px;"/>
      <rect x="314.75" y="382.52" width="7.23" height="1.5" transform="translate(-111.88 132) rotate(-20)" style="fill: #fff; stroke-width: 0px;"/>
      <rect x="317.6" y="396.36" width="1.5" height="7.24" transform="translate(-166.39 562.33) rotate(-70)" style="fill: #fff; stroke-width: 0px;"/>
      <rect x="237" y="391.64" width="10.38" height="1.5" style="fill: #fff; stroke-width: 0px;"/>
      <rect x="241.49" y="399.99" width="7.23" height="1.5" transform="translate(-122.27 107.99) rotate(-20)" style="fill: #fff; stroke-width: 0px;"/>
      <rect x="244.36" y="380.41" width="1.5" height="7.24" transform="translate(-199.59 483.02) rotate(-70)" style="fill: #fff; stroke-width: 0px;"/>
      <path d="M242.73,184.82s1.15-2.98,4.83-5.02c0,0-4.39,8.87-3.82,20.48,0,0,1.09-2.11,3.7-3.66-1.69,5.58-2.76,11.27-1.16,18.25,0,0,10.44-16.89,7.22-36.78,0,0,1.82,1.67,2.22,8.85,0,0,3.06-11.06-2.54-15.4-5.6-4.34-10.73,3.04-10.45,13.29Z" style="fill: #fff; stroke-width: 0px;"/>
      <path d="M241.16,195.08c-4.01-5.83-11.46,2.69-14.08,5.97,2.91-7.22,13.48-13.46,13.48-13.46l-.86-2.34c-14.39,3.48-17.78,18.02-14.58,28.61,2.15-13.63,16.04-18.78,16.04-18.78Z" style="fill: #fff; stroke-width: 0px;"/>
      <path d="M260.73,184.47c0,.86-.16,2.79-.35,4.4,2.29,3.18,6.39,6.84,6.76,14.68-1.03-3.02-3.48-7.64-7.55-10.57-.3,1.14-.53,1.76-1.02,2.93,3.17,3.77,7.83,11.14,6.06,20.35,6.59-8.85,8.35-23.62-3.9-31.8Z" style="fill: #fff; stroke-width: 0px;"/>
      <path d="M246.4,166.79s1.73-.06,4.31.27c0,0,.6-8.56,5.73-14.58,0,0-3.15,6.25-3.7,13.84,0,0,2.39-4.75,5.8-7.02l-2.63-.24s3.07-6.39,7.41-8.87l-2.42-.21s2.66-4.39,5.86-6.23c0,0-17.34,3.03-20.36,23.05Z" style="fill: #fff; stroke-width: 0px;"/>
      <path d="M232.45,161.81c-.75-.18-1.5-.29-2.25-.36-1.36-.14-2.72-.12-4.07.03-7.23.79-13.87,5.31-16.21,9.06h4.25s2.16-2.3,6.2-4c1.64-.69,3.59-1.27,5.83-1.57.24-.03.47-.07.72-.1,0,0-.46.18-1.16.49-1.84.81-5.38,2.57-6.89,4.65l1.48.1,3.21.22s4.99-3.66,10.55-3.78c0,0-4.01,1.19-6.65,4.1l5.52.65s3.29-1.82,6.5-2.01l-3.05,2.37,4.73,2.44s2.19-4.37,4.14-4.58c0,0-3.49-5.46-12.86-7.71Z" style="fill: #fff; stroke-width: 0px;"/>
      <path d="M240.1,152.73c-.67-.54-1.4-1.08-2.22-1.6-2.85-1.79-6.63-3.27-11.53-3.52,0,0,4.23,3.56,6.92,7.57.52.78.99,1.57,1.35,2.36.04.08.08.16.12.25,0,0,4.75,2.07,7.53,5.05,0,0-.47-3.81-4.46-8.1-.57-.61-1.21-1.23-1.93-1.85-.38-.33-.78-.65-1.21-.98.51.22,1,.48,1.49.73.86.42,1.69.87,2.5,1.35,2.18,1.29,4.25,2.76,6.29,4.36,0,0-1.47-2.85-4.86-5.62Z" style="fill: #fff; stroke-width: 0px;"/>
      <path d="M221.41,179.03s-9.63.25-11.69,14.51c0,0,9.7-9.62,18.64-11.77,0,0-2.81,1.88-4.12,3.68,0,0,6.03-3.62,11.61-4.35,0,0-1.79,1.46-2.63,2,0,0,4.04-.16,6.6-.06.13-1.05.44-2.74,1.23-4.53-3.66-.67-17.71-2.29-27.24,9.69,0,0,2.24-6.23,7.61-9.17Z" style="fill: #fff; stroke-width: 0px;"/>
      <path d="M280.82,193.38c1.53-10.94-5.51-13.18-5.51-13.18,3.32,3.32,3.64,8.38,3.64,8.38-4.46-10.86-15.15-12.66-17.98-12.95.2,1.48.07,2.79-.06,3.59,1.91.47,4.85,1.45,4.85,1.45-.5-.57-1.51-2.03-1.51-2.03,3.95,1.73,7.62,5.68,7.62,5.68-.58-1.6-2.25-3.59-2.25-3.59,6.12,3.49,11.21,12.64,11.21,12.64Z" style="fill: #fff; stroke-width: 0px;"/>
      <path d="M261.49,169.36l1.33,1.43s5.82-2.22,12.76-1.09c0,0-1.66-1.18-4.38-1.93,4.75-1.35,12.22.8,16.78,2.97,0,0-12.95-11.33-26.48-1.38Z" style="fill: #fff; stroke-width: 0px;"/>
      <path d="M259.97,163.49c7.38-5.53,10.88-7.21,19.92-9.11,0,0-14.43-1.94-19.92,9.11Z" style="fill: #fff; stroke-width: 0px;"/>
      <path d="M317.86,193.09c-2.81-3.46-7.02.33-8.31,6.65,0,0,1.13-1.66,3.68-2.39,0,0-3.97,4.81-5.28,12.01,0,0,.97-1.14,2.79-1.71-1.84,3.18-3.31,6.51-3.33,11.03,0,0,8.82-8.86,9.7-21.52,0,0,.88,1.28.1,5.75,0,0,3.46-6.35.65-9.81Z" style="fill: #fff; stroke-width: 0px;"/>
      <path d="M307.82,201.13l-.19-1.56c-9.32.07-13.49,8.5-13.04,15.46,3.27-8.05,12.53-9.22,12.53-9.22-1.62-4.15-7.42,0-9.49,1.64,2.82-4.01,10.2-6.32,10.2-6.32Z" style="fill: #fff; stroke-width: 0px;"/>
      <path d="M320.63,202.11c-.12.53-.5,1.69-.84,2.65.95,2.28,2.94,5.11,2.04,9.97-.2-2-1.04-5.19-3.11-7.57-.34.66-.57,1-1.05,1.65,1.4,2.77,3.21,7.95.8,13.35,5.31-4.48,8.51-13.29,2.17-20.06Z" style="fill: #fff; stroke-width: 0px;"/>
      <path d="M314.38,189.21s1.07.21,2.61.78c0,0,1.59-5.16,5.61-8.12,0,0-2.83,3.38-4.25,7.96,0,0,2.15-2.57,4.56-3.47l-1.58-.52s2.8-3.48,5.82-4.38l-1.46-.48s2.26-2.31,4.48-2.98c0,0-11.07-.63-15.79,11.21Z" style="fill: #fff; stroke-width: 0px;"/>
      <path d="M291.46,186.28l2.61.61s3.48-2.31,8.63-1.65c0,0-3.99.53-5.67,2l2.84.87s3.59-1.53,7.01-.81c0,0-2.63.16-4.67,1.56l3.29,1.19s2.28-.65,4.28-.3l-2.21,1.02,2.55,2.18s1.97-2.37,3.2-2.22c0,0-1.36-3.85-6.78-6.57-5.43-2.72-12.52-.42-15.07,2.12Z" style="fill: #fff; stroke-width: 0px;"/>
      <path d="M304.83,174.58s3.08,4.12,3.69,7.44c0,0,2.62,1.95,3.89,4.18,0,0,.39-3.57-3.09-7.79,2.09,1.55,3.76,3.4,5.38,5.42,0,0-1.69-6.9-9.87-9.25Z" style="fill: #fff; stroke-width: 0px;"/>
      <path d="M288.05,200.36s7.33-4.51,13.12-4.54c0,0-1.99.75-3.05,1.66,0,0,4.22-1.36,7.74-1.01,0,0-1.31.64-1.9.85,0,0,2.5.48,4.05.91.23-.63.66-1.62,1.4-2.6-2.15-.93-10.53-3.94-18.1,2.04,0,0,2.27-3.5,5.98-4.54,0,0-5.94-1.23-9.25,7.22Z" style="fill: #fff; stroke-width: 0px;"/>
      <path d="M330.19,201.58c1.56,2.51,1.03,5.66,1.03,5.66-1.18-7.3-7.48-9.94-9.17-10.52-.09.94-.36,1.72-.55,2.2,1.1.56,2.76,1.58,2.76,1.58-.23-.42-.63-1.46-.63-1.46,2.17,1.63,3.86,4.58,3.86,4.58-.13-1.07-.86-2.52-.86-2.52,3.25,3.02,5.06,9.36,5.06,9.36,2.5-6.49-1.49-8.87-1.49-8.87Z" style="fill: #fff; stroke-width: 0px;"/>
      <path d="M323.26,192.95l.61,1.07s3.89-.53,7.98,1.16c0,0-.85-.96-2.41-1.81,3.11-.14,7.38,2.24,9.86,4.23,0,0-6.32-8.81-16.04-4.64Z" style="fill: #fff; stroke-width: 0px;"/>
      <path d="M323.18,189.14c5.32-2.33,7.71-2.86,13.52-2.73,0,0-8.57-3.26-13.52,2.73Z" style="fill: #fff; stroke-width: 0px;"/>
    </g>
  </g>
</svg>